<svg width="1142" height="129" viewBox="0 0 1142 129" fill="none" xmlns="http://www.w3.org/2000/svg">
<g clip-path="url(#clip0_70_298)">
<rect width="1142" height="129" fill="#404042"/>
<path d="M35.7843 94.256L24.5001 120.5H8.90234L57.8812 9H74.2865L123.5 120.5H107L95.7138 94.256H35.7843ZM89.6873 80.381L65.749 25.3825L41.8107 80.381H89.6873Z" fill="#F4C537"/>
<rect x="4.5" y="4.5" width="123.299" height="120.258" stroke="#625D5D" stroke-width="9"/>
<rect x="725.5" y="4.5" width="123.299" height="120.258" stroke="#625D5D" stroke-width="9"/>
<rect x="437.5" y="4.5" width="123.299" height="120.258" stroke="#625D5D" stroke-width="9"/>
<path d="M247 23.0422H186.2V57.4789H245.818V71.5211H186.2V105.958H247V120.262H171V9H247V23.0422Z" fill="#F4C537"/>
<path d="M787.5 9C818.912 9 843 32.9696 843 64.5C843 96.0304 818.912 120 787.5 120C756.088 120 732 96.0304 732 64.5C732 32.9696 756.088 9 787.5 9ZM787.5 22.513C764.226 22.513 746.648 40.3696 746.648 64.5C746.648 88.6304 764.226 106.487 787.5 106.487C810.774 106.487 828.352 88.6304 828.352 64.5C828.352 40.3696 810.774 22.513 787.5 22.513Z" fill="#F4C537"/>
<path d="M499.5 9C530.912 9 555 32.9696 555 64.5C555 96.0304 530.912 120 499.5 120C468.088 120 444 96.0304 444 64.5C444 32.9696 468.088 9 499.5 9ZM499.5 22.513C476.226 22.513 458.648 40.3696 458.648 64.5C458.648 88.6304 476.226 106.487 499.5 106.487C522.774 106.487 540.352 88.6304 540.352 64.5C540.352 40.3696 522.774 22.513 499.5 22.513Z" fill="#F4C537"/>
<path d="M691 41.5979C691 59.3178 679.521 74.1958 654.069 74.1958H616.972V120.289H602V9H654.069C679.521 9 691 23.878 691 41.5979ZM676.028 41.5979C676.028 29.3946 667.544 23.0422 654.069 23.0422H616.972V60.1536H654.069C667.544 60.1536 676.028 53.8012 676.028 41.5979Z" fill="#F4C537"/>
<rect x="1014.47" y="4.5" width="123.299" height="120.258" stroke="#625D5D" stroke-width="9"/>
<path d="M976.005 41.8143C976.005 59.6518 964.526 74.6286 939.072 74.6286H927.094L979 120.737H957.373L905.633 74.6286H901.973V121H887V9H939.072C964.526 9 976.005 23.9768 976.005 41.8143ZM961.033 41.8143C961.033 29.53 952.548 23.1354 939.072 23.1354H901.973V60.4932H939.072C952.548 60.4932 961.033 54.0987 961.033 41.8143Z" fill="#F4C537"/>
<path d="M399.005 41.8143C399.005 59.6518 387.526 74.6286 362.072 74.6286H350.094L402 120.737H380.373L328.633 74.6286H324.973V121H310V9H362.072C387.526 9 399.005 23.9768 399.005 41.8143ZM384.033 41.8143C384.033 29.53 375.548 23.1354 362.072 23.1354H324.973V60.4932H362.072C375.548 60.4932 384.033 54.0987 384.033 41.8143Z" fill="#F4C537"/>
<path d="M1030 9H1122V23.0422H1083.53V120.253H1068.47V23.0422H1030V9Z" fill="#F4C537"/>
<rect x="870.5" y="4.5" width="123.299" height="120.258" stroke="#625D5D" stroke-width="9"/>
<rect x="293.5" y="4.5" width="123.299" height="120.258" stroke="#625D5D" stroke-width="9"/>
<rect x="581.44" y="4.5" width="123.299" height="120.258" stroke="#625D5D" stroke-width="9"/>
<rect x="149.485" y="4.5" width="123.299" height="120.258" stroke="#625D5D" stroke-width="9"/>
</g>
<defs>
<clipPath id="clip0_70_298">
<rect width="1142" height="129" fill="white"/>
</clipPath>
</defs>
</svg>
