<svg width="1162" height="742" viewBox="0 0 1162 742" fill="none" xmlns="http://www.w3.org/2000/svg">
<g clip-path="url(#clip0_199_380)">
<rect width="1162" height="742" fill="#404042"/>
<circle cx="1097.19" cy="612.188" r="63.188" fill="#7F7F7F"/>
<circle cx="1098.4" cy="630.796" r="63.188" fill="black"/>
<circle cx="1095.19" cy="107.188" r="63.188" fill="#7F7F7F"/>
<circle cx="1096.4" cy="125.796" r="63.188" fill="black"/>
<path d="M97.8836 179C43.6385 245.505 -32.3045 407.018 97.8836 521.027" stroke="#7F7F7F" stroke-width="26"/>
<path d="M97.8836 212C43.6385 278.505 -32.3045 440.018 97.8836 554.027" stroke="#F4C537" stroke-width="26"/>
<rect x="87" width="1004.05" height="742.024" rx="50" fill="#F4C537"/>
<rect x="123" y="57" width="927.079" height="33" fill="#7F7F7F" fill-opacity="0.54"/>
<rect x="124.921" y="312" width="927.079" height="33" fill="#7F7F7F" fill-opacity="0.54"/>
<rect x="123" y="142" width="927.079" height="33" fill="#7F7F7F" fill-opacity="0.54"/>
<rect x="124.921" y="389" width="927.079" height="33" fill="#7F7F7F" fill-opacity="0.54"/>
<rect x="124.921" y="559" width="927.079" height="33" fill="#7F7F7F" fill-opacity="0.54"/>
<rect x="123" y="227" width="927.079" height="33" fill="#7F7F7F" fill-opacity="0.54"/>
<rect x="125" y="477" width="927.079" height="33" fill="#7F7F7F" fill-opacity="0.54"/>
<rect x="124.921" y="644" width="927.079" height="33" fill="#7F7F7F" fill-opacity="0.54"/>
<path fill-rule="evenodd" clip-rule="evenodd" d="M299.694 59.4212L304.531 58.0395C306.944 62.5071 312.214 64.86 317.298 63.4079C322.382 61.9557 325.614 57.1744 325.303 52.1062L339.81 47.9624L343.215 59.8832C342.897 59.9446 342.579 60.0204 342.262 60.111C336.388 61.7888 332.987 67.9106 334.665 73.7844C336.342 79.6583 342.464 83.0598 348.338 81.382C348.655 81.2914 348.965 81.1879 349.267 81.0721L350.823 86.5171C350.352 86.5876 349.88 86.6894 349.409 86.8238C343.535 88.5016 340.134 94.6234 341.812 100.497C343.489 106.371 349.611 109.773 355.485 108.095C355.955 107.96 356.41 107.798 356.847 107.609L358.436 113.17C357.81 113.237 357.182 113.358 356.556 113.537C350.682 115.215 347.281 121.336 348.959 127.21C350.636 133.084 356.758 136.486 362.632 134.808C363.258 134.629 363.855 134.4 364.422 134.126L366.055 139.842C365.274 139.892 364.486 140.025 363.703 140.249C357.829 141.926 354.428 148.048 356.106 153.922C357.783 159.796 363.905 163.197 369.779 161.52C370.562 161.296 371.301 160.993 371.99 160.623L373.679 166.535C372.743 166.554 371.793 166.692 370.85 166.962C364.976 168.639 361.575 174.761 363.253 180.635C364.93 186.509 371.052 189.91 376.926 188.233C377.869 187.963 378.749 187.579 379.553 187.1L381.31 193.25C380.218 193.223 379.103 193.359 377.997 193.674C372.123 195.352 368.722 201.474 370.4 207.348C372.077 213.222 378.199 216.623 384.073 214.945C385.179 214.63 386.197 214.156 387.11 213.557L388.946 219.984C387.699 219.898 386.416 220.023 385.144 220.386C379.27 222.064 375.869 228.186 377.547 234.06C379.224 239.934 385.346 243.335 391.22 241.657C392.492 241.294 393.647 240.723 394.661 239.99L398.037 251.809L385.54 255.379C385.498 255.202 385.452 255.025 385.402 254.848C383.724 248.974 377.602 245.572 371.728 247.25C365.854 248.928 362.453 255.05 364.131 260.924C364.158 261.019 364.186 261.113 364.216 261.207C364.241 261.288 364.267 261.368 364.294 261.448L358.951 262.974C358.909 262.797 358.863 262.619 358.813 262.442C357.135 256.569 351.013 253.167 345.139 254.845C339.266 256.523 335.864 262.644 337.542 268.518C337.592 268.695 337.647 268.87 337.705 269.043L332.362 270.569C332.321 270.391 332.275 270.214 332.224 270.037C330.546 264.163 324.424 260.762 318.551 262.439C312.677 264.117 309.275 270.239 310.953 276.113C311.004 276.29 311.058 276.465 311.117 276.637L306.707 277.897L306.69 277.832L306.678 277.785C306.664 277.734 306.65 277.683 306.635 277.632C304.957 271.758 298.836 268.357 292.962 270.034C287.088 271.712 283.686 277.834 285.364 283.708C285.379 283.76 285.394 283.812 285.41 283.864L285.422 283.905L285.443 283.971L280.119 285.492C280.096 285.403 280.072 285.315 280.047 285.227C278.369 279.353 272.247 275.951 266.373 277.629C260.499 279.307 257.098 285.429 258.776 291.303L258.792 291.36L258.815 291.437C258.828 291.48 258.841 291.523 258.854 291.566L253.53 293.086C253.507 292.998 253.483 292.91 253.458 292.822C251.78 286.948 245.658 283.546 239.784 285.224C233.911 286.902 230.509 293.024 232.187 298.897C232.212 298.986 232.238 299.073 232.266 299.161L226.941 300.681C226.918 300.593 226.894 300.504 226.869 300.416C225.191 294.542 219.069 291.141 213.196 292.819C207.322 294.496 203.92 300.618 205.598 306.492C205.623 306.58 205.649 306.668 205.677 306.755L194.19 310.036L191.104 299.231C195.893 296.951 198.476 291.481 196.971 286.211C195.465 280.941 190.383 277.662 185.112 278.255L183.528 272.712C188.59 270.56 191.373 264.924 189.824 259.499C188.274 254.074 182.934 250.758 177.499 251.604L175.948 246.172C181.283 244.165 184.27 238.364 182.676 232.786C181.083 227.208 175.483 223.859 169.892 224.973L168.362 219.615C173.97 217.768 177.166 211.803 175.53 206.074C173.893 200.345 168.029 196.967 162.291 198.361L160.771 193.039L160.785 193.034C166.659 191.357 170.06 185.235 168.382 179.361C166.705 173.487 160.583 170.086 154.709 171.763L154.695 171.768L153.174 166.443C153.329 166.406 153.483 166.366 153.638 166.321C159.512 164.644 162.913 158.522 161.235 152.648C159.558 146.774 153.436 143.373 147.562 145.05C147.408 145.095 147.255 145.142 147.104 145.192L145.572 139.831C145.879 139.77 146.185 139.697 146.491 139.61C152.365 137.932 155.766 131.81 154.089 125.936C152.411 120.062 146.289 116.661 140.415 118.339C140.109 118.426 139.81 118.525 139.518 118.636L135.963 106.189L146.746 103.109C149.026 107.898 154.496 110.481 159.766 108.976C165.035 107.471 168.315 102.389 167.722 97.1176L173.334 95.5147C175.615 100.304 181.084 102.887 186.354 101.382C191.624 99.8764 194.904 94.7939 194.311 89.5228L199.046 88.1703C201.396 92.7984 206.766 95.2657 211.943 93.7869C217.12 92.308 220.377 87.3767 219.928 82.2057L225.635 80.5755C227.984 85.2036 233.354 87.6709 238.532 86.192C243.709 84.7132 246.966 79.7819 246.516 74.6109L252.224 72.9806C254.573 77.6088 259.943 80.076 265.121 78.5972C270.298 77.1183 273.554 72.187 273.105 67.016L278.812 65.3858C281.162 70.0141 286.532 72.4815 291.709 71.0026C296.887 69.5237 300.143 64.5922 299.694 59.4212Z" fill="white"/>
<path fill-rule="evenodd" clip-rule="evenodd" d="M518.738 68.0959L522.414 68.3977C522.661 71.7997 525.356 74.6087 528.861 74.8965C532.367 75.1842 535.483 72.8522 536.282 69.536L545.547 70.2965L544.867 78.5761C544.737 78.5581 544.606 78.5437 544.474 78.5328C540.598 78.2147 537.198 81.0987 536.88 84.9745C536.562 88.8503 539.446 92.2501 543.322 92.5682C543.454 92.5791 543.586 92.5862 543.717 92.5897L543.425 96.1406C543.2 96.0999 542.972 96.0697 542.739 96.0506C538.863 95.7325 535.463 98.6165 535.145 102.492C534.827 106.368 537.711 109.768 541.587 110.086C541.819 110.105 542.05 110.113 542.279 110.109L541.982 113.717C541.665 113.646 541.338 113.596 541.004 113.568C537.128 113.25 533.729 116.134 533.41 120.01C533.092 123.886 535.976 127.285 539.852 127.604C540.186 127.631 540.516 127.635 540.842 127.616L540.539 131.307C540.13 131.196 539.706 131.122 539.27 131.086C535.394 130.768 531.994 133.652 531.676 137.527C531.358 141.403 534.242 144.803 538.118 145.121C538.554 145.157 538.985 145.152 539.406 145.11L539.094 148.91C538.598 148.752 538.076 148.648 537.535 148.603C533.659 148.285 530.259 151.169 529.941 155.045C529.623 158.921 532.507 162.321 536.383 162.639C536.924 162.683 537.456 162.665 537.971 162.591L537.648 166.526C537.066 166.313 536.447 166.174 535.8 166.121C531.925 165.803 528.525 168.687 528.207 172.563C527.888 176.438 530.772 179.838 534.648 180.156C535.295 180.209 535.929 180.173 536.537 180.058L536.201 184.156C535.538 183.879 534.82 183.7 534.066 183.638C530.19 183.32 526.79 186.204 526.472 190.08C526.154 193.956 529.038 197.356 532.914 197.674C533.668 197.736 534.405 197.676 535.104 197.512L534.506 204.803L526.495 204.145C526.766 200.303 523.895 196.949 520.047 196.633C516.198 196.317 512.819 199.158 512.46 202.993L508.95 202.705C509.222 198.863 506.351 195.508 502.503 195.192C498.654 194.876 495.275 197.718 494.916 201.553L492.4 201.346C492.718 197.471 489.834 194.071 485.958 193.753C482.082 193.435 478.683 196.319 478.364 200.194L474.855 199.906C475.174 196.03 472.289 192.631 468.414 192.312C464.538 191.994 461.138 194.878 460.82 198.754L457.311 198.466L457.311 198.466C457.63 194.59 454.746 191.19 450.87 190.872C446.994 190.554 443.594 193.438 443.276 197.314L443.276 197.314L439.767 197.026C440.085 193.15 437.201 189.75 433.325 189.432C429.45 189.114 426.05 191.998 425.732 195.874L422.223 195.586C422.541 191.71 419.657 188.31 415.781 187.992C411.905 187.674 408.505 190.558 408.187 194.434L400 193.762L400.585 186.633C403.95 186.348 406.716 183.669 407.001 180.192C407.287 176.715 404.994 173.621 401.721 172.791L402.021 169.134C405.52 168.988 408.442 166.254 408.736 162.674C409.03 159.095 406.592 155.921 403.165 155.206L403.459 151.622C407.088 151.624 410.169 148.837 410.471 145.157C410.773 141.476 408.187 138.225 404.607 137.634L404.897 134.099C408.653 134.256 411.895 131.419 412.205 127.639C412.515 123.859 409.78 120.532 406.048 120.075L406.337 116.563L406.346 116.563C410.222 116.881 413.622 113.997 413.94 110.122C414.258 106.246 411.374 102.846 407.498 102.528L407.489 102.527L407.777 99.0143C407.878 99.0269 407.979 99.0374 408.081 99.0458C411.956 99.3639 415.356 96.4799 415.674 92.6041C415.993 88.7283 413.109 85.3285 409.233 85.0103C409.131 85.002 409.029 84.9958 408.928 84.9919L409.219 81.4528C409.415 81.4857 409.614 81.5106 409.816 81.5272C413.691 81.8453 417.091 78.9613 417.409 75.0855C417.727 71.2098 414.843 67.8099 410.968 67.4918C410.766 67.4752 410.565 67.4673 410.366 67.4678L411.041 59.2559L418.155 59.8399C418.44 63.2046 421.119 65.9705 424.596 66.2559C428.073 66.5414 431.167 64.2493 431.997 60.976L435.7 61.28C435.984 64.6448 438.663 67.411 442.141 67.6964C445.618 67.9818 448.712 65.6896 449.541 62.4161L453.244 62.72C453.528 66.0847 456.207 68.8507 459.685 69.1361C463.162 69.4215 466.256 67.1294 467.085 63.8562L470.788 64.1601C471.072 67.5248 473.751 70.2908 477.229 70.5762C480.706 70.8616 483.8 68.5695 484.629 65.2962L487.326 65.5175C487.573 68.9197 490.267 71.7289 493.773 72.0167C497.279 72.3045 500.395 69.9722 501.194 66.6559L504.87 66.9576C505.117 70.3596 507.812 73.1686 511.317 73.4564C514.823 73.7441 517.939 71.4121 518.738 68.0959Z" fill="white"/>
<path d="M391.296 225.296L429.29 369.175C430.665 374.385 425.885 379.13 420.685 377.717L277.086 338.681C271.886 337.268 270.166 330.755 273.99 326.959L379.596 222.116C383.42 218.319 389.92 220.086 391.296 225.296Z" fill="#F4C537" stroke="#625D5D" stroke-width="6"/>
<circle cx="364.5" cy="90.5" r="58.5" fill="#F4C537" stroke="#625D5D" stroke-width="6"/>
<path d="M524.379 184.495L558.713 234.633C561.895 239.28 567.708 241.349 573.11 239.758L631.405 222.598C637.91 220.683 643.065 228.211 638.928 233.584L601.853 281.731C598.417 286.194 598.246 292.361 601.428 297.008L635.762 347.146C639.594 352.741 634.027 359.97 627.639 357.695L570.391 337.314C565.086 335.425 559.167 337.168 555.731 341.63L518.657 389.778C514.52 395.15 505.924 392.09 506.113 385.312L507.806 324.568C507.963 318.938 504.477 313.848 499.171 311.959L441.924 291.578C435.535 289.303 435.79 280.183 442.295 278.268L500.589 261.107C505.992 259.517 509.756 254.628 509.913 248.999L511.606 188.255C511.795 181.476 520.547 178.9 524.379 184.495Z" fill="white" stroke="#625D5D" stroke-width="6"/>
<rect x="162.246" y="319.551" width="241.156" height="84.5425" rx="10" transform="rotate(23.0138 162.246 319.551)" fill="white"/>
<path d="M163.879 365.283C165.35 361.777 167.107 358.491 169.149 355.425C171.235 352.378 173.622 349.633 176.311 347.19C179.001 344.748 181.956 342.694 185.176 341.028L190.516 343.268C187.431 345.092 184.556 347.255 181.892 349.758C179.271 352.279 176.926 355.042 174.858 358.047C172.791 361.052 171.048 364.243 169.631 367.621C168.249 370.914 167.22 374.329 166.543 377.867C165.865 381.405 165.564 384.95 165.637 388.501C165.693 392.095 166.142 395.653 166.985 399.174L161.709 396.961C160.624 393.538 160.001 390.033 159.842 386.446C159.664 382.902 159.923 379.339 160.618 375.759C161.357 372.196 162.443 368.704 163.879 365.283Z" fill="black"/>
<path d="M201.059 404.117C186.907 398.179 180.321 382.139 186.241 368.028C192.162 353.916 208.221 347.377 222.374 353.315C236.526 359.253 243.112 375.293 237.192 389.404C231.271 403.516 215.212 410.055 201.059 404.117ZM188.943 369.161L211.716 378.716L221.243 356.009C208.57 350.692 194.245 356.525 188.943 369.161Z" fill="black"/>
<path d="M234.012 417.64C234.176 420.374 234.738 422.823 235.696 424.985C236.68 427.208 237.985 429.088 239.61 430.625C241.277 432.18 243.162 433.398 245.264 434.28C247.322 435.143 249.469 435.617 251.704 435.699C253.939 435.782 256.194 435.396 258.47 434.54C260.727 433.727 262.868 432.412 264.891 430.596L267.001 433.14C264.498 435.259 261.978 436.817 259.441 437.814C256.929 438.872 254.37 439.383 251.763 439.345C249.199 439.325 246.566 438.749 243.864 437.615C241.205 436.499 238.949 435.025 237.096 433.191C235.285 431.375 233.856 429.192 232.808 426.64C231.742 424.131 231.067 421.233 230.782 417.945L234.012 417.64Z" fill="black"/>
<path d="M297.745 444.682C283.592 438.744 277.006 422.704 282.927 408.592C288.847 394.481 304.906 387.942 319.059 393.88C333.212 399.818 339.798 415.857 333.877 429.969C327.957 444.081 311.898 450.619 297.745 444.682ZM285.629 409.726L308.402 419.281L317.929 396.574C305.255 391.257 290.93 397.09 285.629 409.726Z" fill="black"/>
<path d="M351.487 443.996C350.052 447.417 348.301 450.63 346.233 453.634C344.208 456.657 341.869 459.347 339.216 461.704C336.588 464.121 333.651 466.133 330.405 467.738L325.13 465.525C328.233 463.658 331.086 461.486 333.689 459.008C336.275 456.572 338.592 453.873 340.642 450.911C342.692 447.949 344.407 444.822 345.789 441.529C347.206 438.151 348.263 434.672 348.958 431.091C349.653 427.511 349.982 423.902 349.944 420.265C349.906 416.628 349.436 413.062 348.532 409.565L353.872 411.805C354.983 415.288 355.587 418.836 355.686 422.448C355.827 426.078 355.52 429.695 354.764 433.301C354.051 436.924 352.959 440.489 351.487 443.996Z" fill="black"/>
<rect x="739" y="389" width="210" height="314.382" fill="white"/>
<rect x="755" y="404" width="2.76316" height="36.2808" fill="black"/>
<rect x="777.105" y="404" width="2.76316" height="36.2808" fill="black"/>
<rect x="784.013" y="404" width="2.76316" height="36.2808" fill="black"/>
<rect x="793.684" y="404" width="2.76316" height="36.2808" fill="black"/>
<rect x="799.901" y="404" width="2.76316" height="36.2808" fill="black"/>
<rect x="806.118" y="404" width="2.76316" height="36.2808" fill="black"/>
<rect x="816.48" y="404" width="2.76316" height="36.2808" fill="black"/>
<rect x="820.625" y="404" width="2.76316" height="36.2808" fill="black"/>
<rect x="832.368" y="404" width="2.76316" height="36.2808" fill="black"/>
<rect x="836.513" y="404" width="2.76316" height="36.2808" fill="black"/>
<rect x="846.875" y="404" width="2.76316" height="36.2808" fill="black"/>
<rect x="860.691" y="404" width="2.76316" height="36.2808" fill="black"/>
<rect x="864.835" y="404" width="2.76316" height="36.2808" fill="black"/>
<rect x="870.053" y="404" width="2.76316" height="36.2808" fill="black"/>
<rect x="876.27" y="404" width="2.76316" height="36.2808" fill="black"/>
<rect x="883.868" y="404" width="2.76316" height="36.2808" fill="black"/>
<rect x="892.849" y="404" width="2.76316" height="36.2808" fill="black"/>
<rect x="900.447" y="404" width="2.76316" height="36.2808" fill="black"/>
<rect x="910.118" y="404" width="2.76316" height="36.2808" fill="black"/>
<rect x="918.408" y="404" width="2.76316" height="36.2808" fill="black"/>
<rect x="927.388" y="404" width="2.76316" height="36.2808" fill="black"/>
<rect x="759.145" y="404" width="2.76316" height="36.2808" fill="black"/>
<line x1="765.553" y1="440.281" x2="765.553" y2="404" stroke="black"/>
<line x1="767.625" y1="440.281" x2="767.625" y2="404" stroke="black"/>
<line x1="769.697" y1="440.281" x2="769.697" y2="404" stroke="black"/>
<line x1="771.77" y1="440.281" x2="771.77" y2="404" stroke="black"/>
<line x1="773.842" y1="440.281" x2="773.842" y2="404" stroke="black"/>
<line x1="781.441" y1="440.281" x2="781.441" y2="404" stroke="black"/>
<line x1="787.658" y1="440.281" x2="787.658" y2="404" stroke="black"/>
<line x1="789.73" y1="440.281" x2="789.73" y2="404" stroke="black"/>
<line x1="798.02" y1="440.281" x2="798.02" y2="404" stroke="black"/>
<line x1="804.237" y1="440.281" x2="804.237" y2="404" stroke="black"/>
<line x1="810.454" y1="440.281" x2="810.454" y2="404" stroke="black"/>
<line x1="814.599" y1="440.281" x2="814.599" y2="404" stroke="black"/>
<line x1="824.27" y1="440.281" x2="824.27" y2="404" stroke="black"/>
<line x1="826.342" y1="440.281" x2="826.342" y2="404" stroke="black"/>
<line x1="830.487" y1="440.281" x2="830.487" y2="404" stroke="black"/>
<line x1="840.849" y1="440.281" x2="840.849" y2="404" stroke="black"/>
<line x1="844.993" y1="440.281" x2="844.993" y2="404" stroke="black"/>
<line x1="851.21" y1="440.281" x2="851.21" y2="404" stroke="black"/>
<line x1="853.283" y1="440.281" x2="853.283" y2="404" stroke="black"/>
<line x1="855.355" y1="440.281" x2="855.355" y2="404" stroke="black"/>
<line x1="858.809" y1="440.281" x2="858.809" y2="404" stroke="black"/>
<line x1="868.171" y1="440.281" x2="868.171" y2="404" stroke="black"/>
<line x1="880.605" y1="440.281" x2="880.605" y2="404" stroke="black"/>
<line x1="882.678" y1="440.281" x2="882.678" y2="404" stroke="black"/>
<line x1="890.276" y1="440.281" x2="890.276" y2="404" stroke="black"/>
<line x1="896.493" y1="440.281" x2="896.493" y2="404" stroke="black"/>
<line x1="898.566" y1="440.281" x2="898.566" y2="404" stroke="black"/>
<line x1="904.783" y1="440.281" x2="904.783" y2="404" stroke="black"/>
<line x1="908.928" y1="440.281" x2="908.928" y2="404" stroke="black"/>
<line x1="915.145" y1="440.281" x2="915.145" y2="404" stroke="black"/>
<line x1="917.217" y1="440.281" x2="917.217" y2="404" stroke="black"/>
<line x1="924.816" y1="440.281" x2="924.816" y2="404" stroke="black"/>
<line x1="931.033" y1="440.281" x2="931.033" y2="404" stroke="black"/>
<path d="M894.154 447.998L900.845 458.869H909.664C913.314 458.869 913.01 463.7 909.664 463.7H900.845L894.154 475.175H890.808V473.363L894.154 463.7H886.551L884.726 466.116H881.684C883.631 462.492 882.927 457.661 881.406 456.453H884.726L886.551 459.473H894.154L890.808 449.508V447.998H894.154Z" fill="black" stroke="black"/>
<rect x="755.382" y="475.41" width="118.588" height="29.0294" fill="#F4C537"/>
<line x1="755.171" y1="601.528" x2="933.053" y2="601.528" stroke="black" stroke-width="3"/>
<line x1="755.171" y1="447.734" x2="846.583" y2="447.734" stroke="black" stroke-width="3"/>
<rect x="813.112" y="617.41" width="120" height="10" fill="#D9D9D9"/>
<rect x="757.112" y="663.41" width="176" height="10" fill="#D9D9D9"/>
<rect x="757.112" y="678.41" width="176" height="10" fill="#D9D9D9"/>
<path d="M951.293 246.456L947.174 222.262L948.794 217.425L966.59 200.786L975.073 203.628L970.665 216.787L989.367 223.051C993.223 224.343 996.394 225.118 998.881 225.377C1001.37 225.636 1003.34 225.292 1004.8 224.347C1006.26 223.401 1007.34 221.896 1008.03 219.832C1008.81 217.51 1009.09 214.736 1008.89 211.51C1008.68 208.284 1008.07 204.349 1007.05 199.704L998.657 162.026L1018.29 157.839L1026.68 196.808C1028.12 203.603 1028.85 209.732 1028.88 215.194C1028.91 220.656 1028.25 225.387 1026.91 229.386C1025.1 234.805 1022.15 238.911 1018.07 241.705C1014.16 244.413 1009.27 245.788 1003.4 245.829C997.52 245.87 990.855 244.642 983.4 242.145L964.313 235.751L959.776 249.297L951.293 246.456ZM897.797 213.472C884.686 209.08 875.245 203.55 869.473 196.882C863.701 190.214 862.198 182.751 864.963 174.495C866.173 170.883 868.155 167.314 870.908 163.788C873.662 160.262 877.166 156.629 881.421 152.889L896.763 139.734L887.401 128.634L894.619 123.089L916.981 131.87L920.38 135.807L925.722 159.549L918.952 165.675L909.653 155.028L894.698 167.667C892.163 169.687 890.228 171.622 888.894 173.471C887.603 175.191 886.677 176.889 886.115 178.566C885.64 179.986 885.529 181.383 885.783 182.76C886.165 184.179 887.062 185.556 888.474 186.889C890.014 188.266 892.197 189.643 895.024 191.02C898.022 192.312 901.514 193.625 905.498 194.959L943.287 207.617L936.935 226.581L897.797 213.472ZM931.183 136.842L917.843 121.613L948.593 95.109C956.501 88.1444 963.803 83.416 970.499 80.9239C977.238 78.3027 983.371 77.9177 988.898 79.769C992.368 80.9314 995.365 82.8678 997.888 85.5782C1000.54 88.3317 1002.78 91.8806 1004.61 96.2251C1006.49 100.441 1007.89 105.43 1008.82 111.193L1012.31 131.516L1026.4 129.134L1027.66 137.521L1008.91 153.191L1003.57 154.415L980.751 146.343L978.78 137.504L992.873 135.122L989.513 115.703C988.753 111.143 987.776 107.659 986.581 105.251C985.558 102.756 983.955 101.142 981.769 100.41C979.327 99.5925 976.367 100.108 972.889 101.956C969.411 103.804 965.222 106.921 960.322 111.306L931.183 136.842Z" fill="white"/>
<circle cx="889.5" cy="116.5" r="54.5" fill="white" stroke="#625D5D" stroke-width="6"/>
<path d="M856 137.679L872.244 82L874.357 82.6166C878.584 83.8497 882.791 85.4418 886.978 87.3927C891.233 89.3071 895.401 91.6169 899.481 94.322C903.562 97.0271 907.375 99.2896 910.921 101.11C914.482 102.878 917.743 104.222 920.702 105.141L910.612 139.727L907.168 138.722C905.132 138.129 902.729 137.147 899.958 135.777C897.253 134.371 894.114 132.614 890.539 130.505C886.979 128.345 883.526 126.496 880.181 124.959C876.887 123.437 873.701 122.227 870.623 121.329C870.049 121.161 869.467 121.02 868.878 120.904C868.356 120.752 867.801 120.618 867.211 120.502C866.69 120.35 866.134 120.216 865.545 120.1L860.07 138.866L856 137.679Z" fill="#625D5D"/>
<path d="M191.49 639.408L236.07 478.805L449.96 538.35L405.054 699.076L191.49 639.408Z" fill="white"/>
<path d="M155.287 583.92L177.622 503.981L236.48 478.894L191.543 639.734L155.287 583.92Z" fill="white"/>
<path d="M235.742 506.974C236.812 505.358 239.324 506.055 239.408 507.99L239.65 513.538C239.688 514.404 240.279 515.147 241.113 515.378L246.464 516.862C248.331 517.38 248.445 519.985 246.63 520.663L241.429 522.607C240.617 522.911 240.093 523.702 240.131 524.568L240.373 530.116C240.457 532.051 238.016 532.964 236.81 531.448L233.353 527.102C232.814 526.424 231.899 526.17 231.087 526.473L225.886 528.418C224.071 529.096 222.448 527.056 223.518 525.441L226.583 520.81C227.061 520.088 227.02 519.139 226.481 518.461L223.024 514.115C221.818 512.599 223.257 510.425 225.124 510.943L230.475 512.427C231.31 512.659 232.199 512.327 232.677 511.604L235.742 506.974Z" fill="#F4C537"/>
<rect x="310.42" y="535.051" width="120" height="10" transform="rotate(15.5044 310.42 535.051)" fill="#D9D9D9"/>
<rect x="300.507" y="627.759" width="106" height="10" transform="rotate(15.5044 300.507 627.759)" fill="#D9D9D9"/>
<rect x="300.131" y="570.594" width="120.644" height="10" transform="rotate(15.5044 300.131 570.594)" fill="#D9D9D9"/>
<rect x="211.923" y="568.955" width="206.079" height="10" transform="rotate(15.5044 211.923 568.955)" fill="#D9D9D9"/>
<path fill-rule="evenodd" clip-rule="evenodd" d="M87 566.769C91.956 567.6 97.1672 568.107 102.51 568.348C136.319 569.875 177.219 560.821 197.986 552.711L201.43 551.365L198.898 548.67C171.32 519.306 138.599 493.594 110.442 484.038C102.269 481.265 94.3537 479.811 87 480.097V485.102C93.601 484.812 100.937 486.093 108.835 488.773C134.983 497.647 165.863 521.381 192.662 549.36C171.557 556.894 133.933 564.762 102.735 563.353C97.2008 563.104 91.9195 562.563 87 561.695V566.769Z" fill="black" fill-opacity="0.5"/>
<path d="M170.5 529.001L177.579 504.248L236.438 479.16L190 549.5L170.5 529.001Z" fill="white"/>
<ellipse cx="193.928" cy="545.557" rx="9.5" ry="10" transform="rotate(-76.6106 193.928 545.557)" fill="#625D5D"/>
</g>
<defs>
<clipPath id="clip0_199_380">
<rect width="1162" height="742" fill="white"/>
</clipPath>
</defs>
</svg>
