<svg width="1280" height="908" viewBox="0 0 1280 908" fill="none" xmlns="http://www.w3.org/2000/svg">
<g clip-path="url(#clip0_215_738)">
<rect width="1280" height="908" fill="#404042"/>
<path d="M122.2 177.92L120.86 181H119L124.84 167.72H126.8L132.62 181H130.7L129.36 177.92H122.2ZM128.64 176.26L125.78 169.68L122.92 176.26H128.64ZM138.531 179.66C139.611 179.66 140.491 179.24 140.971 178.42H142.831C142.191 180.2 140.551 181.26 138.531 181.26C135.751 181.26 133.711 179.22 133.711 176.38C133.711 173.62 135.651 171.54 138.431 171.54C141.071 171.54 142.951 173.64 142.951 176.28C142.951 176.5 142.951 176.78 142.911 177.04H135.491C135.691 178.54 136.951 179.66 138.531 179.66ZM138.431 173.14C136.851 173.14 135.711 174.12 135.511 175.54H141.151C140.931 174.12 139.931 173.14 138.431 173.14ZM145.541 171.8H147.261V173.1C147.761 172.38 148.821 171.72 150.501 171.72H151.041V173.36H150.501C148.481 173.36 147.261 174.66 147.261 176.58V181H145.541V171.8ZM157.261 171.54C160.021 171.54 162.081 173.62 162.081 176.4C162.081 179.16 160.021 181.26 157.261 181.26C154.501 181.26 152.441 179.16 152.441 176.4C152.441 173.62 154.501 171.54 157.261 171.54ZM157.261 179.66C159.081 179.66 160.361 178.2 160.361 176.4C160.361 174.58 159.081 173.14 157.261 173.14C155.441 173.14 154.161 174.58 154.161 176.4C154.161 178.2 155.441 179.66 157.261 179.66ZM166.402 185.08H164.682V171.8H166.402V172.8C167.082 172.04 168.202 171.54 169.502 171.54C172.522 171.54 174.162 173.86 174.162 176.4C174.162 178.94 172.522 181.26 169.502 181.26C168.202 181.26 167.082 180.76 166.402 180V185.08ZM166.342 176.4C166.342 178.58 167.842 179.66 169.442 179.66C171.222 179.66 172.442 178.16 172.442 176.4C172.442 174.64 171.222 173.14 169.442 173.14C167.842 173.14 166.342 174.22 166.342 176.4ZM180.972 171.54C183.732 171.54 185.792 173.62 185.792 176.4C185.792 179.16 183.732 181.26 180.972 181.26C178.212 181.26 176.152 179.16 176.152 176.4C176.152 173.62 178.212 171.54 180.972 171.54ZM180.972 179.66C182.792 179.66 184.072 178.2 184.072 176.4C184.072 174.58 182.792 173.14 180.972 173.14C179.152 173.14 177.872 174.58 177.872 176.4C177.872 178.2 179.152 179.66 180.972 179.66ZM188.393 171.8H190.113V173.1C190.613 172.38 191.673 171.72 193.353 171.72H193.893V173.36H193.353C191.333 173.36 190.113 174.66 190.113 176.58V181H188.393V171.8ZM197.628 169.28H199.348V171.8H202.288V173.32H199.348V177.84C199.348 178.94 199.928 179.48 201.068 179.48H202.288V181H201.048C198.748 181 197.628 179.94 197.628 178.16V173.32H195.928V171.8H197.628V169.28ZM218.489 169.4H211.289V173.52H218.349V175.2H211.289V181H209.489V167.72H218.489V169.4ZM225.211 171.54C227.971 171.54 230.031 173.62 230.031 176.4C230.031 179.16 227.971 181.26 225.211 181.26C222.451 181.26 220.391 179.16 220.391 176.4C220.391 173.62 222.451 171.54 225.211 171.54ZM225.211 179.66C227.031 179.66 228.311 178.2 228.311 176.4C228.311 174.58 227.031 173.14 225.211 173.14C223.391 173.14 222.111 174.58 222.111 176.4C222.111 178.2 223.391 179.66 225.211 179.66ZM237.451 171.54C239.971 171.54 241.451 173.22 241.451 175.58V181H239.731V175.72C239.731 174.2 238.931 173.14 237.271 173.14C235.771 173.14 234.351 174.28 234.351 176.22V181H232.631V171.8H234.351V172.8C234.951 172.06 236.031 171.54 237.451 171.54ZM245.148 169.28H246.868V171.8H249.808V173.32H246.868V177.84C246.868 178.94 247.448 179.48 248.588 179.48H249.808V181H248.568C246.268 181 245.148 179.94 245.148 178.16V173.32H243.448V171.8H245.148V169.28Z" fill="white" fill-opacity="0.7"/>
<path d="M323.34 183.94H321.54V181H311.16V183.94H309.36V179.32H310.66C311.84 178.18 312.22 175.92 312.22 173.7V167.72H321.54V179.32H323.34V183.94ZM314.02 173.68C314.02 175.5 313.82 177.78 312.86 179.32H319.74V169.4H314.02V173.68ZM327.965 185.08H326.245V171.8H327.965V172.8C328.645 172.04 329.765 171.54 331.065 171.54C334.085 171.54 335.725 173.86 335.725 176.4C335.725 178.94 334.085 181.26 331.065 181.26C329.765 181.26 328.645 180.76 327.965 180V185.08ZM327.905 176.4C327.905 178.58 329.405 179.66 331.005 179.66C332.785 179.66 334.005 178.16 334.005 176.4C334.005 174.64 332.785 173.14 331.005 173.14C329.405 173.14 327.905 174.22 327.905 176.4ZM341 180.88L336.88 171.8H338.82L341.96 178.76L345.1 171.8H346.94L342.54 181.5C341.28 184.26 341.04 185.08 338.86 185.08H337.98V183.56H338.54C339.6 183.56 340 183.18 340.62 181.76L341 180.88ZM353.21 171.8H354.93V175.7L358.85 171.8H361.03L356.39 176.44L361.03 181H358.73L354.93 177.28V181H353.21V177.28L349.41 181H347.11L351.75 176.44L347.11 171.8H349.29L353.21 175.7V171.8ZM364.547 181H362.827V171.8H364.547V178.48L369.927 171.8H371.647V181H369.927V174.32L364.547 181ZM381.938 171.8H383.658V181H381.938V177.12H376.558V181H374.838V171.8H376.558V175.6H381.938V171.8ZM388.57 181H386.85V171.8H388.57V178.48L393.95 171.8H395.67V181H393.95V174.32L388.57 181ZM405.962 171.8H407.682V181H405.962V177.12H400.582V181H398.862V171.8H400.582V175.6H405.962V171.8ZM414.553 171.54C417.153 171.54 418.953 172.84 418.953 175.14V181H417.233V180C416.513 180.78 415.453 181.26 414.033 181.26C411.873 181.26 410.293 180.26 410.293 178.2C410.293 175.98 412.213 175.22 414.333 175.22H417.233C417.233 173.7 416.073 173.14 414.553 173.14C413.453 173.14 412.353 173.6 411.993 174.48H410.073C410.613 172.58 412.433 171.54 414.553 171.54ZM417.233 177.32V176.72H414.313C412.893 176.72 412.013 177.2 412.013 178.2C412.013 179.2 412.893 179.66 414.213 179.66C416.073 179.66 417.233 178.7 417.233 177.32ZM440.657 170.38L434.557 181L428.457 170.38V181H426.657V167.72H428.937L434.597 177.64L440.257 167.72H442.457V181H440.657V170.38ZM449.436 171.54C452.036 171.54 453.836 172.84 453.836 175.14V181H452.116V180C451.396 180.78 450.336 181.26 448.916 181.26C446.756 181.26 445.176 180.26 445.176 178.2C445.176 175.98 447.096 175.22 449.216 175.22H452.116C452.116 173.7 450.956 173.14 449.436 173.14C448.336 173.14 447.236 173.6 446.876 174.48H444.956C445.496 172.58 447.316 171.54 449.436 171.54ZM452.116 177.32V176.72H449.196C447.776 176.72 446.896 177.2 446.896 178.2C446.896 179.2 447.776 179.66 449.096 179.66C450.956 179.66 452.116 178.7 452.116 177.32ZM470.03 181H456.83V171.8H458.55V179.48H462.57V171.8H464.29V179.48H468.31V171.8H470.03V181ZM476.917 171.54C479.517 171.54 481.317 172.84 481.317 175.14V181H479.597V180C478.877 180.78 477.817 181.26 476.397 181.26C474.237 181.26 472.657 180.26 472.657 178.2C472.657 175.98 474.577 175.22 476.697 175.22H479.597C479.597 173.7 478.437 173.14 476.917 173.14C475.817 173.14 474.717 173.6 474.357 174.48H472.437C472.977 172.58 474.797 171.54 476.917 171.54ZM479.597 177.32V176.72H476.677C475.257 176.72 474.377 177.2 474.377 178.2C474.377 179.2 475.257 179.66 476.577 179.66C478.437 179.66 479.597 178.7 479.597 177.32ZM321.4 204.02C321.4 206.18 320 208 316.86 208H310.7V194.72H320.6V196.4H312.5V200.04H316.86C320 200.04 321.4 201.86 321.4 204.02ZM319.6 204.02C319.6 202.5 318.54 201.72 316.86 201.72H312.5V206.32H316.86C318.54 206.32 319.6 205.54 319.6 204.02ZM332.603 208H323.163V206.54L326.903 202.76C327.623 202.04 328.23 201.4 328.723 200.84C329.216 200.28 329.59 199.733 329.843 199.2C330.096 198.653 330.223 198.06 330.223 197.42C330.223 196.633 329.99 196.04 329.523 195.64C329.056 195.227 328.45 195.02 327.703 195.02C327.01 195.02 326.396 195.14 325.863 195.38C325.343 195.62 324.81 195.953 324.263 196.38L323.323 195.2C323.696 194.88 324.103 194.593 324.543 194.34C324.996 194.087 325.483 193.887 326.003 193.74C326.536 193.593 327.103 193.52 327.703 193.52C328.596 193.52 329.363 193.673 330.003 193.98C330.643 194.287 331.136 194.727 331.483 195.3C331.843 195.86 332.023 196.533 332.023 197.32C332.023 197.88 331.936 198.413 331.763 198.92C331.59 199.413 331.343 199.9 331.023 200.38C330.703 200.86 330.316 201.347 329.863 201.84C329.41 202.333 328.91 202.847 328.363 203.38L325.383 206.32V206.4H332.603V208ZM344.688 204.76H342.608V208H340.908V204.76H334.068V203.26L340.788 193.64H342.608V203.18H344.688V204.76ZM340.908 198.68C340.908 198.333 340.908 198.02 340.908 197.74C340.922 197.447 340.935 197.173 340.948 196.92C340.962 196.667 340.968 196.427 340.968 196.2C340.982 195.96 340.995 195.733 341.008 195.52H340.928C340.822 195.773 340.688 196.047 340.528 196.34C340.368 196.633 340.215 196.88 340.068 197.08L335.788 203.18H340.908V198.68ZM359.434 210.94H357.634V208H347.254V210.94H345.454V206.32H346.754C347.934 205.18 348.314 202.92 348.314 200.7V194.72H357.634V206.32H359.434V210.94ZM350.114 200.68C350.114 202.5 349.914 204.78 348.954 206.32H355.834V196.4H350.114V200.68ZM369.833 204.26C369.833 202.94 368.853 202.2 367.333 202.2H364.033V200.52H367.333C368.853 200.52 369.773 199.66 369.773 198.46C369.773 196.8 368.173 196.14 366.353 196.14C364.613 196.14 363.273 196.92 362.753 198.02H360.793C361.353 196.4 363.013 194.46 366.293 194.46C368.913 194.46 371.573 195.56 371.573 198.5C371.573 199.54 371.193 200.58 369.853 201.36C371.233 202.14 371.633 203.2 371.633 204.26C371.633 206.9 369.053 208.26 366.333 208.26C362.833 208.26 361.333 206.42 360.733 204.7H362.693C363.293 205.84 364.573 206.58 366.333 206.58C368.153 206.58 369.833 205.94 369.833 204.26ZM383.288 200.84C383.288 202 383.201 203.033 383.028 203.94C382.855 204.847 382.575 205.62 382.188 206.26C381.815 206.887 381.321 207.367 380.708 207.7C380.108 208.033 379.381 208.2 378.528 208.2C377.461 208.2 376.575 207.907 375.868 207.32C375.175 206.733 374.655 205.893 374.308 204.8C373.975 203.693 373.808 202.373 373.808 200.84C373.808 199.293 373.961 197.973 374.268 196.88C374.588 195.787 375.095 194.953 375.788 194.38C376.481 193.793 377.395 193.5 378.528 193.5C379.595 193.5 380.481 193.793 381.188 194.38C381.895 194.953 382.421 195.787 382.768 196.88C383.115 197.973 383.288 199.293 383.288 200.84ZM375.568 200.84C375.568 202.147 375.661 203.233 375.848 204.1C376.048 204.967 376.361 205.62 376.788 206.06C377.228 206.487 377.808 206.7 378.528 206.7C379.248 206.7 379.821 206.487 380.248 206.06C380.688 205.633 381.008 204.987 381.208 204.12C381.408 203.24 381.508 202.147 381.508 200.84C381.508 199.533 381.408 198.453 381.208 197.6C381.008 196.733 380.688 196.087 380.248 195.66C379.821 195.22 379.248 195 378.528 195C377.808 195 377.228 195.22 376.788 195.66C376.361 196.087 376.048 196.733 375.848 197.6C375.661 198.453 375.568 199.533 375.568 200.84ZM394.673 199.82C394.673 200.633 394.613 201.447 394.493 202.26C394.387 203.06 394.193 203.82 393.913 204.54C393.633 205.247 393.247 205.88 392.753 206.44C392.26 206.987 391.633 207.42 390.873 207.74C390.113 208.047 389.193 208.2 388.113 208.2C387.847 208.2 387.533 208.18 387.173 208.14C386.827 208.113 386.54 208.067 386.313 208V206.5C386.553 206.58 386.833 206.647 387.153 206.7C387.473 206.74 387.78 206.76 388.073 206.76C389.007 206.76 389.773 206.607 390.373 206.3C390.987 205.993 391.473 205.58 391.833 205.06C392.193 204.527 392.453 203.913 392.613 203.22C392.773 202.513 392.867 201.773 392.893 201H392.773C392.573 201.307 392.32 201.587 392.013 201.84C391.707 202.093 391.333 202.293 390.893 202.44C390.467 202.587 389.96 202.66 389.373 202.66C388.56 202.66 387.84 202.493 387.213 202.16C386.6 201.813 386.12 201.32 385.773 200.68C385.44 200.04 385.273 199.26 385.273 198.34C385.273 197.34 385.46 196.48 385.833 195.76C386.22 195.04 386.753 194.487 387.433 194.1C388.113 193.713 388.913 193.52 389.833 193.52C390.513 193.52 391.147 193.653 391.733 193.92C392.32 194.173 392.833 194.56 393.273 195.08C393.713 195.6 394.053 196.253 394.293 197.04C394.547 197.827 394.673 198.753 394.673 199.82ZM389.833 195C389.007 195 388.327 195.273 387.793 195.82C387.273 196.367 387.013 197.2 387.013 198.32C387.013 199.24 387.233 199.967 387.673 200.5C388.127 201.02 388.82 201.28 389.753 201.28C390.393 201.28 390.947 201.153 391.413 200.9C391.88 200.633 392.24 200.3 392.493 199.9C392.76 199.5 392.893 199.087 392.893 198.66C392.893 198.233 392.827 197.807 392.693 197.38C392.573 196.94 392.387 196.54 392.133 196.18C391.88 195.82 391.56 195.533 391.173 195.32C390.787 195.107 390.34 195 389.833 195Z" fill="white" fill-opacity="0.7"/>
<path d="M544.2 177.92L542.86 181H541L546.84 167.72H548.8L554.62 181H552.7L551.36 177.92H544.2ZM550.64 176.26L547.78 169.68L544.92 176.26H550.64ZM557.933 185.08H556.213V171.8H557.933V172.8C558.613 172.04 559.733 171.54 561.033 171.54C564.053 171.54 565.693 173.86 565.693 176.4C565.693 178.94 564.053 181.26 561.033 181.26C559.733 181.26 558.613 180.76 557.933 180V185.08ZM557.873 176.4C557.873 178.58 559.373 179.66 560.973 179.66C562.753 179.66 563.973 178.16 563.973 176.4C563.973 174.64 562.753 173.14 560.973 173.14C559.373 173.14 557.873 174.22 557.873 176.4ZM566.888 173.32V171.8H575.728V173.32H572.168V181H570.448V173.32H566.888ZM576.937 176.42V174.86H581.777V176.42H576.937ZM584.182 171.8H592.842V181H591.122V173.32H585.902V181H584.182V171.8ZM597.758 185.08H596.038V171.8H597.758V172.8C598.438 172.04 599.558 171.54 600.858 171.54C603.878 171.54 605.518 173.86 605.518 176.4C605.518 178.94 603.878 181.26 600.858 181.26C599.558 181.26 598.438 180.76 597.758 180V185.08ZM597.698 176.4C597.698 178.58 599.198 179.66 600.798 179.66C602.578 179.66 603.798 178.16 603.798 176.4C603.798 174.64 602.578 173.14 600.798 173.14C599.198 173.14 597.698 174.22 597.698 176.4ZM611.788 171.54C614.388 171.54 616.188 172.84 616.188 175.14V181H614.468V180C613.748 180.78 612.688 181.26 611.268 181.26C609.108 181.26 607.528 180.26 607.528 178.2C607.528 175.98 609.448 175.22 611.568 175.22H614.468C614.468 173.7 613.308 173.14 611.788 173.14C610.688 173.14 609.588 173.6 609.228 174.48H607.308C607.848 172.58 609.668 171.54 611.788 171.54ZM614.468 177.32V176.72H611.548C610.128 176.72 609.248 177.2 609.248 178.2C609.248 179.2 610.128 179.66 611.448 179.66C613.308 179.66 614.468 178.7 614.468 177.32ZM619.182 171.8H620.902V175.82L625.322 171.8H627.622L622.522 176.4L627.622 181H625.322L620.902 177.22V181H619.182V171.8ZM628.216 173.32V171.8H637.056V173.32H633.496V181H631.776V173.32H628.216ZM640.785 181H639.065V171.8H640.785V178.48L646.165 171.8H647.885V181H646.165V174.32L640.785 181ZM651.077 171.8H652.797V175.82L657.217 171.8H659.517L654.417 176.4L659.517 181H657.217L652.797 177.22V181H651.077V171.8ZM664.991 171.54C667.591 171.54 669.391 172.84 669.391 175.14V181H667.671V180C666.951 180.78 665.891 181.26 664.471 181.26C662.311 181.26 660.731 180.26 660.731 178.2C660.731 175.98 662.651 175.22 664.771 175.22H667.671C667.671 173.7 666.511 173.14 664.991 173.14C663.891 173.14 662.791 173.6 662.431 174.48H660.511C661.051 172.58 662.871 171.54 664.991 171.54ZM667.671 177.32V176.72H664.751C663.331 176.72 662.451 177.2 662.451 178.2C662.451 179.2 663.331 179.66 664.651 179.66C666.511 179.66 667.671 178.7 667.671 177.32Z" fill="white" fill-opacity="0.7"/>
<path fill-rule="evenodd" clip-rule="evenodd" d="M70 0C31.3401 0 0 31.3401 0 70.0001V367.726V778.599V908H1280V778.599V367.726V70C1280 31.3401 1248.66 0 1210 0H70Z" fill="#D9D9D9"/>
<rect x="105" y="53" width="1070" height="687" rx="29" fill="#404042"/>
<path fill-rule="evenodd" clip-rule="evenodd" d="M134 495C117.984 495 105 507.984 105 524V711C105 727.016 117.984 740 134 740H1146C1162.02 740 1175 727.016 1175 711V591V540V524C1175 507.984 1162.02 495 1146 495H134Z" fill="#625D5D"/>
<rect x="223" y="138" width="802" height="544" fill="white"/>
<path d="M1109.97 596.986C1109.97 625.2 1086.11 648.073 1056.67 648.073C1027.23 648.073 1018.55 628.687 1018.55 600.472C1018.55 572.258 1027.23 545.9 1056.67 545.9C1086.11 545.9 1109.97 568.772 1109.97 596.986Z" fill="#7F7F7F"/>
<path d="M1111 612.031C1111 640.245 1087.13 663.117 1057.69 663.117C1028.25 663.117 1020.66 643.644 1020.66 615.429C1020.66 587.215 1028.25 560.944 1057.69 560.944C1087.13 560.944 1111 583.817 1111 612.031Z" fill="black"/>
<path d="M1108.29 188.702C1108.29 216.916 1084.42 239.789 1054.98 239.789C1025.54 239.789 1018.55 213.126 1018.55 184.912C1018.55 156.698 1025.54 137.616 1054.98 137.616C1084.42 137.616 1108.29 160.488 1108.29 188.702Z" fill="#7F7F7F"/>
<path d="M1109.31 203.747C1109.31 231.961 1085.45 254.833 1056.01 254.833C1026.57 254.833 1024.45 228.083 1024.45 199.869C1024.45 171.655 1026.57 152.66 1056.01 152.66C1085.45 152.66 1109.31 175.532 1109.31 203.747Z" fill="black"/>
<path d="M213.642 246.761C167.88 300.529 103.814 431.11 213.642 523.284" stroke="#7F7F7F" stroke-width="26"/>
<path d="M213.642 273.441C167.88 327.209 103.814 457.79 213.642 549.964" stroke="#F4C537" stroke-width="26"/>
<rect x="224.96" y="118.5" width="806.03" height="558.914" rx="29.5" fill="#F4C537" fill-opacity="0.45" stroke="#F4C537" stroke-width="41"/>
</g>
<defs>
<clipPath id="clip0_215_738">
<rect width="1280" height="908" fill="white"/>
</clipPath>
</defs>
</svg>
