<svg width="961" height="582" viewBox="0 0 961 582" fill="none" xmlns="http://www.w3.org/2000/svg">
<g clip-path="url(#clip0_180_162)">
<rect width="961" height="582" fill="#404042"/>
<rect x="803" y="220" width="158" height="151" rx="17" fill="#625D5D"/>
<rect x="803" y="431" width="158" height="151" rx="17" fill="#625D5D"/>
<rect x="439" width="522" height="155" rx="17" fill="#625D5D"/>
<path d="M527.737 65.3036C541.065 52.5496 559.704 52.0699 563.333 58.6405C564.81 61.4426 557.85 67.2592 536.957 78.5118C516.463 89.5496 486.041 93.4297 475.202 95.7477L463.958 79.6401C467.571 73.2848 479.621 79.8857 485.195 83.9806C488.492 83.2124 495.159 77.6636 498.081 74.9853L498.081 74.9852C496.536 74.1462 477.239 63.6609 476.437 61.8253C475.634 59.9897 486.393 53.4377 488.034 53.7295C489.347 53.9629 515.05 61.5429 527.737 65.3036Z" fill="white"/>
<rect x="496" y="109" width="69" height="6" fill="white"/>
<path d="M834 119.007L845.814 131L924.607 53.1407V95.726L941 81.873V28L881.244 28L870.139 42.3661L915.088 42.3661L834 119.007Z" fill="#F4C537"/>
<circle cx="626" cy="96" r="5" fill="white"/>
<circle cx="648" cy="96" r="5" fill="white"/>
<path d="M627.37 122.064C626.718 123.786 624.282 123.786 623.63 122.064L617.433 105.709C616.937 104.4 617.904 103 619.303 103H631.697C633.096 103 634.063 104.4 633.567 105.709L627.37 122.064Z" fill="white"/>
<path d="M645.63 103.936C646.282 102.214 648.718 102.214 649.37 103.936L655.567 120.291C656.063 121.6 655.096 123 653.697 123H641.303C639.904 123 638.937 121.6 639.433 120.291L645.63 103.936Z" fill="white"/>
<path d="M683.552 107.638C687.706 99.708 691.592 103.631 693.276 107.04C693.454 107.399 693.811 107.638 694.211 107.638H701.052C701.604 107.638 702.052 108.086 702.052 108.638V110.638C702.052 111.19 701.604 111.638 701.052 111.638H699.466C698.575 111.638 698.129 112.715 698.759 113.345L699.052 113.638C700.548 115.508 701.578 117.233 701.978 117.994C702.028 118.089 702.06 118.192 702.075 118.299L702.889 123.997C702.975 124.599 702.508 125.138 701.899 125.138H698.052C697.5 125.138 697.052 124.69 697.052 124.138V119.138L697.052 119.117C697.052 118.575 697.052 118.138 696.507 118.138H693.552H693.552C688.552 118.138 678.052 118.138 683.552 107.638Z" fill="white"/>
<circle cx="689" cy="96" r="5" fill="white"/>
<circle cx="684.5" cy="115.5" r="7.5" stroke="white" stroke-width="2"/>
<rect y="220" width="424" height="151" rx="17" fill="#625D5D"/>
<path d="M127 332.007L115.186 344L36.3932 266.141L36.3932 308.726L20 294.873L20 241L79.7559 241L90.861 255.366H45.9118L127 332.007Z" fill="#F4C537"/>
<rect width="424" height="151" rx="17" transform="matrix(-1 0 0 1 424 431)" fill="#625D5D"/>
<path d="M263.439 501.822L263.878 518.65L374.607 515.588L345.524 546.695L366.96 547.771L403.752 508.419L360.102 467.609L342.179 470.519L375.013 501.216L263.439 501.822Z" fill="#F4C537"/>
<rect width="242" height="362" rx="17" transform="matrix(-1 0 0 1 726 220)" fill="#625D5D"/>
<path d="M657.295 384.164L674.129 384.042L673.153 273.274L703.707 302.939L705.187 281.527L666.535 244L624.91 286.873L627.481 304.848L658.792 272.598L657.295 384.164Z" fill="#F4C537"/>
<path d="M510.552 533.638C514.706 525.708 518.592 529.631 520.276 533.04C520.454 533.399 520.811 533.638 521.211 533.638H528.052C528.604 533.638 529.052 534.086 529.052 534.638V536.638C529.052 537.19 528.604 537.638 528.052 537.638H526.466C525.575 537.638 525.129 538.715 525.759 539.345L526.052 539.638C527.548 541.508 528.578 543.233 528.978 543.994C529.028 544.089 529.06 544.192 529.075 544.299L529.889 549.997C529.975 550.599 529.508 551.138 528.899 551.138H525.052C524.5 551.138 524.052 550.69 524.052 550.138V545.138L524.052 545.117C524.052 544.575 524.052 544.138 523.507 544.138H520.552H520.552C515.552 544.138 505.052 544.138 510.552 533.638Z" fill="white"/>
<circle cx="516" cy="522" r="5" fill="white"/>
<circle cx="511.5" cy="541.5" r="7.5" stroke="white" stroke-width="2"/>
<path d="M916.468 447.495C903.685 437.417 871.877 480.906 859.526 499.757H842.365C838.075 499.757 837.685 506.777 842.365 506.777C848.606 506.777 852.65 508.792 854.456 510.677C856.51 512.822 857.908 519.291 859.526 521.988C860.696 523.938 863.426 523.548 864.986 521.988C866.691 520.594 865.376 512.757 865.376 507.167C889.037 488.706 925.583 454.681 916.468 447.495Z" fill="white"/>
<path d="M880.342 463.27C879.272 465.052 875.033 470.5 871.279 473.928C870.663 474.491 869.761 474.566 869.039 474.148C859.466 468.592 841.167 457.504 843.632 454.812C846.848 451.302 882.823 459.134 880.342 463.27Z" fill="white"/>
<path d="M905.254 478.062C903.867 479.61 899.913 485.268 897.746 489.866C897.39 490.621 897.584 491.506 898.197 492.072C906.331 499.579 922.326 513.791 924.17 510.64C926.575 506.532 908.474 474.471 905.254 478.062Z" fill="white"/>
<rect x="1" width="158" height="151" rx="17" fill="#625D5D"/>
<path d="M74.9658 61L83 68.9494L30.8418 121.969H59.3699L50.0897 133H14V92.7904L23.6239 85.3179V115.564L74.9658 61Z" fill="#F4C537"/>
<rect x="219" width="158" height="151" rx="17" fill="#625D5D"/>
<path d="M319.179 68.5093L318.972 57.2089L244.607 58.3552L264.297 37.7123L249.91 36.8137L225 62.9281L254.096 90.6816L266.145 88.8755L244.259 67.999L319.179 68.5093Z" fill="#F4C537"/>
<path d="M869.252 273.383C850.83 272.42 836.395 284.222 837.935 291.568C838.645 294.655 847.714 294.52 870.888 289.408C893.619 284.394 919.199 267.478 928.924 262.159L926.93 242.616C920.044 240.16 915.223 253.026 913.673 259.766C910.674 261.336 902.001 261.484 898.039 261.362L898.039 261.362C898.661 259.718 906.438 239.179 905.848 237.265C905.257 235.35 892.83 237.409 891.777 238.701C890.935 239.734 876.41 262.253 869.252 273.383Z" fill="white"/>
<rect x="838" y="309" width="69" height="6" fill="white"/>
</g>
<defs>
<clipPath id="clip0_180_162">
<rect width="961" height="582" fill="white"/>
</clipPath>
</defs>
</svg>
