<svg width="143" height="170" viewBox="0 0 143 170" fill="none" xmlns="http://www.w3.org/2000/svg">
<rect width="143" height="170" fill="#D9D9D9"/>
<path d="M108.072 158.407H34.7452C18.3173 158.407 5 145.101 5 128.685V33.7219C5 17.3069 18.3173 4 34.7452 4H108.072C124.5 4 137.818 17.3069 137.818 33.7219V128.685C137.818 145.101 124.5 158.407 108.072 158.407Z" fill="#D9D9D9" stroke="#494646" stroke-width="3" stroke-miterlimit="10"/>
<path d="M15.6859 49.9597H126.404C126.937 24.6655 112.745 20.4621 96.317 20.4621H45.773C29.3451 20.4621 15.153 19.9128 15.6859 49.9597Z" fill="#D9D9D9" stroke="#494646" stroke-width="3" stroke-miterlimit="10"/>
<path d="M15.5451 49.3764C15.5417 49.5673 15.5384 49.7582 15.5384 49.9491L15.6591 118.54C15.6591 135.146 29.1339 148.61 45.7528 148.61H96.2969C112.916 148.61 126.391 135.146 126.391 118.54V49.9458C126.391 49.7549 126.387 49.564 126.384 49.373H15.5451V49.3764Z" fill="white" stroke="#494646" stroke-width="3" stroke-miterlimit="10"/>
<g filter="url(#filter0_d_240_45)">
<path d="M51.6758 35.2085H90.4142" stroke="white" stroke-width="5" stroke-miterlimit="10" stroke-linecap="round" stroke-linejoin="round"/>
</g>
<line x1="38.7582" y1="59" x2="38.7582" y2="139.126" stroke="#F4C537" stroke-width="6"/>
<line x1="35.7582" y1="136.126" x2="112.742" y2="136.126" stroke="#F4C537" stroke-width="6"/>
<path d="M75.3653 54C97.5223 54 112.862 64.9966 112.862 84.4522V134.021H98.204V125.563C92.0682 132.161 83.035 136.221 70.9339 136.221C52.5266 136.221 39.062 127.762 39.062 110.336C39.062 91.5577 55.424 85.1289 73.4905 85.1289H98.204C98.204 72.2713 88.3186 67.5343 75.3653 67.5343C65.9912 67.5343 56.6171 71.4254 53.5492 78.8693H37.1871C41.789 62.7973 57.2988 54 75.3653 54ZM98.204 102.893V97.8173H73.32C61.2189 97.8173 53.7196 101.878 53.7196 110.336C53.7196 118.795 61.2189 122.687 72.4678 122.687C88.3186 122.687 98.204 114.566 98.204 102.893Z" fill="black"/>
<circle cx="41.0202" cy="83.0202" r="17.0202" fill="#F4C537" fill-opacity="0.5"/>
<defs>
<filter id="filter0_d_240_45" x="45.1758" y="32.7085" width="51.7385" height="13" filterUnits="userSpaceOnUse" color-interpolation-filters="sRGB">
<feFlood flood-opacity="0" result="BackgroundImageFix"/>
<feColorMatrix in="SourceAlpha" type="matrix" values="0 0 0 0 0 0 0 0 0 0 0 0 0 0 0 0 0 0 127 0" result="hardAlpha"/>
<feOffset dy="4"/>
<feGaussianBlur stdDeviation="2"/>
<feComposite in2="hardAlpha" operator="out"/>
<feColorMatrix type="matrix" values="0 0 0 0 0 0 0 0 0 0 0 0 0 0 0 0 0 0 0.25 0"/>
<feBlend mode="normal" in2="BackgroundImageFix" result="effect1_dropShadow_240_45"/>
<feBlend mode="normal" in="SourceGraphic" in2="effect1_dropShadow_240_45" result="shape"/>
</filter>
</defs>
</svg>
