<svg width="143" height="170" viewBox="0 0 143 170" fill="none" xmlns="http://www.w3.org/2000/svg">
<rect width="143" height="170" fill="#D9D9D9"/>
<path d="M108.072 158.407H34.7452C18.3173 158.407 5 145.101 5 128.685V33.7219C5 17.3069 18.3173 4 34.7452 4H108.072C124.5 4 137.818 17.3069 137.818 33.7219V128.685C137.818 145.101 124.5 158.407 108.072 158.407Z" fill="#D9D9D9" stroke="#494646" stroke-width="3" stroke-miterlimit="10"/>
<path d="M15.6859 49.9597H126.404C126.937 24.6655 112.745 20.4621 96.317 20.4621H45.773C29.3451 20.4621 15.153 19.9128 15.6859 49.9597Z" fill="#D9D9D9" stroke="#494646" stroke-width="3" stroke-miterlimit="10"/>
<path d="M15.5451 49.3764C15.5417 49.5673 15.5384 49.7582 15.5384 49.9491L15.6591 118.54C15.6591 135.146 29.1339 148.61 45.7528 148.61H96.2969C112.916 148.61 126.391 135.146 126.391 118.54V49.9458C126.391 49.7549 126.387 49.564 126.384 49.373H15.5451V49.3764Z" fill="white" stroke="#494646" stroke-width="3" stroke-miterlimit="10"/>
<g filter="url(#filter0_d_240_2)">
<path d="M51.6758 35.2085H90.4142" stroke="white" stroke-width="5" stroke-miterlimit="10" stroke-linecap="round" stroke-linejoin="round"/>
</g>
<line x1="36" y1="57" x2="36" y2="136.7" stroke="#F4C537" stroke-width="6"/>
<line x1="33" y1="133.7" x2="109.574" y2="133.7" stroke="#F4C537" stroke-width="6"/>
<path d="M97.6338 94C106.056 98.3435 108 104.778 108 111.052C108 121.991 100.387 131 84.1901 131H39V57H83.5423C99.7394 57 107.352 65.8478 107.352 76.9478C107.352 83.0609 105.732 89.3348 97.6338 94ZM82.7324 118.774C89.6972 118.774 94.0704 115.717 94.0704 109.443C94.0704 103.17 89.6972 100.113 82.7324 100.113H52.9296V118.774H82.7324ZM82.0845 87.887C89.0493 87.887 93.4225 84.8304 93.4225 78.5565C93.4225 72.2826 89.0493 69.2261 82.0845 69.2261H52.9296V87.887H82.0845Z" fill="black"/>
<circle cx="102.93" cy="74.9297" r="16.9297" fill="#F4C537" fill-opacity="0.5"/>
<defs>
<filter id="filter0_d_240_2" x="45.1758" y="32.7085" width="51.7385" height="13" filterUnits="userSpaceOnUse" color-interpolation-filters="sRGB">
<feFlood flood-opacity="0" result="BackgroundImageFix"/>
<feColorMatrix in="SourceAlpha" type="matrix" values="0 0 0 0 0 0 0 0 0 0 0 0 0 0 0 0 0 0 127 0" result="hardAlpha"/>
<feOffset dy="4"/>
<feGaussianBlur stdDeviation="2"/>
<feComposite in2="hardAlpha" operator="out"/>
<feColorMatrix type="matrix" values="0 0 0 0 0 0 0 0 0 0 0 0 0 0 0 0 0 0 0.25 0"/>
<feBlend mode="normal" in2="BackgroundImageFix" result="effect1_dropShadow_240_2"/>
<feBlend mode="normal" in="SourceGraphic" in2="effect1_dropShadow_240_2" result="shape"/>
</filter>
</defs>
</svg>
