<svg width="143" height="170" viewBox="0 0 143 170" fill="none" xmlns="http://www.w3.org/2000/svg">
<rect width="143" height="170" fill="#D9D9D9"/>
<path d="M108.072 158.407H34.7452C18.3173 158.407 5 145.101 5 128.685V33.7219C5 17.3069 18.3173 4 34.7452 4H108.072C124.5 4 137.818 17.3069 137.818 33.7219V128.685C137.818 145.101 124.5 158.407 108.072 158.407Z" fill="#D9D9D9" stroke="#494646" stroke-width="3" stroke-miterlimit="10"/>
<path d="M15.6859 49.9597H126.404C126.937 24.6655 112.745 20.4621 96.317 20.4621H45.773C29.3451 20.4621 15.153 19.9128 15.6859 49.9597Z" fill="#D9D9D9" stroke="#494646" stroke-width="3" stroke-miterlimit="10"/>
<path d="M15.5451 49.3764C15.5417 49.5673 15.5384 49.7582 15.5384 49.9491L15.6591 118.54C15.6591 135.146 29.1339 148.61 45.7528 148.61H96.2969C112.916 148.61 126.391 135.146 126.391 118.54V49.9458C126.391 49.7549 126.387 49.564 126.384 49.373H15.5451V49.3764Z" fill="white" stroke="#494646" stroke-width="3" stroke-miterlimit="10"/>
<g filter="url(#filter0_d_232_95)">
<path d="M51.6758 35.2085H90.4142" stroke="white" stroke-width="5" stroke-miterlimit="10" stroke-linecap="round" stroke-linejoin="round"/>
</g>
<defs>
<filter id="filter0_d_232_95" x="45.1758" y="32.7085" width="51.7385" height="13" filterUnits="userSpaceOnUse" color-interpolation-filters="sRGB">
<feFlood flood-opacity="0" result="BackgroundImageFix"/>
<feColorMatrix in="SourceAlpha" type="matrix" values="0 0 0 0 0 0 0 0 0 0 0 0 0 0 0 0 0 0 127 0" result="hardAlpha"/>
<feOffset dy="4"/>
<feGaussianBlur stdDeviation="2"/>
<feComposite in2="hardAlpha" operator="out"/>
<feColorMatrix type="matrix" values="0 0 0 0 0 0 0 0 0 0 0 0 0 0 0 0 0 0 0.25 0"/>
<feBlend mode="normal" in2="BackgroundImageFix" result="effect1_dropShadow_232_95"/>
<feBlend mode="normal" in="SourceGraphic" in2="effect1_dropShadow_232_95" result="shape"/>
</filter>
</defs>
</svg>
