<svg width="1004" height="741" viewBox="0 0 1004 741" fill="none" xmlns="http://www.w3.org/2000/svg">
<g clip-path="url(#clip0_225_37)">
<rect width="1004" height="741" fill="#404042"/>
<rect x="10" y="731.099" width="721.098" height="984" rx="40" transform="rotate(-90 10 731.099)" fill="white" stroke="#F4C537" stroke-width="20"/>
<path d="M479.741 721.102C479.763 700.933 479.767 245.154 480.016 19.9999" stroke="black" stroke-opacity="0.5" stroke-width="5"/>
<rect x="540.688" y="658.083" width="106.576" height="27.4929" transform="rotate(-90 540.688 658.083)" fill="#625D5D"/>
<rect x="527.451" y="464.3" width="106.576" height="27.4929" transform="rotate(-90 527.451 464.3)" fill="#625D5D"/>
<rect x="581.419" y="464.3" width="73.0243" height="27.4929" transform="rotate(-90 581.419 464.3)" fill="#625D5D"/>
<rect x="651.678" y="464.3" width="126.312" height="27.4929" transform="rotate(-90 651.678 464.3)" fill="#625D5D"/>
<rect x="724.993" y="464.3" width="106.576" height="27.4929" transform="rotate(-90 724.993 464.3)" fill="#625D5D"/>
<rect x="792.198" y="464.3" width="84.8661" height="27.4929" transform="rotate(-90 792.198 464.3)" fill="#625D5D"/>
<rect x="618.076" y="464.3" width="378.937" height="10.1826" transform="rotate(-90 618.076 464.3)" fill="#625D5D"/>
<rect x="451.087" y="693.732" width="175.653" height="10.1826" transform="rotate(-90 451.087 693.732)" fill="#625D5D"/>
<rect x="451.087" y="512.776" width="104.602" height="10.1826" transform="rotate(-90 451.087 512.776)" fill="#625D5D"/>
<rect x="451.087" y="396.087" width="162.825" height="10.1826" transform="rotate(-90 451.087 396.087)" fill="#625D5D"/>
<rect x="451.087" y="221.175" width="162.825" height="10.1826" transform="rotate(-90 451.087 221.175)" fill="#625D5D"/>
<rect x="691.39" y="464.3" width="378.937" height="10.1826" transform="rotate(-90 691.39 464.3)" fill="#625D5D"/>
<rect x="764.704" y="464.3" width="378.937" height="10.1826" transform="rotate(-90 764.704 464.3)" fill="#625D5D"/>
<rect x="838.019" y="464.3" width="378.937" height="10.1826" transform="rotate(-90 838.019 464.3)" fill="#625D5D"/>
<rect x="889.95" y="693.732" width="218.086" height="10.1826" transform="rotate(-90 889.95 693.732)" fill="#625D5D"/>
<rect x="198" y="673" width="225.034" height="9.86815" fill="#625D5D"/>
<path d="M904.5 452.452L897.048 469.408H895.248L886.788 452.452H889.596L896.004 466.024L901.692 452.452H904.5ZM904.5 431.85L897.048 448.806H895.248L886.788 431.85H889.596L896.004 445.422L901.692 431.85H904.5ZM904.5 411.248L897.048 428.204H895.248L886.788 411.248H889.596L896.004 424.82L901.692 411.248H904.5ZM904.5 390.647L897.048 407.603H895.248L886.788 390.647H889.596L896.004 404.219L901.692 390.647H904.5ZM904.5 370.045L897.048 387.001H895.248L886.788 370.045H889.596L896.004 383.617L901.692 370.045H904.5ZM904.5 349.444L897.048 366.4H895.248L886.788 349.444H889.596L896.004 363.016L901.692 349.444H904.5ZM904.5 328.842L897.048 345.798H895.248L886.788 328.842H889.596L896.004 342.414L901.692 328.842H904.5ZM904.5 308.241L897.048 325.197H895.248L886.788 308.241H889.596L896.004 321.813L901.692 308.241H904.5ZM904.5 287.639L897.048 304.595H895.248L886.788 287.639H889.596L896.004 301.211L901.692 287.639H904.5ZM904.5 267.037L897.048 283.993H895.248L886.788 267.037H889.596L896.004 280.609L901.692 267.037H904.5ZM904.5 246.436L897.048 263.392H895.248L886.788 246.436H889.596L896.004 260.008L901.692 246.436H904.5ZM904.5 225.834L897.048 242.79H895.248L886.788 225.834H889.596L896.004 239.406L901.692 225.834H904.5ZM904.5 205.233L897.048 222.189H895.248L886.788 205.233H889.596L896.004 218.805L901.692 205.233H904.5ZM904.5 184.631L897.048 201.587H895.248L886.788 184.631H889.596L896.004 198.203L901.692 184.631H904.5ZM904.5 164.03L897.048 180.986H895.248L886.788 164.03H889.596L896.004 177.602L901.692 164.03H904.5ZM904.5 143.428L897.048 160.384H895.248L886.788 143.428H889.596L896.004 157L901.692 143.428H904.5ZM904.5 122.827L897.048 139.783H895.248L886.788 122.827H889.596L896.004 136.399L901.692 122.827H904.5ZM904.5 102.225L897.048 119.181H895.248L886.788 102.225H889.596L896.004 115.797L901.692 102.225H904.5ZM904.5 81.6234L897.048 98.5794H895.248L886.788 81.6234H889.596L896.004 95.1954L901.692 81.6234H904.5Z" fill="#625D5D"/>
<rect x="527.451" y="171.834" width="106.576" height="27.4929" transform="rotate(-90 527.451 171.834)" fill="#625D5D"/>
<rect x="527.451" y="343.786" width="158.877" height="27.4929" transform="rotate(-90 527.451 343.786)" fill="#625D5D"/>
<path d="M244.942 678.334C245.584 682.023 248.268 681.734 251.022 679.622C257.222 674.866 262.114 668.2 267.068 662.34C275.485 652.384 283.203 641.796 291.915 632.081C297.34 626.031 303.377 620.752 310.4 616.46C313.095 614.813 317.734 611.664 317.963 616.867C318.656 632.625 309.693 647.222 300.256 659.325C297.99 662.23 295.543 664.943 294.353 668.44C294.343 668.47 292.959 672.122 293.894 670.541C296.346 666.392 298.547 662.127 300.044 657.563C301.156 654.17 304.14 645.727 301.493 642.213C299.323 639.332 293.613 638.776 290.395 638.485C280.036 637.548 270.808 640.25 261.236 643.805C259.757 644.354 227.883 655.139 239.57 660.24C246.915 663.445 257.742 662.568 265.442 662.544C282.438 662.49 299.456 661.109 316.267 658.749C329.543 656.885 343.808 655.141 356.559 650.887C361.293 649.308 363.707 646.646 364.794 642.077C365.411 639.483 367.41 632.509 364.688 630.421C359.869 626.725 347.613 643.14 346.486 644.347C334.449 657.248 322.941 670.592 310.894 683.485C305.067 689.721 299.109 696.523 291.703 701.139C290.033 702.179 287.49 704 285.659 702.325C284.426 701.196 282.111 698.93 282.407 697.106C283.266 691.812 293.18 686.321 296.898 683.959C322.322 667.808 351.684 659.675 380.77 651.904C396.296 647.755 412.088 644.248 427.459 639.57C428.889 639.135 429.036 639.106 428.166 638.689" stroke="#F4C537" stroke-width="2" stroke-linecap="round"/>
<rect x="606.875" y="693.732" width="185.521" height="241.327" transform="rotate(-90 606.875 693.732)" fill="white"/>
<rect x="753.158" y="626.778" width="49.8872" height="44.8037" rx="16" transform="rotate(-90 753.158 626.778)" fill="#C3C4C6"/>
<ellipse cx="707.878" cy="600.97" rx="58.2017" ry="64.3457" transform="rotate(-90 707.878 600.97)" fill="#7D7E82"/>
<path d="M725.079 557.49C752.982 557.49 775.602 577.343 775.602 601.834C775.602 626.325 752.982 646.178 725.079 646.178C697.176 646.178 663.593 635.101 663.593 610.611C651.677 572.271 697.176 557.49 725.079 557.49Z" fill="#DEDFE1"/>
<path fill-rule="evenodd" clip-rule="evenodd" d="M702.635 549.394C702.439 549.391 702.243 549.39 702.047 549.39C674.468 549.39 652.111 571.057 652.111 597.784C652.111 624.511 674.468 646.178 702.047 646.178C702.243 646.178 702.439 646.177 702.635 646.175V549.394Z" fill="#7D7E82"/>
<path fill-rule="evenodd" clip-rule="evenodd" d="M848.573 693.713L848.573 508.227C813.099 512.681 785.657 542.953 785.657 579.635V622.306C785.657 658.987 813.099 689.26 848.573 693.713Z" fill="#6D6E70"/>
</g>
<defs>
<clipPath id="clip0_225_37">
<rect width="1004" height="741" fill="white"/>
</clipPath>
</defs>
</svg>
