<svg width="1243" height="536" viewBox="0 0 1243 536" fill="none" xmlns="http://www.w3.org/2000/svg">
<rect width="1243" height="536" fill="#404042"/>
<path d="M1064.24 181.474C1147.63 180.66 1215.63 221.411 1216.13 272.495C1216.63 323.579 1167 386 837.64 380.469C508.281 374.939 914.646 326.527 914.147 275.443C913.649 224.359 980.846 182.288 1064.24 181.474Z" fill="#D9D9D9"/>
<path d="M1127.29 174.486C1127.29 174.486 1072.23 107.309 997.343 80.0948C922.53 52.9144 781.489 34.8906 781.177 34.8572L755.312 0.0111027C755.312 -2.30884e-05 755.301 3.9446e-10 755.289 3.9446e-10H748.698C748.676 3.9446e-10 748.664 0.0111245 748.676 0.0333761L755.98 31.2636C755.98 31.2858 755.969 31.2969 755.958 31.2969L609.873 28.0704C609.861 28.0704 609.85 28.0816 609.85 28.0927V381.883C609.85 381.894 609.861 381.905 609.873 381.905H760.033C761.013 381.905 761.725 382.828 761.48 383.774C761.057 385.421 759.843 388.035 756.503 391.128C756.503 391.128 756.492 391.139 756.492 391.15L755.557 426.531C755.557 426.542 755.568 426.553 755.579 426.553H773.65C773.661 426.553 773.673 426.564 773.673 426.575L774.185 446.357C774.185 446.368 774.174 446.379 774.162 446.379L757.561 446.635C757.55 446.635 757.539 446.646 757.539 446.657L757.605 457.193C757.605 457.204 757.617 457.216 757.628 457.216H766.836C767.827 457.216 768.54 458.15 768.272 459.107C767.66 461.221 767.404 464.992 770.544 469.81C759.42 479.245 753.853 495.01 759.487 511.554C763.084 522.124 771.557 530.446 782.168 533.928C808.279 542.495 832.418 523.292 832.418 498.448C832.418 479.211 817.932 463.357 799.26 461.165C799.995 457.727 801.531 450.963 802.288 450.395C803.135 449.761 816.106 449.828 820.582 449.873C821.406 449.884 822.085 449.216 822.085 448.382V435.376C822.085 435.364 822.074 435.353 822.063 435.353H796.498C796.476 435.353 796.465 435.32 796.476 435.309L804.081 428.088C804.081 428.088 804.092 428.077 804.092 428.066V422.904C804.092 422.892 804.092 422.892 804.092 422.892L836.393 380.681C836.404 380.659 836.522 379.5 836.5 379.5L817.576 380.637C816.752 380.637 816.084 381.304 816.084 382.127C816.084 382.951 816.752 383.618 817.576 383.618H824.067C824.079 383.618 824.09 383.629 824.09 383.641L824.212 385.176C824.246 385.543 824.134 385.91 823.912 386.199L798.647 419.243C798.647 419.254 798.636 419.254 798.625 419.254L793.47 419.165C793.459 419.165 793.447 419.154 793.447 419.143L793.113 415.961C793.113 415.95 793.125 415.939 793.136 415.928L797.523 415.004C797.534 415.004 797.534 415.004 797.534 414.993L799.995 411.433C799.995 411.433 799.995 411.422 799.995 411.411L799.482 407.183C799.482 407.172 799.482 407.16 799.494 407.16L803.123 405.48C803.135 405.48 803.135 405.469 803.135 405.458L802.967 380.67C802.967 380.659 802.967 380.648 802.99 380.648C805.239 380.637 1021.87 378.979 1122.45 352.077C1132.4 349.416 1141.56 347.131 1150 345.115C1228.92 326.25 1242.13 229.85 1170.44 191.845C1158.26 185.391 1144 179.479 1127.29 174.486Z" fill="#D9D9D9"/>
<path d="M0 27L610.5 28L612 381.906L0 382V27Z" fill="#D9D9D9"/>
<path d="M946.711 127.235C938.977 127.278 922.041 127.206 915.246 127.164C913.38 127.15 911.6 127.89 910.29 129.199L899.478 140.004C898.168 141.313 897.442 143.079 897.442 144.929C897.442 144.929 897.342 183.136 897.313 183.933C897.285 185.328 896.872 189.442 905.39 190.894C912.868 192.161 933.621 190.88 944.233 190.097C947.865 189.827 950.671 186.809 950.671 183.165C950.671 170.296 950.671 141.712 950.671 131.15C950.671 128.972 948.904 127.221 946.711 127.235Z" fill="white"/>
<path d="M967.239 127.164H998.227C1001.44 127.164 1004.48 128.576 1006.54 131.02C1006.54 131.02 1025.72 154.696 1039.79 175.744C1051.47 193.233 974.045 189.786 974.045 189.786C970.62 189.786 967.409 188.091 965.505 185.251C962.891 181.367 952.633 127.164 967.239 127.164Z" fill="white"/>
<path d="M1013.64 127.164H1061.89C1063.2 127.164 1064.45 127.672 1065.38 128.589L1106.58 169.389C1109.31 172.085 1108.02 176.798 1104.26 177.603C1104.2 177.617 1104.16 177.631 1104.1 177.631C1099.63 178.492 1069.06 179.536 1060.33 179.804C1058.87 179.847 1057.45 179.24 1056.49 178.153L1012.29 128.504C1012.27 128.518 1011.93 127.164 1013.64 127.164Z" fill="white"/>
</svg>
