<svg width="243" height="243" viewBox="0 0 243 243" fill="none" xmlns="http://www.w3.org/2000/svg">
<g clip-path="url(#clip0_483_193)">
<rect width="243" height="243" fill="#404042"/>
<mask id="path-1-inside-1_483_193" fill="white">
<path fill-rule="evenodd" clip-rule="evenodd" d="M193.338 0H200.027C201.033 5.99622 206.248 10.5652 212.53 10.5652C218.812 10.5652 224.027 5.99622 225.033 0H243V14.9354C242.375 14.8405 241.734 14.7913 241.082 14.7913C234.08 14.7913 228.404 20.4675 228.404 27.4695C228.404 34.4716 234.08 40.1478 241.082 40.1478C241.734 40.1478 242.375 40.0986 243 40.0037V46.7191C242.207 46.5639 241.388 46.4826 240.55 46.4826C233.548 46.4826 227.872 52.1588 227.872 59.1609C227.872 66.1629 233.548 71.8391 240.55 71.8391C241.388 71.8391 242.207 71.7578 243 71.6026V78.5267C242.043 78.2961 241.044 78.1738 240.017 78.1738C233.015 78.1738 227.339 83.8501 227.339 90.8521C227.339 97.8541 233.015 103.53 240.017 103.53C241.044 103.53 242.043 103.408 243 103.177V110.359C241.884 110.037 240.704 109.865 239.485 109.865C232.483 109.865 226.806 115.541 226.806 122.543C226.806 129.545 232.483 135.221 239.485 135.221C240.704 135.221 241.884 135.049 243 134.728V142.216C241.729 141.788 240.368 141.556 238.952 141.556C231.95 141.556 226.274 147.232 226.274 154.234C226.274 161.236 231.95 166.913 238.952 166.913C240.368 166.913 241.729 166.681 243 166.253V174.1C241.579 173.549 240.035 173.247 238.419 173.247C231.417 173.247 225.741 178.923 225.741 185.925C225.741 192.927 231.417 198.604 238.419 198.604C240.035 198.604 241.579 198.302 243 197.751V206.012C241.436 205.322 239.706 204.938 237.887 204.938C230.885 204.938 225.209 210.615 225.209 217.617C225.209 224.619 230.885 230.295 237.887 230.295C239.706 230.295 241.436 229.912 243 229.222V243H227.322C227.322 235.998 221.645 230.322 214.643 230.322C207.641 230.322 201.965 235.998 201.965 243H195.626C195.626 235.998 189.95 230.322 182.948 230.322C175.946 230.322 170.27 235.998 170.27 243H163.93C163.93 235.998 158.254 230.322 151.252 230.322C144.25 230.322 138.574 235.998 138.574 243H134.235C134.235 235.998 128.559 230.322 121.557 230.322C114.555 230.322 108.878 235.998 108.878 243H102.539C102.539 235.998 96.8629 230.322 89.8609 230.322C82.8589 230.322 77.1826 235.998 77.1826 243H70.8435C70.8435 235.998 65.1672 230.322 58.1652 230.322C51.1632 230.322 45.487 235.998 45.487 243H40.1478C40.1478 235.998 34.4716 230.322 27.4696 230.322C20.4676 230.322 14.7913 235.998 14.7913 243H0V230.12C5.99621 229.114 10.5652 223.899 10.5652 217.617C10.5652 211.335 5.99621 206.12 0 205.114V198.506C6.25611 197.728 11.0977 192.392 11.0977 185.925C11.0977 179.459 6.25611 174.123 0 173.345V166.87C6.51179 166.337 11.6304 160.884 11.6304 154.234C11.6304 147.585 6.51179 142.132 0 141.599V135.211C6.76306 134.941 12.1629 129.372 12.1629 122.543C12.1629 115.714 6.76306 110.146 0 109.875V103.53L0.0171556 103.53C7.01917 103.53 12.6954 97.8541 12.6954 90.8521C12.6954 83.8501 7.01917 78.1738 0.0171556 78.1738L0 78.1738V71.8274C0.182296 71.8352 0.365589 71.8391 0.5498 71.8391C7.55181 71.8391 13.2281 66.1629 13.2281 59.1609C13.2281 52.1588 7.55181 46.4826 0.5498 46.4826C0.365589 46.4826 0.182296 46.4865 0 46.4943V40.1023C0.356768 40.1324 0.717745 40.1478 1.08232 40.1478C8.08433 40.1478 13.7606 34.4716 13.7606 27.4695C13.7606 20.4675 8.08433 14.7913 1.08232 14.7913C0.717745 14.7913 0.356768 14.8067 0 14.8368V0H12.8536C13.8595 5.99622 19.0744 10.5652 25.3565 10.5652C31.6386 10.5652 36.8535 5.99622 37.8595 0H43.5492C44.5552 5.99622 49.7701 10.5652 56.0522 10.5652C62.3343 10.5652 67.5492 5.99622 68.5551 0H75.2449C76.2508 5.99622 81.4658 10.5652 87.7478 10.5652C94.0299 10.5652 99.2448 5.99622 100.251 0H106.941C107.946 5.99622 113.161 10.5652 119.443 10.5652C125.726 10.5652 130.94 5.99622 131.946 0H136.636C137.642 5.99622 142.857 10.5652 149.139 10.5652C155.421 10.5652 160.636 5.99622 161.642 0H168.332C169.338 5.99622 174.553 10.5652 180.835 10.5652C187.117 10.5652 192.332 5.99622 193.338 0Z"/>
</mask>
<path fill-rule="evenodd" clip-rule="evenodd" d="M193.338 0H200.027C201.033 5.99622 206.248 10.5652 212.53 10.5652C218.812 10.5652 224.027 5.99622 225.033 0H243V14.9354C242.375 14.8405 241.734 14.7913 241.082 14.7913C234.08 14.7913 228.404 20.4675 228.404 27.4695C228.404 34.4716 234.08 40.1478 241.082 40.1478C241.734 40.1478 242.375 40.0986 243 40.0037V46.7191C242.207 46.5639 241.388 46.4826 240.55 46.4826C233.548 46.4826 227.872 52.1588 227.872 59.1609C227.872 66.1629 233.548 71.8391 240.55 71.8391C241.388 71.8391 242.207 71.7578 243 71.6026V78.5267C242.043 78.2961 241.044 78.1738 240.017 78.1738C233.015 78.1738 227.339 83.8501 227.339 90.8521C227.339 97.8541 233.015 103.53 240.017 103.53C241.044 103.53 242.043 103.408 243 103.177V110.359C241.884 110.037 240.704 109.865 239.485 109.865C232.483 109.865 226.806 115.541 226.806 122.543C226.806 129.545 232.483 135.221 239.485 135.221C240.704 135.221 241.884 135.049 243 134.728V142.216C241.729 141.788 240.368 141.556 238.952 141.556C231.95 141.556 226.274 147.232 226.274 154.234C226.274 161.236 231.95 166.913 238.952 166.913C240.368 166.913 241.729 166.681 243 166.253V174.1C241.579 173.549 240.035 173.247 238.419 173.247C231.417 173.247 225.741 178.923 225.741 185.925C225.741 192.927 231.417 198.604 238.419 198.604C240.035 198.604 241.579 198.302 243 197.751V206.012C241.436 205.322 239.706 204.938 237.887 204.938C230.885 204.938 225.209 210.615 225.209 217.617C225.209 224.619 230.885 230.295 237.887 230.295C239.706 230.295 241.436 229.912 243 229.222V243H227.322C227.322 235.998 221.645 230.322 214.643 230.322C207.641 230.322 201.965 235.998 201.965 243H195.626C195.626 235.998 189.95 230.322 182.948 230.322C175.946 230.322 170.27 235.998 170.27 243H163.93C163.93 235.998 158.254 230.322 151.252 230.322C144.25 230.322 138.574 235.998 138.574 243H134.235C134.235 235.998 128.559 230.322 121.557 230.322C114.555 230.322 108.878 235.998 108.878 243H102.539C102.539 235.998 96.8629 230.322 89.8609 230.322C82.8589 230.322 77.1826 235.998 77.1826 243H70.8435C70.8435 235.998 65.1672 230.322 58.1652 230.322C51.1632 230.322 45.487 235.998 45.487 243H40.1478C40.1478 235.998 34.4716 230.322 27.4696 230.322C20.4676 230.322 14.7913 235.998 14.7913 243H0V230.12C5.99621 229.114 10.5652 223.899 10.5652 217.617C10.5652 211.335 5.99621 206.12 0 205.114V198.506C6.25611 197.728 11.0977 192.392 11.0977 185.925C11.0977 179.459 6.25611 174.123 0 173.345V166.87C6.51179 166.337 11.6304 160.884 11.6304 154.234C11.6304 147.585 6.51179 142.132 0 141.599V135.211C6.76306 134.941 12.1629 129.372 12.1629 122.543C12.1629 115.714 6.76306 110.146 0 109.875V103.53L0.0171556 103.53C7.01917 103.53 12.6954 97.8541 12.6954 90.8521C12.6954 83.8501 7.01917 78.1738 0.0171556 78.1738L0 78.1738V71.8274C0.182296 71.8352 0.365589 71.8391 0.5498 71.8391C7.55181 71.8391 13.2281 66.1629 13.2281 59.1609C13.2281 52.1588 7.55181 46.4826 0.5498 46.4826C0.365589 46.4826 0.182296 46.4865 0 46.4943V40.1023C0.356768 40.1324 0.717745 40.1478 1.08232 40.1478C8.08433 40.1478 13.7606 34.4716 13.7606 27.4695C13.7606 20.4675 8.08433 14.7913 1.08232 14.7913C0.717745 14.7913 0.356768 14.8067 0 14.8368V0H12.8536C13.8595 5.99622 19.0744 10.5652 25.3565 10.5652C31.6386 10.5652 36.8535 5.99622 37.8595 0H43.5492C44.5552 5.99622 49.7701 10.5652 56.0522 10.5652C62.3343 10.5652 67.5492 5.99622 68.5551 0H75.2449C76.2508 5.99622 81.4658 10.5652 87.7478 10.5652C94.0299 10.5652 99.2448 5.99622 100.251 0H106.941C107.946 5.99622 113.161 10.5652 119.443 10.5652C125.726 10.5652 130.94 5.99622 131.946 0H136.636C137.642 5.99622 142.857 10.5652 149.139 10.5652C155.421 10.5652 160.636 5.99622 161.642 0H168.332C169.338 5.99622 174.553 10.5652 180.835 10.5652C187.117 10.5652 192.332 5.99622 193.338 0Z" fill="#F4C537"/>
<path d="M200.027 0L204.959 -0.827272L204.259 -5H200.027V0ZM193.338 0V-5H189.107L188.407 -0.827272L193.338 0ZM225.033 0V-5H220.802L220.102 -0.827272L225.033 0ZM243 0H248V-5H243V0ZM243 14.9354L242.25 19.8788L248 20.7512V14.9354H243ZM243 40.0037H248V34.1878L242.25 35.0603L243 40.0037ZM243 46.7191L242.039 51.626L248 52.7931V46.7191H243ZM243 71.6026H248V65.5286L242.039 66.6957L243 71.6026ZM243 78.5267L241.828 83.3874L248 84.8758V78.5267H243ZM243 103.177H248V96.8283L241.828 98.3168L243 103.177ZM243 110.359L241.616 115.163L248 117.002V110.359H243ZM243 134.728H248V128.084L241.616 129.923L243 134.728ZM243 142.216L241.405 146.955L248 149.175V142.216H243ZM243 166.253H248V159.294L241.405 161.514L243 166.253ZM243 174.1L241.193 178.762L248 181.4V174.1H243ZM243 197.751H248V190.45L241.193 193.089L243 197.751ZM243 206.012L240.982 210.586L248 213.683V206.012H243ZM243 229.222H248V221.55L240.982 224.647L243 229.222ZM243 243V248H248V243H243ZM227.322 243H222.322V248H227.322V243ZM201.965 243V248H206.965V243H201.965ZM195.626 243H190.626V248H195.626V243ZM170.27 243V248H175.27V243H170.27ZM163.93 243H158.93V248H163.93V243ZM138.574 243V248H143.574V243H138.574ZM134.235 243H129.235V248H134.235V243ZM108.878 243V248H113.878V243H108.878ZM102.539 243H97.5391V248H102.539V243ZM77.1826 243V248H82.1826V243H77.1826ZM70.8435 243H65.8435V248H70.8435V243ZM45.487 243V248H50.487V243H45.487ZM40.1478 243H35.1478V248H40.1478V243ZM14.7913 243V248H19.7913V243H14.7913ZM0 243H-5V248H0V243ZM0 230.12L-0.827273 225.189L-5 225.889V230.12H0ZM0 205.114H-5V209.345L-0.827273 210.045L0 205.114ZM0 198.506L-0.617027 193.544L-5 194.089V198.506H0ZM0 173.345H-5V177.761L-0.617027 178.306L0 173.345ZM0 166.87L-0.407712 161.887L-5 162.262V166.87H0ZM0 141.599H-5V146.206L-0.407712 146.582L0 141.599ZM0 135.211L-0.199739 130.215L-5 130.407V135.211H0ZM0 109.875H-5V114.679L-0.199739 114.871L0 109.875ZM0 103.53L0.00222358 98.5303L-5 98.5281V103.53H0ZM0.0171556 103.53L0.0149321 108.53H0.0171556V103.53ZM0.0171556 78.1738L0.0171556 73.1738L0.0149321 73.1738L0.0171556 78.1738ZM0 78.1738H-5V83.1761L0.00222358 83.1738L0 78.1738ZM0 71.8274L0.21304 66.8319L-5 66.6096V71.8274H0ZM0 46.4943H-5V51.7122L0.213145 51.4898L0 46.4943ZM0 40.1023L0.42122 35.12L-5 34.6617L-5 40.1023H0ZM0 14.8368H-5V20.2774L0.421207 19.8191L0 14.8368ZM0 0V-5H-5V0H0ZM12.8536 0L17.7846 -0.827272L17.0846 -5H12.8536V0ZM37.8595 0V-5H33.6284L32.9284 -0.827272L37.8595 0ZM43.5492 0L48.4803 -0.827272L47.7802 -5H43.5492V0ZM68.5551 0V-5H64.3241L63.6241 -0.827272L68.5551 0ZM75.2449 0L80.1759 -0.827272L79.4759 -5H75.2449V0ZM100.251 0V-5H96.0198L95.3197 -0.827272L100.251 0ZM106.941 0L111.872 -0.827272L111.172 -5H106.941V0ZM131.946 0V-5H127.715L127.015 -0.827272L131.946 0ZM136.636 0L141.567 -0.827272L140.867 -5H136.636V0ZM161.642 0V-5H157.411L156.711 -0.827272L161.642 0ZM168.332 0L173.263 -0.827272L172.563 -5H168.332V0ZM200.027 -5H193.338V5H200.027V-5ZM212.53 5.56524C208.731 5.56524 205.567 2.80039 204.959 -0.827272L195.096 0.827272C196.5 9.19205 203.766 15.5652 212.53 15.5652V5.56524ZM220.102 -0.827272C219.494 2.80039 216.33 5.56524 212.53 5.56524V15.5652C221.295 15.5652 228.561 9.19205 229.964 0.827272L220.102 -0.827272ZM243 -5H225.033V5H243V-5ZM248 14.9354V0H238V14.9354H248ZM241.082 19.7913C241.482 19.7913 241.872 19.8214 242.25 19.8788L243.75 9.99195C242.877 9.85953 241.986 9.79129 241.082 9.79129V19.7913ZM233.404 27.4695C233.404 23.229 236.842 19.7913 241.082 19.7913V9.79129C231.319 9.79129 223.404 17.7061 223.404 27.4695H233.404ZM241.082 35.1478C236.842 35.1478 233.404 31.7101 233.404 27.4695H223.404C223.404 37.233 231.319 45.1478 241.082 45.1478V35.1478ZM242.25 35.0603C241.872 35.1176 241.482 35.1478 241.082 35.1478V45.1478C241.986 45.1478 242.877 45.0796 243.75 44.9471L242.25 35.0603ZM248 46.7191V40.0037H238V46.7191H248ZM240.55 51.4826C241.064 51.4826 241.561 51.5324 242.039 51.626L243.961 41.8123C242.853 41.5955 241.712 41.4826 240.55 41.4826V51.4826ZM232.872 59.1609C232.872 54.9203 236.309 51.4826 240.55 51.4826V41.4826C230.787 41.4826 222.872 49.3974 222.872 59.1609H232.872ZM240.55 66.8391C236.309 66.8391 232.872 63.4014 232.872 59.1609H222.872C222.872 68.9243 230.787 76.8391 240.55 76.8391V66.8391ZM242.039 66.6957C241.561 66.7893 241.064 66.8391 240.55 66.8391V76.8391C241.712 76.8391 242.853 76.7262 243.961 76.5094L242.039 66.6957ZM248 78.5267V71.6026H238V78.5267H248ZM240.017 83.1738C240.647 83.1738 241.252 83.2486 241.828 83.3874L244.172 73.6661C242.835 73.3435 241.442 73.1738 240.017 73.1738V83.1738ZM232.339 90.8521C232.339 86.6115 235.776 83.1738 240.017 83.1738V73.1738C230.254 73.1738 222.339 81.0887 222.339 90.8521H232.339ZM240.017 98.5303C235.776 98.5303 232.339 95.0927 232.339 90.8521H222.339C222.339 100.616 230.254 108.53 240.017 108.53V98.5303ZM241.828 98.3168C241.252 98.4556 240.647 98.5303 240.017 98.5303V108.53C241.442 108.53 242.835 108.361 244.172 108.038L241.828 98.3168ZM248 110.359V103.177H238V110.359H248ZM239.485 114.865C240.231 114.865 240.945 114.97 241.616 115.163L244.384 105.554C242.822 105.104 241.177 104.865 239.485 104.865V114.865ZM231.806 122.543C231.806 118.303 235.244 114.865 239.485 114.865V104.865C229.721 104.865 221.806 112.78 221.806 122.543H231.806ZM239.485 130.221C235.244 130.221 231.806 126.784 231.806 122.543H221.806C221.806 132.307 229.721 140.221 239.485 140.221V130.221ZM241.616 129.923C240.945 130.116 240.231 130.221 239.485 130.221V140.221C241.177 140.221 242.822 139.982 244.384 139.532L241.616 129.923ZM248 142.216V134.728H238V142.216H248ZM238.952 146.556C239.818 146.556 240.641 146.698 241.405 146.955L244.595 137.477C242.817 136.879 240.917 136.556 238.952 136.556V146.556ZM231.274 154.234C231.274 149.994 234.712 146.556 238.952 146.556V136.556C229.189 136.556 221.274 144.471 221.274 154.234H231.274ZM238.952 161.913C234.712 161.913 231.274 158.475 231.274 154.234H221.274C221.274 163.998 229.189 171.913 238.952 171.913V161.913ZM241.405 161.514C240.641 161.771 239.818 161.913 238.952 161.913V171.913C240.917 171.913 242.817 171.59 244.595 170.991L241.405 161.514ZM248 174.1V166.253H238V174.1H248ZM238.419 178.247C239.407 178.247 240.339 178.431 241.193 178.762L244.807 169.438C242.819 168.667 240.662 168.247 238.419 168.247V178.247ZM230.741 185.925C230.741 181.685 234.179 178.247 238.419 178.247V168.247C228.656 168.247 220.741 176.162 220.741 185.925H230.741ZM238.419 193.604C234.179 193.604 230.741 190.166 230.741 185.925H220.741C220.741 195.689 228.656 203.604 238.419 203.604V193.604ZM241.193 193.089C240.339 193.42 239.407 193.604 238.419 193.604V203.604C240.662 203.604 242.819 203.183 244.807 202.413L241.193 193.089ZM248 206.012V197.751H238V206.012H248ZM237.887 209.938C238.998 209.938 240.041 210.171 240.982 210.586L245.018 201.437C242.831 200.472 240.415 199.938 237.887 199.938V209.938ZM230.209 217.617C230.209 213.376 233.646 209.938 237.887 209.938V199.938C228.124 199.938 220.209 207.853 220.209 217.617H230.209ZM237.887 225.295C233.646 225.295 230.209 221.857 230.209 217.617H220.209C220.209 227.38 228.124 235.295 237.887 235.295V225.295ZM240.982 224.647C240.041 225.062 238.998 225.295 237.887 225.295V235.295C240.415 235.295 242.831 234.761 245.018 233.796L240.982 224.647ZM248 243V229.222H238V243H248ZM227.322 248H243V238H227.322V248ZM214.643 235.322C218.884 235.322 222.322 238.759 222.322 243H232.322C232.322 233.237 224.407 225.322 214.643 225.322V235.322ZM206.965 243C206.965 238.759 210.403 235.322 214.643 235.322V225.322C204.88 225.322 196.965 233.237 196.965 243H206.965ZM195.626 248H201.965V238H195.626V248ZM182.948 235.322C187.188 235.322 190.626 238.759 190.626 243H200.626C200.626 233.237 192.711 225.322 182.948 225.322V235.322ZM175.27 243C175.27 238.759 178.707 235.322 182.948 235.322V225.322C173.184 225.322 165.27 233.237 165.27 243H175.27ZM163.93 248H170.27V238H163.93V248ZM151.252 235.322C155.493 235.322 158.93 238.759 158.93 243H168.93C168.93 233.237 161.016 225.322 151.252 225.322V235.322ZM143.574 243C143.574 238.759 147.012 235.322 151.252 235.322V225.322C141.489 225.322 133.574 233.237 133.574 243H143.574ZM134.235 248H138.574V238H134.235V248ZM121.557 235.322C125.797 235.322 129.235 238.759 129.235 243H139.235C139.235 233.237 131.32 225.322 121.557 225.322V235.322ZM113.878 243C113.878 238.759 117.316 235.322 121.557 235.322V225.322C111.793 225.322 103.878 233.237 103.878 243H113.878ZM102.539 248H108.878V238H102.539V248ZM89.8609 235.322C94.1015 235.322 97.5391 238.759 97.5391 243H107.539C107.539 233.237 99.6243 225.322 89.8609 225.322V235.322ZM82.1826 243C82.1826 238.759 85.6203 235.322 89.8609 235.322V225.322C80.0974 225.322 72.1826 233.237 72.1826 243H82.1826ZM70.8435 248H77.1826V238H70.8435V248ZM58.1652 235.322C62.4058 235.322 65.8435 238.759 65.8435 243H75.8435C75.8435 233.237 67.9286 225.322 58.1652 225.322V235.322ZM50.487 243C50.487 238.759 53.9246 235.322 58.1652 235.322V225.322C48.4018 225.322 40.487 233.237 40.487 243H50.487ZM40.1478 248H45.487V238H40.1478V248ZM27.4696 235.322C31.7102 235.322 35.1478 238.759 35.1478 243H45.1478C45.1478 233.237 37.233 225.322 27.4696 225.322V235.322ZM19.7913 243C19.7913 238.759 23.229 235.322 27.4696 235.322V225.322C17.7061 225.322 9.7913 233.237 9.7913 243H19.7913ZM0 248H14.7913V238H0V248ZM-5 230.12V243H5V230.12H-5ZM5.56522 217.617C5.56522 221.416 2.80037 224.58 -0.827273 225.189L0.827273 235.051C9.19205 233.647 15.5652 226.381 15.5652 217.617H5.56522ZM-0.827273 210.045C2.80038 210.653 5.56522 213.817 5.56522 217.617H15.5652C15.5652 208.852 9.19205 201.586 0.827273 200.183L-0.827273 210.045ZM-5 198.506V205.114H5V198.506H-5ZM6.09774 185.925C6.09774 189.838 3.16671 193.074 -0.617027 193.544L0.617027 203.468C9.3455 202.382 16.0977 194.946 16.0977 185.925H6.09774ZM-0.617027 178.306C3.16671 178.777 6.09774 182.013 6.09774 185.925H16.0977C16.0977 176.905 9.3455 169.468 0.617027 168.383L-0.617027 178.306ZM-5 166.87V173.345H5V166.87H-5ZM6.63038 154.234C6.63038 158.259 3.5308 161.564 -0.407712 161.887L0.407712 171.853C9.49278 171.11 16.6304 163.508 16.6304 154.234H6.63038ZM-0.407712 146.582C3.53079 146.904 6.63038 150.21 6.63038 154.234H16.6304C16.6304 144.96 9.49279 137.359 0.407712 136.615L-0.407712 146.582ZM-5 135.211V141.599H5V135.211H-5ZM7.16289 122.543C7.16289 126.678 3.89255 130.051 -0.199739 130.215L0.199739 140.207C9.63357 139.83 17.1629 132.067 17.1629 122.543H7.16289ZM-0.199739 114.871C3.89255 115.035 7.16289 118.408 7.16289 122.543H17.1629C17.1629 113.019 9.63357 105.256 0.199739 104.879L-0.199739 114.871ZM-5 103.53V109.875H5V103.53H-5ZM0.0193792 98.5304L0.00222358 98.5303L-0.00222358 108.53L0.0149321 108.53L0.0193792 98.5304ZM7.69542 90.8521C7.69542 95.0927 4.25774 98.5303 0.0171556 98.5303V108.53C9.78059 108.53 17.6954 100.616 17.6954 90.8521H7.69542ZM0.0171556 83.1738C4.25774 83.1738 7.69542 86.6115 7.69542 90.8521H17.6954C17.6954 81.0887 9.78059 73.1738 0.0171556 73.1738V83.1738ZM0.00222358 83.1738L0.0193792 83.1738L0.0149321 73.1738L-0.00222358 73.1738L0.00222358 83.1738ZM-5 71.8274V78.1738H5V71.8274H-5ZM0.5498 66.8391C0.436697 66.8391 0.324433 66.8367 0.21304 66.8319L-0.21304 76.8229C0.0401591 76.8337 0.294482 76.8391 0.5498 76.8391V66.8391ZM8.22806 59.1609C8.22806 63.4014 4.79039 66.8391 0.5498 66.8391V76.8391C10.3132 76.8391 18.2281 68.9243 18.2281 59.1609H8.22806ZM0.5498 51.4826C4.79039 51.4826 8.22806 54.9203 8.22806 59.1609H18.2281C18.2281 49.3974 10.3132 41.4826 0.5498 41.4826V51.4826ZM0.213145 51.4898C0.324468 51.485 0.436697 51.4826 0.5498 51.4826V41.4826C0.294482 41.4826 0.0401244 41.488 -0.213145 41.4988L0.213145 51.4898ZM-5 40.1023V46.4943H5V40.1023H-5ZM1.08232 35.1478C0.858511 35.1478 0.638065 35.1384 0.42122 35.12L-0.42122 45.0845C0.0754716 45.1265 0.576979 45.1478 1.08232 45.1478V35.1478ZM8.76058 27.4695C8.76058 31.7101 5.3229 35.1478 1.08232 35.1478V45.1478C10.8457 45.1478 18.7606 37.233 18.7606 27.4695H8.76058ZM1.08232 19.7913C5.3229 19.7913 8.76058 23.229 8.76058 27.4695H18.7606C18.7606 17.7061 10.8457 9.79129 1.08232 9.79129V19.7913ZM0.421207 19.8191C0.638052 19.8007 0.858502 19.7913 1.08232 19.7913V9.79129C0.576988 9.79129 0.0754848 9.81262 -0.421207 9.85461L0.421207 19.8191ZM-5 0V14.8368H5V0H-5ZM12.8536 -5H0V5H12.8536V-5ZM25.3565 5.56524C21.5569 5.56524 18.3932 2.80039 17.7846 -0.827272L7.92247 0.827272C9.3258 9.19205 16.592 15.5652 25.3565 15.5652V5.56524ZM32.9284 -0.827272C32.3198 2.80039 29.1561 5.56524 25.3565 5.56524V15.5652C34.1211 15.5652 41.3872 9.19205 42.7906 0.827272L32.9284 -0.827272ZM43.5492 -5H37.8595V5H43.5492V-5ZM56.0522 5.56524C52.2526 5.56524 49.0889 2.80039 48.4803 -0.827272L38.6181 0.827272C40.0214 9.19205 47.2876 15.5652 56.0522 15.5652V5.56524ZM63.6241 -0.827272C63.0155 2.80039 59.8518 5.56524 56.0522 5.56524V15.5652C64.8167 15.5652 72.0829 9.19205 73.4862 0.827272L63.6241 -0.827272ZM75.2449 -5H68.5551V5H75.2449V-5ZM87.7478 5.56524C83.9482 5.56524 80.7845 2.80039 80.1759 -0.827272L70.3138 0.827272C71.7171 9.19205 78.9833 15.5652 87.7478 15.5652V5.56524ZM95.3197 -0.827272C94.7111 2.80039 91.5474 5.56524 87.7478 5.56524V15.5652C96.5124 15.5652 103.779 9.19205 105.182 0.827272L95.3197 -0.827272ZM106.941 -5H100.251V5H106.941V-5ZM119.443 5.56524C115.644 5.56524 112.48 2.80039 111.872 -0.827272L102.009 0.827272C103.413 9.19205 110.679 15.5652 119.443 15.5652V5.56524ZM127.015 -0.827272C126.407 2.80039 123.243 5.56524 119.443 5.56524V15.5652C128.208 15.5652 135.474 9.19205 136.878 0.827272L127.015 -0.827272ZM136.636 -5H131.946V5H136.636V-5ZM149.139 5.56524C145.34 5.56524 142.176 2.80039 141.567 -0.827272L131.705 0.827272C133.108 9.19205 140.375 15.5652 149.139 15.5652V5.56524ZM156.711 -0.827272C156.102 2.80039 152.939 5.56524 149.139 5.56524V15.5652C157.904 15.5652 165.17 9.19205 166.573 0.827272L156.711 -0.827272ZM168.332 -5H161.642V5H168.332V-5ZM180.835 5.56524C177.035 5.56524 173.872 2.80039 173.263 -0.827272L163.401 0.827272C164.804 9.19205 172.07 15.5652 180.835 15.5652V5.56524ZM188.407 -0.827272C187.798 2.80039 184.634 5.56524 180.835 5.56524V15.5652C189.599 15.5652 196.866 9.19205 198.269 0.827272L188.407 -0.827272Z" fill="#F4C537" mask="url(#path-1-inside-1_483_193)"/>
<rect x="22.5" y="24.5" width="195" height="195" stroke="white" stroke-width="3" stroke-dasharray="6 6"/>
</g>
<defs>
<clipPath id="clip0_483_193">
<rect width="243" height="243" fill="white"/>
</clipPath>
</defs>
</svg>
