<svg width="92" height="181" viewBox="0 0 92 181" fill="none" xmlns="http://www.w3.org/2000/svg">
<rect width="92" height="181" fill="#FAE5A5"/>
<path d="M29.4656 179.669L15.173 179.357C9.99104 179.242 5.89364 175.13 6.0021 170.164L9.85847 9.79103C9.97898 4.82484 14.2692 0.898073 19.4511 1.00202L32.635 1.29075C35.3465 1.34849 37.9737 2.41104 39.7331 4.37442C42.4808 7.44653 47.4579 8.5437 51.3504 9.49074C59.051 11.3502 67.7158 11.1192 74.2475 15.7043C86.2383 24.1237 87.2145 42.718 82.7314 55.9303C79.0318 66.8213 70.9214 74.2706 59.7621 77.9317C54.5801 79.641 49.1812 81.0154 44.5897 83.8796C27.8507 94.2739 53.9655 104.068 62.1843 106.978C67.9447 109.022 73.3075 112.349 77.1759 116.957C85.4911 126.889 84.4427 144.144 79.8392 155.404C76.1997 164.286 68.8124 169.517 59.1354 170.707C51.3745 171.666 41.7095 172.624 35.5152 177.683C33.8401 179.057 31.6469 179.704 29.4415 179.646L29.4656 179.669Z" fill="#F4C537"/>
<path d="M44.4089 167.589C40.6971 167.797 36.9854 167.82 33.346 167.727C28.7184 167.612 23.7774 166.007 21.1262 162.149C18.1254 157.783 18.5111 150.542 18.2942 145.484C18.0411 139.397 18.2942 133.287 19.0654 127.247C19.7885 121.565 20.3429 114.035 23.1026 108.895C27.9712 99.8177 39.4318 103.363 47.0722 106.204C54.3992 108.919 61.6781 112.083 67.8844 116.784C71.0298 119.163 73.5123 121.357 74.6572 125.099C77.4048 134.015 77.0433 148.244 72.7892 156.756C70.6803 160.994 65.6068 163.662 61.0756 164.956C55.7249 166.48 50.0729 167.254 44.4089 167.577V167.589Z" fill="#625D5D"/>
<path d="M48.0724 15.1268C44.3728 14.7457 40.661 14.5609 37.0216 14.4916C32.394 14.3992 27.3807 15.7851 24.5487 19.5155C21.3431 23.7426 21.3793 30.9955 20.9213 36.031C20.367 42.0944 20.3308 48.2155 20.8129 54.2904C21.2588 59.9958 21.4516 67.549 23.9703 72.8039C28.4051 82.0895 40.0103 79.052 47.7953 76.5459C55.2428 74.1552 62.6663 71.314 69.0896 66.9022C72.3554 64.6616 74.9223 62.5828 76.2599 58.887C79.4414 50.098 79.7548 35.8693 75.9225 27.1727C74.0184 22.8533 69.0775 19.9544 64.6186 18.4646C59.3523 16.7091 53.7364 15.6812 48.0965 15.1037L48.0724 15.1268Z" fill="#625D5D"/>
<path opacity="0.2" d="M20.4995 46.1827C20.4995 48.0306 20.5598 49.8669 20.6682 51.7033C35.1778 41.9326 51.7721 30.7645 67.9688 19.862C66.8601 19.3191 65.7152 18.8572 64.6065 18.4876C63.9317 18.2566 63.2327 18.0834 62.5458 17.8755C48.1568 27.5538 33.575 37.3822 20.5116 46.1827H20.4995Z" fill="white"/>
<path opacity="0.2" d="M21.3913 30.1754C21.1984 32.2543 21.09 34.2869 20.9333 36.0424C20.9333 36.0655 20.9333 36.1002 20.9333 36.1233C30.3694 29.7712 40.8056 22.7492 51.4949 15.5425C50.3621 15.3923 49.2293 15.2422 48.0845 15.1267C46.7829 14.9997 45.4935 14.9073 44.192 14.8264C36.2864 20.1506 28.5858 25.3363 21.3913 30.1754Z" fill="white"/>
<path opacity="0.2" d="M21.0298 57.3855C21.307 61.2892 21.6685 65.6086 22.729 69.3852C38.8534 58.5289 58.4966 45.2934 77.5976 32.4391C77.1638 30.545 76.6095 28.778 75.9105 27.1842C75.1633 25.4864 73.9341 24.0081 72.4639 22.7493C54.7969 34.645 36.5757 46.9103 21.0418 57.374L21.0298 57.3855Z" fill="white"/>
<path opacity="0.2" d="M18.3304 135.632C18.234 137.537 18.1858 139.443 18.1979 141.36C31.3938 132.479 46.3251 122.419 61.1359 112.452C59.5813 111.586 57.9785 110.789 56.3516 110.039C43.2762 118.839 30.1767 127.663 18.3304 135.643V135.632Z" fill="white"/>
<path opacity="0.2" d="M18.3425 147.204C18.4389 151.05 18.4751 155.67 19.7887 159.377C35.5997 148.729 54.9056 135.724 73.7896 123.02C72.464 120.479 70.3912 118.677 67.8846 116.783C67.1977 116.264 66.4867 115.767 65.7636 115.282C49.338 126.335 32.6713 137.561 18.3425 147.216V147.204Z" fill="white"/>
<path opacity="0.2" d="M20.1261 119.024C19.7887 121.138 19.5356 123.239 19.3066 125.214C28.0196 119.347 37.564 112.914 47.3736 106.32C47.2772 106.285 47.1687 106.239 47.0723 106.204C45.4575 105.604 43.6619 104.98 41.794 104.437C34.2982 109.484 26.9832 114.404 20.1261 119.024Z" fill="white"/>
</svg>
