<svg width="269" height="215" viewBox="0 0 269 215" fill="none" xmlns="http://www.w3.org/2000/svg">
<rect width="269" height="215" fill="#FAE5A5"/>
<path d="M0 214.823V31.9995L66.9603 9.9872L205.485 9.25171L268.928 33.2692V214.823H0Z" fill="white"/>
<path d="M195.892 3L75.7859 4.10324L76.1696 68.4853H190.1L195.892 3Z" fill="white"/>
<path d="M70.8752 7.24226C70.8752 7.24226 131.775 98.6538 200.703 5.97266" stroke="#F4C537" stroke-width="15" stroke-miterlimit="10"/>
<path d="M268.928 185.622H0V200.857H268.928V185.622Z" fill="#F4C537"/>
<path d="M268.928 155.151H0V170.386H268.928V155.151Z" fill="#F4C537"/>
<path d="M268.928 124.681H0V139.916H268.928V124.681Z" fill="#F4C537"/>
<path d="M268.928 94.2102H0V109.445H268.928V94.2102Z" fill="#F4C537"/>
<path d="M268.928 63.7395H0V78.9748H268.928V63.7395Z" fill="#F4C537"/>
<path d="M106.1 34.6262L0 33.269V48.5043H111.281L106.1 34.6262Z" fill="#F4C537"/>
<path d="M268.928 33.269H165.578L157.648 48.5043H268.928V33.269Z" fill="#F4C537"/>
</svg>
