<svg width="247" height="211" viewBox="0 0 247 211" fill="none" xmlns="http://www.w3.org/2000/svg">
<g clip-path="url(#clip0_218_826)">
<rect width="247" height="211" fill="#FAE5A5"/>
<path d="M178.225 124.145C172.817 124.547 167.444 124.983 162.188 125.128C136.233 125.888 110.231 124.905 84.4153 122.191C62.5276 119.89 29.5444 110.407 10.8617 126.256C-11.2825 145.043 3.93875 188.459 25.2438 202.008C39.9522 211.357 58.8447 212.06 76.3852 210.206C113.506 206.275 149.181 202.131 186.477 205.068C202.63 206.342 223.224 207.269 236.254 196.334C247.618 186.784 249.308 172.107 247.292 158.458C245.112 143.681 235.916 132.243 221.033 126.96C207.444 122.135 192.689 123.073 178.225 124.156V124.145Z" fill="#F4C537"/>
<path d="M138.855 204.677L156.151 125.206C158.155 125.173 160.172 125.195 162.176 125.128C164.099 125.072 166.057 124.949 168.015 124.838L150.731 204.242C146.769 204.342 142.806 204.476 138.843 204.677H138.855Z" fill="white"/>
<path d="M127.433 125.05C131.349 125.173 135.254 125.251 139.17 125.296L121.652 205.772C117.655 206.085 113.645 206.431 109.636 206.8L127.433 125.039V125.05Z" fill="white"/>
<path d="M196.15 205.671L213.714 124.949C216.185 125.474 218.632 126.089 221.033 126.949C222.327 127.407 223.527 127.976 224.728 128.524L207.945 205.638C203.994 205.861 200.02 205.839 196.15 205.671Z" fill="white"/>
<path d="M225.625 202.332L239.273 139.626C243.341 144.708 245.998 150.829 247.128 157.698L239.39 193.262C238.434 194.334 237.397 195.362 236.254 196.334C233.096 198.981 229.495 200.924 225.625 202.343V202.332Z" fill="white"/>
<path d="M185.241 123.665C189.204 123.419 193.167 123.274 197.106 123.308L179.402 204.666C175.498 204.454 171.593 204.287 167.712 204.208L185.241 123.665Z" fill="white"/>
<path d="M99.0306 123.486C102.9 123.799 106.769 124.056 110.65 124.279L92.3174 208.519C88.3081 208.933 84.2872 209.357 80.2546 209.793L99.0423 123.486H99.0306Z" fill="white"/>
<path d="M12.4116 125.117C16.3043 122.202 20.7332 120.258 25.5233 119.052L10.7567 186.873C7.3651 181.612 4.63784 175.648 2.74976 169.482L12.4116 125.117Z" fill="white"/>
<path d="M24.5444 201.494L42.8658 117.321C46.7119 117.388 50.6046 117.678 54.4857 118.091L35.1853 206.788C31.7238 205.526 28.3789 203.996 25.2437 202.008C25.0106 201.863 24.7775 201.65 24.5444 201.494Z" fill="white"/>
<path d="M70.9654 120.336C74.9863 120.951 78.8091 121.52 82.3988 121.956L63.0168 211.021C59.1008 211.066 55.2081 210.865 51.3503 210.452L70.9654 120.336Z" fill="white"/>
<path d="M30.8846 160.1C29.6609 161.697 29.7424 163.875 31.1294 165.35C58.6348 194.48 104.497 222.325 145.545 201.952C151.687 198.903 168.703 190.101 157.27 182.484C154.134 180.395 149.892 180.317 146.267 181.478C139.391 183.69 134.17 188.839 127.037 190.95C120.534 192.871 113.681 193.597 106.897 193.363C82.6554 192.525 60.3597 179.915 42.0733 165.551C39.9754 163.909 40.0104 160.826 42.1082 159.184C55.4181 148.819 100.464 118.371 144.811 141.882C156.908 148.305 168.458 133.371 154.263 126.368C149.041 123.788 142.107 122.436 136.256 122.224C115.907 121.453 92.7368 121.063 74.2289 130.534C59.8236 137.906 40.7213 147.177 30.873 160.111L30.8846 160.1Z" fill="#625D5D"/>
<path d="M178.225 86.8837C172.817 86.4816 167.444 86.046 162.188 85.9008C136.233 85.1413 110.231 86.1242 84.4153 88.8384C62.5276 91.1393 29.5444 100.622 10.8617 84.7727C-11.2825 65.9856 3.93875 22.5697 25.2438 9.02112C39.9522 -0.327752 58.8447 -1.03143 76.3852 0.822711C113.506 4.75438 149.181 8.89824 186.477 5.96066C202.63 4.68733 223.224 3.76027 236.254 14.6952C247.618 24.2451 249.308 38.9219 247.292 52.571C245.112 67.3483 235.916 78.7859 221.033 84.069C207.444 88.8943 192.689 87.956 178.225 86.8726V86.8837Z" fill="#F4C537"/>
<path d="M138.855 6.35153L156.151 85.8225C158.155 85.8561 160.172 85.8337 162.176 85.9007C164.099 85.9566 166.057 86.0795 168.015 86.1912L150.731 6.78715C146.769 6.68663 142.806 6.55258 138.843 6.35153H138.855Z" fill="white"/>
<path d="M127.433 85.9678C131.349 85.845 135.254 85.7668 139.17 85.7221L121.652 5.24581C117.655 4.93307 113.645 4.5868 109.636 4.2182L127.433 85.979V85.9678Z" fill="white"/>
<path d="M196.15 5.35759L213.714 86.0796C216.185 85.5546 218.632 84.9403 221.033 84.0802C222.327 83.6223 223.527 83.0527 224.728 82.5054L207.945 5.3911C203.994 5.16771 200.02 5.19005 196.15 5.35759Z" fill="white"/>
<path d="M225.625 8.69721L239.273 71.4028C243.341 66.3207 245.998 60.1998 247.128 53.3305L239.39 17.7668C238.434 16.6946 237.397 15.667 236.254 14.6952C233.096 12.0481 229.495 10.1046 225.625 8.68603V8.69721Z" fill="white"/>
<path d="M185.241 87.3641C189.204 87.6098 193.167 87.755 197.106 87.7215L179.402 6.36286C175.498 6.57508 171.593 6.74263 167.712 6.82081L185.241 87.3641Z" fill="white"/>
<path d="M99.0306 87.5427C102.9 87.23 106.769 86.9731 110.65 86.7497L92.3174 2.50927C88.3081 2.096 84.2872 1.67157 80.2546 1.23596L99.0423 87.5427H99.0306Z" fill="white"/>
<path d="M12.4116 85.912C16.3043 88.8273 20.7332 90.7707 25.5233 91.9771L10.7567 24.1558C7.3651 29.4166 4.63784 35.3812 2.74976 41.5467L12.4116 85.912Z" fill="white"/>
<path d="M24.5444 9.53507L42.8658 93.7085C46.7119 93.6415 50.6046 93.3511 54.4857 92.9378L35.1853 4.24073C31.7238 5.50289 28.3789 7.03311 25.2437 9.02128C25.0106 9.16649 24.7775 9.3787 24.5444 9.53507Z" fill="white"/>
<path d="M70.9654 90.6926C74.9863 90.0783 78.8091 89.5086 82.3988 89.073L63.0168 0.00740248C59.1008 -0.0372755 55.2081 0.163786 51.3503 0.577058L70.9654 90.6926Z" fill="white"/>
<path d="M30.8846 50.9291C29.6609 49.3318 29.7424 47.1538 31.1294 45.6794C58.6348 16.5494 104.497 -11.2962 145.545 9.07695C151.687 12.1262 168.703 20.9278 157.27 28.5454C154.134 30.6341 149.892 30.7123 146.267 29.5507C139.391 27.3391 134.17 22.19 127.037 20.0789C120.534 18.1578 113.681 17.4317 106.897 17.6663C82.6554 18.504 60.3597 31.1144 42.0733 45.4784C39.9754 47.1203 40.0104 50.2031 42.1082 51.845C55.4181 62.2103 100.464 92.6584 144.811 69.1466C156.908 62.7241 168.458 77.6577 154.263 84.661C149.041 87.2412 142.107 88.5927 136.256 88.8049C115.907 89.5756 92.7368 89.9665 74.2289 80.4948C59.8236 73.1229 40.7213 63.8522 30.873 50.9179L30.8846 50.9291Z" fill="#625D5D"/>
</g>
<defs>
<clipPath id="clip0_218_826">
<rect width="247" height="211" fill="white"/>
</clipPath>
</defs>
</svg>
