<svg width="340" height="634" viewBox="0 0 340 634" fill="none" xmlns="http://www.w3.org/2000/svg">
<g clip-path="url(#clip0_481_127)">
<rect width="340" height="634" fill="white"/>
<g filter="url(#filter0_d_481_127)">
<rect width="340" height="634" fill="white"/>
<rect x="24.7236" y="19.3906" width="4.47368" height="60.7021" fill="black"/>
<rect x="60.5127" y="19.3906" width="4.47368" height="60.7021" fill="black"/>
<rect x="71.6973" y="19.3906" width="4.47368" height="60.7021" fill="black"/>
<rect x="87.3555" y="19.3906" width="4.47368" height="60.7021" fill="black"/>
<rect x="97.4209" y="19.3906" width="4.47368" height="60.7021" fill="black"/>
<rect x="107.486" y="19.3906" width="4.47368" height="60.7021" fill="black"/>
<rect x="123.263" y="19.3906" width="4.47368" height="60.7021" fill="black"/>
<rect x="129.974" y="19.3906" width="4.47368" height="60.7021" fill="black"/>
<rect x="148.986" y="19.3906" width="4.47368" height="60.7021" fill="black"/>
<rect x="155.697" y="19.3906" width="4.47368" height="60.7021" fill="black"/>
<rect x="172.474" y="19.3906" width="4.47368" height="60.7021" fill="black"/>
<rect x="194.842" y="19.3906" width="4.47368" height="60.7021" fill="black"/>
<rect x="201.553" y="19.3906" width="4.47368" height="60.7021" fill="black"/>
<rect x="211.618" y="19.3906" width="4.47368" height="60.7021" fill="black"/>
<rect x="220.685" y="19.3906" width="4.47368" height="60.7021" fill="black"/>
<rect x="232.986" y="19.3906" width="4.47368" height="60.7021" fill="black"/>
<rect x="247.526" y="19.3906" width="4.47368" height="60.7021" fill="black"/>
<rect x="259.829" y="19.3906" width="4.47368" height="60.7021" fill="black"/>
<rect x="275.486" y="19.3906" width="4.47368" height="60.7021" fill="black"/>
<rect x="288.908" y="19.3906" width="4.47368" height="60.7021" fill="black"/>
<rect x="303.447" y="19.3906" width="4.47368" height="60.7021" fill="black"/>
<rect x="31.4346" y="19.3906" width="4.47368" height="60.7021" fill="black"/>
<line x1="42.1182" y1="80.0928" x2="42.1182" y2="19.3906" stroke="black"/>
<line x1="45.4736" y1="80.0928" x2="45.4736" y2="19.3906" stroke="black"/>
<line x1="48.8291" y1="80.0928" x2="48.8291" y2="19.3906" stroke="black"/>
<line x1="52.1846" y1="80.0928" x2="52.1846" y2="19.3906" stroke="black"/>
<line x1="55.5391" y1="80.0928" x2="55.5391" y2="19.3906" stroke="black"/>
<line x1="67.8418" y1="80.0928" x2="67.8418" y2="19.3906" stroke="black"/>
<line x1="77.9082" y1="80.0928" x2="77.9082" y2="19.3906" stroke="black"/>
<line x1="81.2627" y1="80.0928" x2="81.2627" y2="19.3906" stroke="black"/>
<line x1="94.6846" y1="80.0928" x2="94.6846" y2="19.3906" stroke="black"/>
<line x1="104.75" y1="80.0928" x2="104.75" y2="19.3906" stroke="black"/>
<line x1="113.815" y1="80.0928" x2="113.815" y2="19.3906" stroke="black"/>
<line x1="120.526" y1="80.0928" x2="120.526" y2="19.3906" stroke="black"/>
<line x1="136.185" y1="80.0928" x2="136.185" y2="19.3906" stroke="black"/>
<line x1="139.539" y1="80.0928" x2="139.539" y2="19.3906" stroke="black"/>
<line x1="146.25" y1="80.0928" x2="146.25" y2="19.3906" stroke="black"/>
<line x1="163.026" y1="80.0928" x2="163.026" y2="19.3906" stroke="black"/>
<line x1="169.736" y1="80.0928" x2="169.736" y2="19.3906" stroke="black"/>
<line x1="179.803" y1="80.0928" x2="179.803" y2="19.3906" stroke="black"/>
<line x1="183.158" y1="80.0928" x2="183.158" y2="19.3906" stroke="black"/>
<line x1="186.513" y1="80.0928" x2="186.513" y2="19.3906" stroke="black"/>
<line x1="192.105" y1="80.0928" x2="192.105" y2="19.3906" stroke="black"/>
<line x1="208.882" y1="80.0928" x2="208.882" y2="19.3906" stroke="black"/>
<line x1="228.013" y1="80.0928" x2="228.013" y2="19.3906" stroke="black"/>
<line x1="231.368" y1="80.0928" x2="231.368" y2="19.3906" stroke="black"/>
<line x1="243.671" y1="80.0928" x2="243.671" y2="19.3906" stroke="black"/>
<line x1="253.736" y1="80.0928" x2="253.736" y2="19.3906" stroke="black"/>
<line x1="257.092" y1="80.0928" x2="257.092" y2="19.3906" stroke="black"/>
<line x1="267.158" y1="80.0928" x2="267.158" y2="19.3906" stroke="black"/>
<line x1="273.868" y1="80.0928" x2="273.868" y2="19.3906" stroke="black"/>
<line x1="283.935" y1="80.0928" x2="283.935" y2="19.3906" stroke="black"/>
<line x1="287.289" y1="80.0928" x2="287.289" y2="19.3906" stroke="black"/>
<line x1="299.592" y1="80.0928" x2="299.592" y2="19.3906" stroke="black"/>
<line x1="307.658" y1="80.0928" x2="307.658" y2="19.3906" stroke="black"/>
<rect x="25.8418" y="546.907" width="4.47368" height="60.7021" fill="black"/>
<rect x="61.6309" y="546.907" width="4.47368" height="60.7021" fill="black"/>
<rect x="72.8154" y="546.907" width="4.47368" height="60.7021" fill="black"/>
<rect x="88.4736" y="546.907" width="4.47368" height="60.7021" fill="black"/>
<rect x="98.5391" y="546.907" width="4.47368" height="60.7021" fill="black"/>
<rect x="108.604" y="546.907" width="4.47368" height="60.7021" fill="black"/>
<rect x="124.381" y="546.907" width="4.47368" height="60.7021" fill="black"/>
<rect x="131.092" y="546.907" width="4.47368" height="60.7021" fill="black"/>
<rect x="150.104" y="546.907" width="4.47368" height="60.7021" fill="black"/>
<rect x="156.815" y="546.907" width="4.47368" height="60.7021" fill="black"/>
<rect x="173.592" y="546.907" width="4.47368" height="60.7021" fill="black"/>
<rect x="195.96" y="546.907" width="4.47368" height="60.7021" fill="black"/>
<rect x="202.671" y="546.907" width="4.47368" height="60.7021" fill="black"/>
<rect x="211.736" y="546.907" width="4.47368" height="60.7021" fill="black"/>
<rect x="221.803" y="546.907" width="4.47368" height="60.7021" fill="black"/>
<rect x="234.104" y="546.907" width="4.47368" height="60.7021" fill="black"/>
<rect x="248.645" y="546.907" width="4.47368" height="60.7021" fill="black"/>
<rect x="260.947" y="546.907" width="4.47368" height="60.7021" fill="black"/>
<rect x="276.604" y="546.907" width="4.47368" height="60.7021" fill="black"/>
<rect x="290.026" y="546.907" width="4.47368" height="60.7021" fill="black"/>
<rect x="304.565" y="546.907" width="4.47368" height="60.7021" fill="black"/>
<rect x="32.5527" y="546.907" width="4.47368" height="60.7021" fill="black"/>
<line x1="43.2363" y1="607.609" x2="43.2363" y2="546.907" stroke="black"/>
<line x1="46.5918" y1="607.609" x2="46.5918" y2="546.907" stroke="black"/>
<line x1="49.9473" y1="607.609" x2="49.9473" y2="546.907" stroke="black"/>
<line x1="53.3027" y1="607.609" x2="53.3027" y2="546.907" stroke="black"/>
<line x1="56.6572" y1="607.609" x2="56.6572" y2="546.907" stroke="black"/>
<line x1="68.96" y1="607.609" x2="68.96" y2="546.907" stroke="black"/>
<line x1="79.0264" y1="607.609" x2="79.0264" y2="546.907" stroke="black"/>
<line x1="82.3809" y1="607.609" x2="82.3809" y2="546.907" stroke="black"/>
<line x1="95.8027" y1="607.609" x2="95.8027" y2="546.907" stroke="black"/>
<line x1="105.868" y1="607.609" x2="105.868" y2="546.907" stroke="black"/>
<line x1="114.934" y1="607.609" x2="114.934" y2="546.907" stroke="black"/>
<line x1="121.645" y1="607.609" x2="121.645" y2="546.907" stroke="black"/>
<line x1="137.303" y1="607.609" x2="137.303" y2="546.907" stroke="black"/>
<line x1="140.657" y1="607.609" x2="140.657" y2="546.907" stroke="black"/>
<line x1="147.368" y1="607.609" x2="147.368" y2="546.907" stroke="black"/>
<line x1="164.145" y1="607.609" x2="164.145" y2="546.907" stroke="black"/>
<line x1="170.854" y1="607.609" x2="170.854" y2="546.907" stroke="black"/>
<line x1="180.921" y1="607.609" x2="180.921" y2="546.907" stroke="black"/>
<line x1="184.276" y1="607.609" x2="184.276" y2="546.907" stroke="black"/>
<line x1="187.631" y1="607.609" x2="187.631" y2="546.907" stroke="black"/>
<line x1="193.224" y1="607.609" x2="193.224" y2="546.907" stroke="black"/>
<line x1="210" y1="607.609" x2="210" y2="546.907" stroke="black"/>
<line x1="229.131" y1="607.609" x2="229.131" y2="546.907" stroke="black"/>
<line x1="232.486" y1="607.609" x2="232.486" y2="546.907" stroke="black"/>
<line x1="244.789" y1="607.609" x2="244.789" y2="546.907" stroke="black"/>
<line x1="254.854" y1="607.609" x2="254.854" y2="546.907" stroke="black"/>
<line x1="258.21" y1="607.609" x2="258.21" y2="546.907" stroke="black"/>
<line x1="268.276" y1="607.609" x2="268.276" y2="546.907" stroke="black"/>
<line x1="274.986" y1="607.609" x2="274.986" y2="546.907" stroke="black"/>
<line x1="285.053" y1="607.609" x2="285.053" y2="546.907" stroke="black"/>
<line x1="288.407" y1="607.609" x2="288.407" y2="546.907" stroke="black"/>
<line x1="300.71" y1="607.609" x2="300.71" y2="546.907" stroke="black"/>
<line x1="308.776" y1="607.609" x2="308.776" y2="546.907" stroke="black"/>
</g>
<rect x="25" y="90" width="23" height="450" fill="#F4C537"/>
<rect x="286" y="90" width="23" height="450" fill="#F4C537"/>
<path d="M249.639 90L260.472 107.6H274.751C280.66 107.6 280.167 115.422 274.751 115.422H260.472L249.639 134H244.222V131.067L249.639 115.422H237.329L234.374 119.333H229.45C232.602 113.467 231.462 105.644 229 103.689H234.374L237.329 108.578H249.639L244.222 92.4444V90H249.639Z" fill="black" stroke="black"/>
<rect x="25" y="134" width="192" height="47" fill="black"/>
<line x1="25" y1="339.5" x2="309" y2="339.5" stroke="black" stroke-width="3"/>
<line x1="25" y1="90.5" x2="173" y2="90.5" stroke="black" stroke-width="3"/>
</g>
<defs>
<filter id="filter0_d_481_127" x="-18" y="-18" width="390" height="684" filterUnits="userSpaceOnUse" color-interpolation-filters="sRGB">
<feFlood flood-opacity="0" result="BackgroundImageFix"/>
<feColorMatrix in="SourceAlpha" type="matrix" values="0 0 0 0 0 0 0 0 0 0 0 0 0 0 0 0 0 0 127 0" result="hardAlpha"/>
<feOffset dx="7" dy="7"/>
<feGaussianBlur stdDeviation="12.5"/>
<feComposite in2="hardAlpha" operator="out"/>
<feColorMatrix type="matrix" values="0 0 0 0 0 0 0 0 0 0 0 0 0 0 0 0 0 0 0.25 0"/>
<feBlend mode="normal" in2="BackgroundImageFix" result="effect1_dropShadow_481_127"/>
<feBlend mode="normal" in="SourceGraphic" in2="effect1_dropShadow_481_127" result="shape"/>
</filter>
<clipPath id="clip0_481_127">
<rect width="340" height="634" fill="white"/>
</clipPath>
</defs>
</svg>
