<svg width="572" height="307" viewBox="0 0 572 307" fill="none" xmlns="http://www.w3.org/2000/svg">
<g clip-path="url(#clip0_173_77)">
<rect width="572" height="307" fill="#404042"/>
<g filter="url(#filter0_d_173_77)">
<rect y="307" width="306.751" height="572" rx="17" transform="rotate(-90 0 307)" fill="white"/>
<rect x="493.5" y="264.181" width="2.57479" height="47.5053" transform="rotate(-90 493.5 264.181)" fill="black" stroke="black"/>
<rect x="493.5" y="235.582" width="2.57479" height="47.5053" transform="rotate(-90 493.5 235.582)" fill="black" stroke="black"/>
<rect x="493.5" y="226.646" width="2.57479" height="47.5053" transform="rotate(-90 493.5 226.646)" fill="black" stroke="black"/>
<rect x="493.5" y="214.134" width="2.57479" height="47.5053" transform="rotate(-90 493.5 214.134)" fill="black" stroke="black"/>
<rect x="493.5" y="206.09" width="2.57479" height="47.5053" transform="rotate(-90 493.5 206.09)" fill="black" stroke="black"/>
<rect x="493.5" y="198.047" width="2.57479" height="47.5053" transform="rotate(-90 493.5 198.047)" fill="black" stroke="black"/>
<rect x="493.5" y="184.642" width="2.57479" height="47.5053" transform="rotate(-90 493.5 184.642)" fill="black" stroke="black"/>
<rect x="493.5" y="179.279" width="2.57479" height="47.5053" transform="rotate(-90 493.5 179.279)" fill="black" stroke="black"/>
<rect x="493.5" y="164.087" width="2.57479" height="47.5053" transform="rotate(-90 493.5 164.087)" fill="black" stroke="black"/>
<rect x="493.5" y="158.725" width="2.57479" height="47.5053" transform="rotate(-90 493.5 158.725)" fill="black" stroke="black"/>
<rect x="493.5" y="145.319" width="2.57479" height="47.5053" transform="rotate(-90 493.5 145.319)" fill="black" stroke="black"/>
<rect x="493.5" y="127.445" width="2.57479" height="47.5053" transform="rotate(-90 493.5 127.445)" fill="black" stroke="black"/>
<rect x="493.5" y="129.083" width="2.57479" height="47.5053" transform="rotate(-90 493.5 129.083)" fill="black" stroke="black"/>
<rect x="493.5" y="121.039" width="2.57479" height="47.5053" transform="rotate(-90 493.5 121.039)" fill="black" stroke="black"/>
<rect x="493.5" y="112.996" width="2.57479" height="47.5053" transform="rotate(-90 493.5 112.996)" fill="black" stroke="black"/>
<rect x="493.5" y="103.165" width="2.57479" height="47.5053" transform="rotate(-90 493.5 103.165)" fill="black" stroke="black"/>
<rect x="493.5" y="91.5469" width="2.57479" height="47.5053" transform="rotate(-90 493.5 91.5469)" fill="black" stroke="black"/>
<rect x="493.5" y="81.7168" width="2.57479" height="47.5053" transform="rotate(-90 493.5 81.7168)" fill="black" stroke="black"/>
<rect x="493.5" y="69.2051" width="2.57479" height="47.5053" transform="rotate(-90 493.5 69.2051)" fill="black" stroke="black"/>
<rect x="493.5" y="58.4805" width="2.57479" height="47.5053" transform="rotate(-90 493.5 58.4805)" fill="black" stroke="black"/>
<rect x="493.5" y="46.8623" width="2.57479" height="47.5053" transform="rotate(-90 493.5 46.8623)" fill="black" stroke="black"/>
<rect x="493.5" y="258.818" width="2.57479" height="47.5053" transform="rotate(-90 493.5 258.818)" fill="black" stroke="black"/>
<line x1="541.505" y1="250.882" x2="493" y2="250.882" stroke="black"/>
<line x1="541.505" y1="248.2" x2="493" y2="248.2" stroke="black"/>
<line x1="541.505" y1="245.52" x2="493" y2="245.52" stroke="black"/>
<line x1="541.505" y1="242.838" x2="493" y2="242.838" stroke="black"/>
<line x1="541.505" y1="240.157" x2="493" y2="240.157" stroke="black"/>
<line x1="541.505" y1="230.326" x2="493" y2="230.326" stroke="black"/>
<line x1="541.505" y1="222.283" x2="493" y2="222.283" stroke="black"/>
<line x1="541.505" y1="219.602" x2="493" y2="219.602" stroke="black"/>
<line x1="541.505" y1="208.878" x2="493" y2="208.878" stroke="black"/>
<line x1="541.505" y1="200.834" x2="493" y2="200.834" stroke="black"/>
<line x1="541.505" y1="192.791" x2="493" y2="192.791" stroke="black"/>
<line x1="541.505" y1="187.429" x2="493" y2="187.429" stroke="black"/>
<line x1="541.505" y1="174.917" x2="493" y2="174.917" stroke="black"/>
<line x1="541.505" y1="172.236" x2="493" y2="172.236" stroke="black"/>
<line x1="541.505" y1="166.874" x2="493" y2="166.874" stroke="black"/>
<line x1="541.505" y1="153.469" x2="493" y2="153.469" stroke="black"/>
<line x1="541.505" y1="148.106" x2="493" y2="148.106" stroke="black"/>
<line x1="541.505" y1="140.062" x2="493" y2="140.062" stroke="black"/>
<line x1="541.505" y1="137.382" x2="493" y2="137.382" stroke="black"/>
<line x1="541.505" y1="134.701" x2="493" y2="134.701" stroke="black"/>
<line x1="541.505" y1="130.232" x2="493" y2="130.232" stroke="black"/>
<line x1="541.505" y1="123.827" x2="493" y2="123.827" stroke="black"/>
<line x1="541.505" y1="107.74" x2="493" y2="107.74" stroke="black"/>
<line x1="541.505" y1="105.06" x2="493" y2="105.06" stroke="black"/>
<line x1="541.505" y1="95.2285" x2="493" y2="95.2285" stroke="black"/>
<line x1="541.505" y1="87.1855" x2="493" y2="87.1855" stroke="black"/>
<line x1="541.505" y1="84.5039" x2="493" y2="84.5039" stroke="black"/>
<line x1="541.505" y1="76.4609" x2="493" y2="76.4609" stroke="black"/>
<line x1="541.505" y1="71.0986" x2="493" y2="71.0986" stroke="black"/>
<line x1="541.505" y1="63.0557" x2="493" y2="63.0557" stroke="black"/>
<line x1="541.505" y1="60.374" x2="493" y2="60.374" stroke="black"/>
<line x1="541.505" y1="50.5439" x2="493" y2="50.5439" stroke="black"/>
<line x1="541.505" y1="42.5" x2="493" y2="42.5" stroke="black"/>
</g>
<line x1="390.5" y1="2.18557e-08" x2="390.5" y2="307" stroke="black" stroke-dasharray="6 6"/>
<path fill-rule="evenodd" clip-rule="evenodd" d="M0 17C0 7.61116 7.61116 0 17 0L364 0L373 0L390 0V17V33V50H373H364L21.7766 50H17L0 50L0 33L0 25L0 17Z" fill="#F4C537"/>
<rect x="429.5" y="159.5" width="122" height="45" transform="rotate(-90 429.5 159.5)" fill="#F4C537"/>
<path d="M458.5 267.053L470.9 259.47V249.474C470.9 245.338 476.411 245.683 476.411 249.474V259.47L489.5 267.053V270.844H487.433L476.411 267.053V275.67L479.167 277.738V281.185C475.033 278.979 469.522 279.777 468.144 281.5V277.738L471.589 275.67V267.053L460.222 270.844H458.5V267.053Z" fill="black" stroke="black"/>
<path d="M474 152.5L474 247.5" stroke="black" stroke-dasharray="2 2"/>
</g>
<defs>
<filter id="filter0_d_173_77" x="-18" y="-17.751" width="622" height="356.751" filterUnits="userSpaceOnUse" color-interpolation-filters="sRGB">
<feFlood flood-opacity="0" result="BackgroundImageFix"/>
<feColorMatrix in="SourceAlpha" type="matrix" values="0 0 0 0 0 0 0 0 0 0 0 0 0 0 0 0 0 0 127 0" result="hardAlpha"/>
<feOffset dx="7" dy="7"/>
<feGaussianBlur stdDeviation="12.5"/>
<feComposite in2="hardAlpha" operator="out"/>
<feColorMatrix type="matrix" values="0 0 0 0 0 0 0 0 0 0 0 0 0 0 0 0 0 0 0.25 0"/>
<feBlend mode="normal" in2="BackgroundImageFix" result="effect1_dropShadow_173_77"/>
<feBlend mode="normal" in="SourceGraphic" in2="effect1_dropShadow_173_77" result="shape"/>
</filter>
<clipPath id="clip0_173_77">
<rect width="572" height="307" fill="white"/>
</clipPath>
</defs>
</svg>
