<svg width="870" height="129" viewBox="0 0 870 129" fill="none" xmlns="http://www.w3.org/2000/svg">
<g clip-path="url(#clip0_235_263)">
<rect width="870" height="129" fill="#404042"/>
<path d="M336.205 9H414V119H398.975V22.9157H351.23V59.6928C351.23 87.3584 349.727 119 320.345 119H313V104.753H317.674C336.205 104.753 336.205 81.7259 336.205 59.6928V9Z" fill="#F4C537"/>
<path d="M774.549 93.488L763.432 119H748L796.452 9H812.714L861 119H845.07L833.953 93.488H774.549ZM827.979 79.738L804.251 25.2349L780.523 79.738H827.979Z" fill="#F4C537"/>
<path d="M616 9H709V23.0422H670.109V120H654.891V23.0422H616V9Z" fill="#F4C537"/>
<path d="M112 120H96.9731V23.0422H34.0269V120H19V9H112V120Z" fill="#F4C537"/>
<rect x="458.13" y="5.1543" width="121.827" height="118.82" stroke="#625D5D" stroke-width="9"/>
<rect x="146.575" y="5.1543" width="121.827" height="118.82" stroke="#625D5D" stroke-width="9"/>
<path d="M207.835 9.55469C238.898 9.55469 262.718 33.2577 262.718 64.4374C262.718 95.6171 238.898 119.32 207.835 119.32C176.773 119.32 152.953 95.6171 152.953 64.4374C152.953 33.2577 176.773 9.55469 207.835 9.55469ZM207.835 22.9174C184.82 22.9174 167.438 40.5754 167.438 64.4374C167.438 88.2995 184.82 105.957 207.835 105.957C230.851 105.957 248.233 88.2995 248.233 64.4374C248.233 40.5754 230.851 22.9174 207.835 22.9174Z" fill="#F4C537"/>
<rect x="743.822" y="5.1543" width="121.827" height="118.82" stroke="#625D5D" stroke-width="9"/>
<rect x="601.5" y="5.5" width="121.827" height="118.82" stroke="#625D5D" stroke-width="9"/>
<rect x="4.5" y="5.5" width="121.827" height="118.82" stroke="#625D5D" stroke-width="9"/>
<rect x="289.5" y="4.5" width="148.846" height="118.78" stroke="#625D5D" stroke-width="9"/>
<path d="M556 23.0422H496.8V57.4789H554.849V71.5211H496.8V105.958H556V120H482V9H556V23.0422Z" fill="#F4C537"/>
</g>
<defs>
<clipPath id="clip0_235_263">
<rect width="870" height="129" fill="white"/>
</clipPath>
</defs>
</svg>
