<svg width="1156" height="128" viewBox="0 0 1156 128" fill="none" xmlns="http://www.w3.org/2000/svg">
<g clip-path="url(#clip0_235_226)">
<rect width="1156" height="128" fill="#404042"/>
<path d="M919 9H995V22.9157H934V119H919V9Z" fill="#F4C537"/>
<path d="M843 22.9157H783V57.0422H841.833V70.9578H783V105.084H843V119H768V9H843V22.9157Z" fill="#F4C537"/>
<path d="M720 119H579V9H594.107V105.084H641.946V9H657.054V105.084H704.893V9H720V119Z" fill="#F4C537"/>
<path d="M96.9414 119L65.5 75.7621L34.0586 119H17L56.8035 64L17 9H34.2259L65.5 52.0723L96.7741 9H114L74.0293 64L114 119H96.9414Z" fill="#F4C537"/>
<rect x="4.5" y="4.70654" width="121.827" height="118.82" stroke="#625D5D" stroke-width="9"/>
<rect x="744.13" y="4.70654" width="121.827" height="118.82" stroke="#625D5D" stroke-width="9"/>
<rect x="432.575" y="4.70654" width="121.827" height="118.82" stroke="#625D5D" stroke-width="9"/>
<path d="M493.836 9.10693C524.899 9.10693 548.719 32.8099 548.719 63.9896C548.719 95.1694 524.899 118.872 493.836 118.872C462.773 118.872 438.953 95.1694 438.953 63.9896C438.953 32.8099 462.773 9.10693 493.836 9.10693ZM493.836 22.4697C470.821 22.4697 453.438 40.1276 453.438 63.9896C453.438 87.8517 470.821 105.51 493.836 105.51C516.851 105.51 534.233 87.8517 534.233 63.9896C534.233 40.1276 516.851 22.4697 493.836 22.4697Z" fill="#F4C537"/>
<path d="M1090.77 9.66357C1121.83 9.66357 1145.65 33.3666 1145.65 64.5463C1145.65 95.726 1121.83 119.429 1090.77 119.429C1059.71 119.429 1035.89 95.726 1035.89 64.5463C1035.89 33.3666 1059.71 9.66357 1090.77 9.66357ZM1090.77 23.0263C1067.75 23.0263 1050.37 40.6842 1050.37 64.5463C1050.37 88.4083 1067.75 106.066 1090.77 106.066C1113.78 106.066 1131.17 88.4083 1131.17 64.5463C1131.17 40.6842 1113.78 23.0263 1090.77 23.0263Z" fill="#F4C537"/>
<path d="M209.571 9.10693C240.633 9.10693 264.454 32.8099 264.454 63.9896C264.454 95.1694 240.633 118.872 209.571 118.872C178.508 118.872 154.688 95.1694 154.688 63.9896C154.688 32.8099 178.508 9.10693 209.571 9.10693ZM209.571 22.4697C186.555 22.4697 169.173 40.1276 169.173 63.9896C169.173 87.8517 186.555 105.51 209.571 105.51C232.586 105.51 249.968 87.8517 249.968 63.9896C249.968 40.1276 232.586 22.4697 209.571 22.4697Z" fill="#F4C537"/>
<path d="M395.302 41.3423C395.302 58.8651 383.951 73.5776 358.782 73.5776H322.097V119.158H307.292V9.10693H358.782C383.951 9.10693 395.302 23.8195 395.302 41.3423ZM380.496 41.3423C380.496 29.2747 372.107 22.9929 358.782 22.9929H322.097V59.6916H358.782C372.107 59.6916 380.496 53.4098 380.496 41.3423Z" fill="#F4C537"/>
<rect x="1029.82" y="4.70654" width="121.827" height="118.82" stroke="#625D5D" stroke-width="9"/>
<rect x="290.22" y="4.70654" width="121.827" height="118.82" stroke="#625D5D" stroke-width="9"/>
<rect x="575.122" y="4.5" width="148.846" height="118.78" stroke="#625D5D" stroke-width="9"/>
<rect x="147.851" y="4.70654" width="121.827" height="118.82" stroke="#625D5D" stroke-width="9"/>
<rect x="887.495" y="4.70654" width="121.827" height="118.82" stroke="#625D5D" stroke-width="9"/>
</g>
<defs>
<clipPath id="clip0_235_226">
<rect width="1156" height="128" fill="white"/>
</clipPath>
</defs>
</svg>
