<svg width="1146" height="218" viewBox="0 0 1146 218" fill="none" xmlns="http://www.w3.org/2000/svg">
<g clip-path="url(#clip0_1_185)">
<rect width="1146" height="218" fill="#404042"/>
<rect width="24.1119" height="25.2421" fill="#F4C537"/>
<rect y="32.1263" width="24.1119" height="25.2421" fill="#F4C537"/>
<rect y="64.2526" width="24.1119" height="25.2421" fill="#F4C537"/>
<rect y="96.379" width="24.1119" height="25.2421" fill="#F4C537"/>
<rect y="128.505" width="24.1119" height="25.2421" fill="#F4C537"/>
<rect y="160.632" width="24.1119" height="25.2421" fill="#F4C537"/>
<rect y="192.758" width="24.1119" height="25.2421" fill="#F4C537"/>
<rect x="30.6877" width="24.1119" height="25.2421" fill="#F4C537"/>
<rect x="30.6877" y="32.1263" width="24.1119" height="25.2421" fill="#625D5D"/>
<rect x="30.6877" y="64.2526" width="24.1119" height="25.2421" fill="#625D5D"/>
<rect x="30.6877" y="96.379" width="24.1119" height="25.2421" fill="#F4C537"/>
<rect x="30.6877" y="128.505" width="24.1119" height="25.2421" fill="#625D5D"/>
<rect x="30.6877" y="160.632" width="24.1119" height="25.2421" fill="#625D5D"/>
<rect x="30.6877" y="192.758" width="24.1119" height="25.2421" fill="#625D5D"/>
<rect x="61.3757" width="24.1119" height="25.2421" fill="#F4C537"/>
<rect x="61.3757" y="32.1263" width="24.1119" height="25.2421" fill="#625D5D"/>
<rect x="61.3757" y="64.2526" width="24.1119" height="25.2421" fill="#625D5D"/>
<rect x="61.3757" y="96.379" width="24.1119" height="25.2421" fill="#F4C537"/>
<rect x="61.3757" y="128.505" width="24.1119" height="25.2421" fill="#625D5D"/>
<rect x="61.3757" y="160.632" width="24.1119" height="25.2421" fill="#625D5D"/>
<rect x="61.3757" y="192.758" width="24.1119" height="25.2421" fill="#625D5D"/>
<rect x="91.0635" width="24.1119" height="25.2421" fill="#F4C537"/>
<rect x="91.0635" y="32.1263" width="24.1119" height="25.2421" fill="#625D5D"/>
<rect x="91.0635" y="64.2526" width="24.1119" height="25.2421" fill="#625D5D"/>
<rect x="91.0635" y="96.379" width="24.1119" height="25.2421" fill="#F4C537"/>
<rect x="91.0635" y="128.505" width="24.1119" height="25.2421" fill="#625D5D"/>
<rect x="91.0635" y="160.632" width="24.1119" height="25.2421" fill="#625D5D"/>
<rect x="91.0635" y="192.758" width="24.1119" height="25.2421" fill="#625D5D"/>
<rect x="121.751" width="24.1119" height="25.2421" fill="#F4C537"/>
<rect x="121.751" y="32.1263" width="24.1119" height="25.2421" fill="#625D5D"/>
<rect x="121.751" y="64.2526" width="24.1119" height="25.2421" fill="#625D5D"/>
<rect x="121.751" y="96.379" width="24.1119" height="25.2421" fill="#F4C537"/>
<rect x="121.751" y="128.505" width="24.1119" height="25.2421" fill="#625D5D"/>
<rect x="121.751" y="160.632" width="24.1119" height="25.2421" fill="#625D5D"/>
<rect x="121.751" y="192.758" width="24.1119" height="25.2421" fill="#625D5D"/>
<rect x="334.199" width="24.1119" height="25.2421" fill="#F4C537"/>
<rect x="334.199" y="32.1263" width="24.1119" height="25.2421" fill="#F4C537"/>
<rect x="334.199" y="64.2526" width="24.1119" height="25.2421" fill="#F4C537"/>
<rect x="334.199" y="96.379" width="24.1119" height="25.2421" fill="#F4C537"/>
<rect x="334.199" y="128.505" width="24.1119" height="25.2421" fill="#F4C537"/>
<rect x="334.199" y="160.632" width="24.1119" height="25.2421" fill="#F4C537"/>
<rect x="334.199" y="192.758" width="24.1119" height="25.2421" fill="#F4C537"/>
<rect x="364.887" width="24.1119" height="25.2421" fill="#625D5D"/>
<rect x="364.887" y="32.1263" width="24.1119" height="25.2421" fill="#625D5D"/>
<rect x="364.887" y="64.2526" width="24.1119" height="25.2421" fill="#F4C537"/>
<rect x="364.887" y="96.379" width="24.1119" height="25.2421" fill="#625D5D"/>
<rect x="364.887" y="128.505" width="24.1119" height="25.2421" fill="#625D5D"/>
<rect x="364.887" y="160.632" width="24.1119" height="25.2421" fill="#625D5D"/>
<rect x="364.887" y="192.758" width="24.1119" height="25.2421" fill="#625D5D"/>
<rect x="393.575" width="24.1119" height="25.2421" fill="#625D5D"/>
<rect x="393.575" y="32.1263" width="24.1119" height="25.2421" fill="#625D5D"/>
<rect x="393.575" y="64.2526" width="24.1119" height="25.2421" fill="#625D5D"/>
<rect x="393.575" y="96.379" width="24.1119" height="25.2421" fill="#F4C537"/>
<rect x="393.575" y="128.505" width="24.1119" height="25.2421" fill="#625D5D"/>
<rect x="393.575" y="160.632" width="24.1119" height="25.2421" fill="#625D5D"/>
<rect x="393.575" y="192.758" width="24.1119" height="25.2421" fill="#625D5D"/>
<rect x="424.262" width="24.1119" height="25.2421" fill="#625D5D"/>
<rect x="424.262" y="32.1263" width="24.1119" height="25.2421" fill="#625D5D"/>
<rect x="424.262" y="64.2526" width="24.1119" height="25.2421" fill="#625D5D"/>
<rect x="424.262" y="96.379" width="24.1119" height="25.2421" fill="#625D5D"/>
<rect x="424.262" y="128.505" width="24.1119" height="25.2421" fill="#F4C537"/>
<rect x="424.262" y="160.632" width="24.1119" height="25.2421" fill="#625D5D"/>
<rect x="424.262" y="192.758" width="24.1119" height="25.2421" fill="#625D5D"/>
<rect x="454.95" width="24.1119" height="25.2421" fill="#F4C537"/>
<rect x="454.95" y="32.1263" width="24.1119" height="25.2421" fill="#F4C537"/>
<rect x="454.95" y="64.2526" width="24.1119" height="25.2421" fill="#F4C537"/>
<rect x="454.95" y="96.379" width="24.1119" height="25.2421" fill="#F4C537"/>
<rect x="454.95" y="128.505" width="24.1119" height="25.2421" fill="#F4C537"/>
<rect x="454.95" y="160.632" width="24.1119" height="25.2421" fill="#F4C537"/>
<rect x="454.95" y="192.758" width="24.1119" height="25.2421" fill="#F4C537"/>
<rect x="167.028" width="24.1119" height="25.2421" fill="#F4C537"/>
<rect x="167.028" y="32.1263" width="24.1119" height="25.2421" fill="#F4C537"/>
<rect x="167.028" y="64.2526" width="24.1119" height="25.2421" fill="#F4C537"/>
<rect x="167.028" y="96.379" width="24.1119" height="25.2421" fill="#F4C537"/>
<rect x="167.028" y="128.505" width="24.1119" height="25.2421" fill="#F4C537"/>
<rect x="167.028" y="160.632" width="24.1119" height="25.2421" fill="#F4C537"/>
<rect x="167.028" y="192.758" width="24.1119" height="25.2421" fill="#F4C537"/>
<rect x="196.716" width="24.1119" height="25.2421" fill="#F4C537"/>
<rect x="196.716" y="32.1263" width="24.1119" height="25.2421" fill="#625D5D"/>
<rect x="196.716" y="64.2526" width="24.1119" height="25.2421" fill="#625D5D"/>
<rect x="196.716" y="96.379" width="24.1119" height="25.2421" fill="#625D5D"/>
<rect x="196.716" y="128.505" width="24.1119" height="25.2421" fill="#625D5D"/>
<rect x="196.716" y="160.632" width="24.1119" height="25.2421" fill="#625D5D"/>
<rect x="196.716" y="192.758" width="24.1119" height="25.2421" fill="#F4C537"/>
<rect x="227.404" width="24.1119" height="25.2421" fill="#F4C537"/>
<rect x="227.404" y="32.1263" width="24.1119" height="25.2421" fill="#625D5D"/>
<rect x="227.404" y="64.2526" width="24.1119" height="25.2421" fill="#625D5D"/>
<rect x="227.404" y="96.379" width="24.1119" height="25.2421" fill="#625D5D"/>
<rect x="227.404" y="128.505" width="24.1119" height="25.2421" fill="#625D5D"/>
<rect x="227.404" y="160.632" width="24.1119" height="25.2421" fill="#625D5D"/>
<rect x="227.404" y="192.758" width="24.1119" height="25.2421" fill="#F4C537"/>
<rect x="258.092" width="24.1119" height="25.2421" fill="#F4C537"/>
<rect x="258.092" y="32.1263" width="24.1119" height="25.2421" fill="#625D5D"/>
<rect x="258.092" y="64.2526" width="24.1119" height="25.2421" fill="#625D5D"/>
<rect x="258.092" y="96.379" width="24.1119" height="25.2421" fill="#625D5D"/>
<rect x="258.092" y="128.505" width="24.1119" height="25.2421" fill="#625D5D"/>
<rect x="258.092" y="160.632" width="24.1119" height="25.2421" fill="#625D5D"/>
<rect x="258.092" y="192.758" width="24.1119" height="25.2421" fill="#F4C537"/>
<rect x="287.779" width="24.1119" height="25.2421" fill="#F4C537"/>
<rect x="287.779" y="32.1263" width="24.1119" height="25.2421" fill="#F4C537"/>
<rect x="287.779" y="64.2526" width="24.1119" height="25.2421" fill="#F4C537"/>
<rect x="287.779" y="96.379" width="24.1119" height="25.2421" fill="#F4C537"/>
<rect x="287.779" y="128.505" width="24.1119" height="25.2421" fill="#F4C537"/>
<rect x="287.779" y="160.632" width="24.1119" height="25.2421" fill="#F4C537"/>
<rect x="287.779" y="192.758" width="24.1119" height="25.2421" fill="#F4C537"/>
<rect x="497.531" width="24.1119" height="25.2421" fill="#F4C537"/>
<rect x="497.531" y="32.1263" width="24.1119" height="25.2421" fill="#625D5D"/>
<rect x="497.531" y="64.2526" width="24.1119" height="25.2421" fill="#625D5D"/>
<rect x="497.531" y="96.379" width="24.1119" height="25.2421" fill="#625D5D"/>
<rect x="497.531" y="128.505" width="24.1119" height="25.2421" fill="#625D5D"/>
<rect x="497.531" y="160.632" width="24.1119" height="25.2421" fill="#625D5D"/>
<rect x="497.531" y="192.758" width="24.1119" height="25.2421" fill="#625D5D"/>
<rect x="528.219" width="24.1119" height="25.2421" fill="#F4C537"/>
<rect x="528.219" y="32.1263" width="24.1119" height="25.2421" fill="#625D5D"/>
<rect x="528.219" y="64.2526" width="24.1119" height="25.2421" fill="#625D5D"/>
<rect x="528.219" y="96.379" width="24.1119" height="25.2421" fill="#625D5D"/>
<rect x="528.219" y="128.505" width="24.1119" height="25.2421" fill="#625D5D"/>
<rect x="528.219" y="160.632" width="24.1119" height="25.2421" fill="#625D5D"/>
<rect x="528.219" y="192.758" width="24.1119" height="25.2421" fill="#625D5D"/>
<rect x="558.906" width="24.1119" height="25.2421" fill="#F4C537"/>
<rect x="558.906" y="32.1263" width="24.1119" height="25.2421" fill="#F4C537"/>
<rect x="558.906" y="64.2526" width="24.1119" height="25.2421" fill="#F4C537"/>
<rect x="558.906" y="96.379" width="24.1119" height="25.2421" fill="#F4C537"/>
<rect x="558.906" y="128.505" width="24.1119" height="25.2421" fill="#F4C537"/>
<rect x="558.906" y="160.632" width="24.1119" height="25.2421" fill="#F4C537"/>
<rect x="558.906" y="192.758" width="24.1119" height="25.2421" fill="#F4C537"/>
<rect x="588.594" width="24.1119" height="25.2421" fill="#F4C537"/>
<rect x="588.594" y="32.1263" width="24.1119" height="25.2421" fill="#625D5D"/>
<rect x="588.594" y="64.2526" width="24.1119" height="25.2421" fill="#625D5D"/>
<rect x="588.594" y="96.379" width="24.1119" height="25.2421" fill="#625D5D"/>
<rect x="588.594" y="128.505" width="24.1119" height="25.2421" fill="#625D5D"/>
<rect x="588.594" y="160.632" width="24.1119" height="25.2421" fill="#625D5D"/>
<rect x="588.594" y="192.758" width="24.1119" height="25.2421" fill="#625D5D"/>
<rect x="619.282" width="24.1119" height="25.2421" fill="#F4C537"/>
<rect x="619.282" y="32.1263" width="24.1119" height="25.2421" fill="#625D5D"/>
<rect x="619.282" y="64.2526" width="24.1119" height="25.2421" fill="#625D5D"/>
<rect x="619.282" y="96.379" width="24.1119" height="25.2421" fill="#625D5D"/>
<rect x="619.282" y="128.505" width="24.1119" height="25.2421" fill="#625D5D"/>
<rect x="619.282" y="160.632" width="24.1119" height="25.2421" fill="#625D5D"/>
<rect x="619.282" y="192.758" width="24.1119" height="25.2421" fill="#625D5D"/>
<rect x="661.969" width="24.1119" height="25.2421" fill="#625D5D"/>
<rect x="661.969" y="32.1263" width="24.1119" height="25.2421" fill="#625D5D"/>
<rect x="661.969" y="64.2526" width="24.1119" height="25.2421" fill="#625D5D"/>
<rect x="661.969" y="96.379" width="24.1119" height="25.2421" fill="#625D5D"/>
<rect x="661.969" y="128.505" width="24.1119" height="25.2421" fill="#625D5D"/>
<rect x="661.969" y="160.632" width="24.1119" height="25.2421" fill="#625D5D"/>
<rect x="661.969" y="192.758" width="24.1119" height="25.2421" fill="#625D5D"/>
<rect x="692.657" width="24.1119" height="25.2421" fill="#625D5D"/>
<rect x="692.657" y="32.1263" width="24.1119" height="25.2421" fill="#625D5D"/>
<rect x="692.657" y="64.2526" width="24.1119" height="25.2421" fill="#625D5D"/>
<rect x="692.657" y="96.379" width="24.1119" height="25.2421" fill="#625D5D"/>
<rect x="692.657" y="128.505" width="24.1119" height="25.2421" fill="#625D5D"/>
<rect x="692.657" y="160.632" width="24.1119" height="25.2421" fill="#625D5D"/>
<rect x="692.657" y="192.758" width="24.1119" height="25.2421" fill="#625D5D"/>
<rect x="723.344" width="24.1119" height="25.2421" fill="#625D5D"/>
<rect x="723.344" y="32.1263" width="24.1119" height="25.2421" fill="#625D5D"/>
<rect x="723.344" y="64.2526" width="24.1119" height="25.2421" fill="#F4C537"/>
<rect x="723.344" y="96.379" width="24.1119" height="25.2421" fill="#625D5D"/>
<rect x="723.344" y="128.505" width="24.1119" height="25.2421" fill="#F4C537"/>
<rect x="723.344" y="160.632" width="24.1119" height="25.2421" fill="#625D5D"/>
<rect x="723.344" y="192.758" width="24.1119" height="25.2421" fill="#625D5D"/>
<rect x="754.032" width="24.1119" height="25.2421" fill="#625D5D"/>
<rect x="754.032" y="32.1263" width="24.1119" height="25.2421" fill="#625D5D"/>
<rect x="754.032" y="64.2526" width="24.1119" height="25.2421" fill="#625D5D"/>
<rect x="754.032" y="96.379" width="24.1119" height="25.2421" fill="#625D5D"/>
<rect x="754.032" y="128.505" width="24.1119" height="25.2421" fill="#625D5D"/>
<rect x="754.032" y="160.632" width="24.1119" height="25.2421" fill="#625D5D"/>
<rect x="754.032" y="192.758" width="24.1119" height="25.2421" fill="#625D5D"/>
<rect x="784.72" width="24.1119" height="25.2421" fill="#625D5D"/>
<rect x="784.72" y="32.1263" width="24.1119" height="25.2421" fill="#625D5D"/>
<rect x="784.72" y="64.2526" width="24.1119" height="25.2421" fill="#625D5D"/>
<rect x="784.72" y="96.379" width="24.1119" height="25.2421" fill="#625D5D"/>
<rect x="784.72" y="128.505" width="24.1119" height="25.2421" fill="#625D5D"/>
<rect x="784.72" y="160.632" width="24.1119" height="25.2421" fill="#625D5D"/>
<rect x="784.72" y="192.758" width="24.1119" height="25.2421" fill="#625D5D"/>
<path fill-rule="evenodd" clip-rule="evenodd" d="M934 0C924.611 0 917 7.61116 917 17V196C917 205.389 924.611 213 934 213H1128.71C1138.09 213 1145.71 205.389 1145.71 196V17C1145.71 7.61116 1138.09 0 1128.71 0H934ZM1131.5 64.4484C1122.13 51.6848 1083.27 57.7311 1058.83 88.0177C1031.28 83.5831 975.458 74.6804 972.648 74.5472C969.136 74.3808 948.403 90.9978 950.578 94.6208C952.753 98.2437 995.959 114.957 999.416 116.294C994.029 122.688 981.582 136.099 974.893 138.598C962.126 131.54 935.131 120.992 929.293 135.264L957.172 165.918C961.163 164.509 966.482 162.82 972.753 160.829C1001.13 151.816 1049.03 136.606 1081.7 113.154C1122.36 83.9614 1135.34 69.9105 1131.5 64.4484Z" fill="#F4C537"/>
</g>
<defs>
<clipPath id="clip0_1_185">
<rect width="1146" height="218" fill="white"/>
</clipPath>
</defs>
</svg>
