<svg width="620" height="91" viewBox="0 0 620 91" fill="none" xmlns="http://www.w3.org/2000/svg">
<g clip-path="url(#clip0_70_830)">
<rect width="620" height="91" fill="#404042"/>
<rect x="348.369" width="10.0862" height="10.559" fill="#F4C537"/>
<rect x="487.757" width="10.0862" height="10.559" fill="#F4C537"/>
<rect x="558.451" width="10.0862" height="10.559" fill="#F4C537"/>
<rect x="348.369" y="13.3859" width="10.0862" height="10.559" fill="#625D5D"/>
<rect x="487.757" y="13.3859" width="10.0862" height="10.559" fill="#625D5D"/>
<rect x="558.451" y="13.3859" width="10.0862" height="10.559" fill="#625D5D"/>
<rect x="348.369" y="26.8774" width="10.0862" height="10.559" fill="#625D5D"/>
<rect x="487.757" y="26.8774" width="10.0862" height="10.559" fill="#625D5D"/>
<rect x="558.451" y="26.8774" width="10.0862" height="10.559" fill="#625D5D"/>
<rect x="348.369" y="40.3162" width="10.0862" height="10.559" fill="#F4C537"/>
<rect x="487.757" y="40.3162" width="10.0862" height="10.559" fill="#F4C537"/>
<rect x="558.451" y="40.3162" width="10.0862" height="10.559" fill="#F4C537"/>
<rect x="348.369" y="53.7549" width="10.0862" height="10.559" fill="#F4C537"/>
<rect x="487.757" y="53.7549" width="10.0862" height="10.559" fill="#F4C537"/>
<rect x="558.451" y="53.7549" width="10.0862" height="10.559" fill="#F4C537"/>
<rect x="348.369" y="67.1936" width="10.0862" height="10.559" fill="#F4C537"/>
<rect x="487.757" y="67.1936" width="10.0862" height="10.559" fill="#F4C537"/>
<rect x="558.451" y="67.1936" width="10.0862" height="10.559" fill="#F4C537"/>
<rect x="348.369" y="80.6324" width="10.0862" height="10.559" fill="#F4C537"/>
<rect x="487.757" y="80.6324" width="10.0862" height="10.559" fill="#F4C537"/>
<rect x="558.451" y="80.6324" width="10.0862" height="10.559" fill="#F4C537"/>
<rect x="361.206" width="10.0862" height="10.559" fill="#F4C537"/>
<rect x="500.594" width="10.0862" height="10.559" fill="#F4C537"/>
<rect x="571.288" width="10.0862" height="10.559" fill="#F4C537"/>
<rect x="361.206" y="13.4388" width="10.0862" height="10.559" fill="#625D5D"/>
<rect x="500.594" y="13.4388" width="10.0862" height="10.559" fill="#625D5D"/>
<rect x="571.288" y="13.4388" width="10.0862" height="10.559" fill="#625D5D"/>
<rect x="361.206" y="26.8774" width="10.0862" height="10.559" fill="#625D5D"/>
<rect x="500.594" y="26.8774" width="10.0862" height="10.559" fill="#625D5D"/>
<rect x="571.288" y="26.8774" width="10.0862" height="10.559" fill="#625D5D"/>
<rect x="361.206" y="40.3162" width="10.0862" height="10.559" fill="#F4C537"/>
<rect x="500.594" y="40.3162" width="10.0862" height="10.559" fill="#F4C537"/>
<rect x="571.288" y="40.3162" width="10.0862" height="10.559" fill="#F4C537"/>
<rect x="361.206" y="53.7549" width="10.0862" height="10.559" fill="#625D5D"/>
<rect x="500.594" y="53.7549" width="10.0862" height="10.559" fill="#625D5D"/>
<rect x="571.288" y="53.7549" width="10.0862" height="10.559" fill="#625D5D"/>
<rect x="361.206" y="67.1936" width="10.0862" height="10.559" fill="#625D5D"/>
<rect x="500.594" y="67.1936" width="10.0862" height="10.559" fill="#625D5D"/>
<rect x="571.288" y="67.1936" width="10.0862" height="10.559" fill="#625D5D"/>
<rect x="361.206" y="80.6324" width="10.0862" height="10.559" fill="#F4C537"/>
<rect x="500.594" y="80.6324" width="10.0862" height="10.559" fill="#F4C537"/>
<rect x="571.288" y="80.6324" width="10.0862" height="10.559" fill="#F4C537"/>
<rect x="374.043" width="10.0862" height="10.559" fill="#F4C537"/>
<rect x="513.431" width="10.0862" height="10.559" fill="#F4C537"/>
<rect x="584.125" width="10.0862" height="10.559" fill="#F4C537"/>
<rect x="374.043" y="13.4388" width="10.0862" height="10.559" fill="#625D5D"/>
<rect x="513.431" y="13.4388" width="10.0862" height="10.559" fill="#625D5D"/>
<rect x="584.125" y="13.4388" width="10.0862" height="10.559" fill="#625D5D"/>
<rect x="374.043" y="26.8774" width="10.0862" height="10.559" fill="#625D5D"/>
<rect x="513.431" y="26.8774" width="10.0862" height="10.559" fill="#625D5D"/>
<rect x="584.125" y="26.8774" width="10.0862" height="10.559" fill="#625D5D"/>
<rect x="374.043" y="40.3162" width="10.0862" height="10.559" fill="#F4C537"/>
<rect x="513.431" y="40.3162" width="10.0862" height="10.559" fill="#F4C537"/>
<rect x="584.125" y="40.3162" width="10.0862" height="10.559" fill="#F4C537"/>
<rect x="374.043" y="53.7549" width="10.0862" height="10.559" fill="#625D5D"/>
<rect x="513.431" y="53.7549" width="10.0862" height="10.559" fill="#625D5D"/>
<rect x="584.125" y="53.7549" width="10.0862" height="10.559" fill="#625D5D"/>
<rect x="374.043" y="67.1936" width="10.0862" height="10.559" fill="#625D5D"/>
<rect x="513.431" y="67.1936" width="10.0862" height="10.559" fill="#625D5D"/>
<rect x="584.125" y="67.1936" width="10.0862" height="10.559" fill="#625D5D"/>
<rect x="374.043" y="80.6324" width="10.0862" height="10.559" fill="#F4C537"/>
<rect x="513.431" y="80.6324" width="10.0862" height="10.559" fill="#F4C537"/>
<rect x="584.125" y="80.6324" width="10.0862" height="10.559" fill="#F4C537"/>
<rect x="386.88" width="10.0862" height="10.559" fill="#F4C537"/>
<rect x="526.268" width="10.0862" height="10.559" fill="#F4C537"/>
<rect x="596.962" width="10.0862" height="10.559" fill="#F4C537"/>
<rect x="386.88" y="13.4388" width="10.0862" height="10.559" fill="#625D5D"/>
<rect x="526.268" y="13.4388" width="10.0862" height="10.559" fill="#625D5D"/>
<rect x="596.962" y="13.4388" width="10.0862" height="10.559" fill="#625D5D"/>
<rect x="386.88" y="26.8774" width="10.0862" height="10.559" fill="#625D5D"/>
<rect x="526.268" y="26.8774" width="10.0862" height="10.559" fill="#625D5D"/>
<rect x="596.962" y="26.8774" width="10.0862" height="10.559" fill="#625D5D"/>
<rect x="386.88" y="40.3162" width="10.0862" height="10.559" fill="#F4C537"/>
<rect x="526.268" y="40.3162" width="10.0862" height="10.559" fill="#F4C537"/>
<rect x="596.962" y="40.3162" width="10.0862" height="10.559" fill="#F4C537"/>
<rect x="386.88" y="53.7549" width="10.0862" height="10.559" fill="#625D5D"/>
<rect x="526.268" y="53.7549" width="10.0862" height="10.559" fill="#625D5D"/>
<rect x="596.962" y="53.7549" width="10.0862" height="10.559" fill="#625D5D"/>
<rect x="386.88" y="67.1936" width="10.0862" height="10.559" fill="#625D5D"/>
<rect x="526.268" y="67.1936" width="10.0862" height="10.559" fill="#625D5D"/>
<rect x="596.962" y="67.1936" width="10.0862" height="10.559" fill="#625D5D"/>
<rect x="386.88" y="80.6324" width="10.0862" height="10.559" fill="#F4C537"/>
<rect x="526.268" y="80.6324" width="10.0862" height="10.559" fill="#F4C537"/>
<rect x="596.962" y="80.6324" width="10.0862" height="10.559" fill="#F4C537"/>
<rect x="399.717" width="10.0862" height="10.559" fill="#F4C537"/>
<rect x="539.105" width="10.0862" height="10.559" fill="#F4C537"/>
<rect x="609.799" width="10.0862" height="10.559" fill="#F4C537"/>
<rect x="399.717" y="13.4388" width="10.0862" height="10.559" fill="#F4C537"/>
<rect x="539.105" y="13.4388" width="10.0862" height="10.559" fill="#F4C537"/>
<rect x="609.799" y="13.4388" width="10.0862" height="10.559" fill="#F4C537"/>
<rect x="399.717" y="26.8774" width="10.0862" height="10.559" fill="#F4C537"/>
<rect x="539.105" y="26.8774" width="10.0862" height="10.559" fill="#F4C537"/>
<rect x="609.799" y="26.8774" width="10.0862" height="10.559" fill="#F4C537"/>
<rect x="399.717" y="40.3162" width="10.0862" height="10.559" fill="#F4C537"/>
<rect x="539.105" y="40.3162" width="10.0862" height="10.559" fill="#F4C537"/>
<rect x="609.799" y="40.3162" width="10.0862" height="10.559" fill="#F4C537"/>
<rect x="399.717" y="53.7549" width="10.0862" height="10.559" fill="#625D5D"/>
<rect x="539.105" y="53.7549" width="10.0862" height="10.559" fill="#625D5D"/>
<rect x="609.799" y="53.7549" width="10.0862" height="10.559" fill="#625D5D"/>
<rect x="399.717" y="67.1936" width="10.0862" height="10.559" fill="#625D5D"/>
<rect x="539.105" y="67.1936" width="10.0862" height="10.559" fill="#625D5D"/>
<rect x="609.799" y="67.1936" width="10.0862" height="10.559" fill="#625D5D"/>
<rect x="399.717" y="80.6324" width="10.0862" height="10.559" fill="#F4C537"/>
<rect x="539.105" y="80.6324" width="10.0862" height="10.559" fill="#F4C537"/>
<rect x="609.799" y="80.6324" width="10.0862" height="10.559" fill="#F4C537"/>
<rect x="419.063" width="10.0862" height="10.559" fill="#F4C537"/>
<rect x="419.063" y="13.4388" width="10.0862" height="10.559" fill="#F4C537"/>
<rect x="419.063" y="26.8774" width="10.0862" height="10.559" fill="#F4C537"/>
<rect x="419.063" y="40.3162" width="10.0862" height="10.559" fill="#F4C537"/>
<rect x="419.063" y="53.7549" width="10.0862" height="10.559" fill="#F4C537"/>
<rect x="419.063" y="67.1936" width="10.0862" height="10.559" fill="#F4C537"/>
<rect x="419.063" y="80.6324" width="10.0862" height="10.559" fill="#F4C537"/>
<rect x="429.9" width="10.0862" height="10.559" fill="#F4C537"/>
<rect x="429.9" y="13.4388" width="10.0862" height="10.559" fill="#625D5D"/>
<rect x="429.9" y="26.8774" width="10.0862" height="10.559" fill="#625D5D"/>
<rect x="429.9" y="40.3162" width="10.0862" height="10.559" fill="#625D5D"/>
<rect x="429.9" y="53.7549" width="10.0862" height="10.559" fill="#625D5D"/>
<rect x="429.9" y="67.1936" width="10.0862" height="10.559" fill="#625D5D"/>
<rect x="429.9" y="80.6324" width="10.0862" height="10.559" fill="#F4C537"/>
<rect x="442.737" width="10.0862" height="10.559" fill="#F4C537"/>
<rect x="442.737" y="13.4388" width="10.0862" height="10.559" fill="#625D5D"/>
<rect x="442.737" y="26.8774" width="10.0862" height="10.559" fill="#625D5D"/>
<rect x="442.737" y="40.3162" width="10.0862" height="10.559" fill="#625D5D"/>
<rect x="442.737" y="53.7549" width="10.0862" height="10.559" fill="#625D5D"/>
<rect x="442.737" y="67.1936" width="10.0862" height="10.559" fill="#625D5D"/>
<rect x="442.737" y="80.6324" width="10.0862" height="10.559" fill="#F4C537"/>
<rect x="455.574" width="10.0862" height="10.559" fill="#F4C537"/>
<rect x="455.574" y="13.4388" width="10.0862" height="10.559" fill="#625D5D"/>
<rect x="455.574" y="26.8774" width="10.0862" height="10.559" fill="#625D5D"/>
<rect x="455.574" y="40.3162" width="10.0862" height="10.559" fill="#625D5D"/>
<rect x="455.574" y="53.7549" width="10.0862" height="10.559" fill="#625D5D"/>
<rect x="455.574" y="67.1936" width="10.0862" height="10.559" fill="#625D5D"/>
<rect x="455.574" y="80.6324" width="10.0862" height="10.559" fill="#F4C537"/>
<rect x="468.411" width="10.0862" height="10.559" fill="#F4C537"/>
<rect x="468.411" y="13.4388" width="10.0862" height="10.559" fill="#F4C537"/>
<rect x="468.411" y="26.8774" width="10.0862" height="10.559" fill="#F4C537"/>
<rect x="468.411" y="40.3162" width="10.0862" height="10.559" fill="#F4C537"/>
<rect x="468.411" y="53.7549" width="10.0862" height="10.559" fill="#F4C537"/>
<rect x="468.411" y="67.1936" width="10.0862" height="10.559" fill="#F4C537"/>
<rect x="468.411" y="80.6324" width="10.0862" height="10.559" fill="#F4C537"/>
<rect width="10.0618" height="10.5335" fill="#F4C537"/>
<rect x="138.047" width="10.0618" height="10.5335" fill="#625D5D"/>
<rect x="208.57" width="10.0618" height="10.5335" fill="#F4C537"/>
<rect y="13.3535" width="10.0618" height="10.5335" fill="#625D5D"/>
<rect x="138.047" y="13.3535" width="10.0618" height="10.5335" fill="#625D5D"/>
<rect x="208.57" y="13.3535" width="10.0618" height="10.5335" fill="#625D5D"/>
<rect y="26.8125" width="10.0618" height="10.5335" fill="#625D5D"/>
<rect x="138.047" y="26.8125" width="10.0618" height="10.5335" fill="#625D5D"/>
<rect x="208.57" y="26.8125" width="10.0618" height="10.5335" fill="#625D5D"/>
<rect y="40.2188" width="10.0618" height="10.5335" fill="#F4C537"/>
<rect x="138.047" y="40.2188" width="10.0618" height="10.5335" fill="#625D5D"/>
<rect x="208.57" y="40.2188" width="10.0618" height="10.5335" fill="#625D5D"/>
<rect y="53.625" width="10.0618" height="10.5335" fill="#F4C537"/>
<rect x="138.047" y="53.625" width="10.0618" height="10.5335" fill="#625D5D"/>
<rect x="208.57" y="53.625" width="10.0618" height="10.5335" fill="#625D5D"/>
<rect y="67.0313" width="10.0618" height="10.5335" fill="#F4C537"/>
<rect x="138.047" y="67.0313" width="10.0618" height="10.5335" fill="#625D5D"/>
<rect x="208.57" y="67.0313" width="10.0618" height="10.5335" fill="#625D5D"/>
<rect y="80.4376" width="10.0618" height="10.5335" fill="#F4C537"/>
<rect x="138.047" y="80.4376" width="10.0618" height="10.5335" fill="#625D5D"/>
<rect x="208.57" y="80.4376" width="10.0618" height="10.5335" fill="#625D5D"/>
<rect x="12.8059" width="10.0618" height="10.5335" fill="#F4C537"/>
<rect x="150.853" width="10.0618" height="10.5335" fill="#625D5D"/>
<rect x="221.376" width="10.0618" height="10.5335" fill="#F4C537"/>
<rect x="12.8059" y="13.4063" width="10.0618" height="10.5335" fill="#625D5D"/>
<rect x="150.853" y="13.4063" width="10.0618" height="10.5335" fill="#625D5D"/>
<rect x="221.376" y="13.4063" width="10.0618" height="10.5335" fill="#625D5D"/>
<rect x="12.8059" y="26.8125" width="10.0618" height="10.5335" fill="#625D5D"/>
<rect x="150.853" y="26.8125" width="10.0618" height="10.5335" fill="#625D5D"/>
<rect x="221.376" y="26.8125" width="10.0618" height="10.5335" fill="#625D5D"/>
<rect x="12.8059" y="40.2188" width="10.0618" height="10.5335" fill="#F4C537"/>
<rect x="150.853" y="40.2188" width="10.0618" height="10.5335" fill="#625D5D"/>
<rect x="221.376" y="40.2188" width="10.0618" height="10.5335" fill="#625D5D"/>
<rect x="12.8059" y="53.625" width="10.0618" height="10.5335" fill="#625D5D"/>
<rect x="150.853" y="53.625" width="10.0618" height="10.5335" fill="#625D5D"/>
<rect x="221.376" y="53.625" width="10.0618" height="10.5335" fill="#625D5D"/>
<rect x="12.8059" y="67.0313" width="10.0618" height="10.5335" fill="#625D5D"/>
<rect x="150.853" y="67.0313" width="10.0618" height="10.5335" fill="#625D5D"/>
<rect x="221.376" y="67.0313" width="10.0618" height="10.5335" fill="#625D5D"/>
<rect x="12.8059" y="80.4376" width="10.0618" height="10.5335" fill="#F4C537"/>
<rect x="150.853" y="80.4376" width="10.0618" height="10.5335" fill="#625D5D"/>
<rect x="221.376" y="80.4376" width="10.0618" height="10.5335" fill="#625D5D"/>
<rect x="25.6121" width="10.0618" height="10.5335" fill="#F4C537"/>
<rect x="163.659" width="10.0618" height="10.5335" fill="#625D5D"/>
<rect x="234.182" width="10.0618" height="10.5335" fill="#F4C537"/>
<rect x="25.6121" y="13.4063" width="10.0618" height="10.5335" fill="#625D5D"/>
<rect x="163.659" y="13.4063" width="10.0618" height="10.5335" fill="#625D5D"/>
<rect x="234.182" y="13.4063" width="10.0618" height="10.5335" fill="#625D5D"/>
<rect x="25.6121" y="26.8125" width="10.0618" height="10.5335" fill="#625D5D"/>
<rect x="163.659" y="26.8125" width="10.0618" height="10.5335" fill="#625D5D"/>
<rect x="234.182" y="26.8125" width="10.0618" height="10.5335" fill="#625D5D"/>
<rect x="25.6121" y="40.2188" width="10.0618" height="10.5335" fill="#F4C537"/>
<rect x="163.659" y="40.2188" width="10.0618" height="10.5335" fill="#625D5D"/>
<rect x="234.182" y="40.2188" width="10.0618" height="10.5335" fill="#625D5D"/>
<rect x="25.6121" y="53.625" width="10.0618" height="10.5335" fill="#625D5D"/>
<rect x="163.659" y="53.625" width="10.0618" height="10.5335" fill="#625D5D"/>
<rect x="234.182" y="53.625" width="10.0618" height="10.5335" fill="#625D5D"/>
<rect x="25.6121" y="67.0313" width="10.0618" height="10.5335" fill="#625D5D"/>
<rect x="163.659" y="67.0313" width="10.0618" height="10.5335" fill="#625D5D"/>
<rect x="234.182" y="67.0313" width="10.0618" height="10.5335" fill="#625D5D"/>
<rect x="25.6121" y="80.4376" width="10.0618" height="10.5335" fill="#F4C537"/>
<rect x="163.659" y="80.4376" width="10.0618" height="10.5335" fill="#625D5D"/>
<rect x="234.182" y="80.4376" width="10.0618" height="10.5335" fill="#625D5D"/>
<rect x="38.418" width="10.0618" height="10.5335" fill="#F4C537"/>
<rect x="176.465" width="10.0618" height="10.5335" fill="#625D5D"/>
<rect x="246.988" width="10.0618" height="10.5335" fill="#F4C537"/>
<rect x="38.418" y="13.4063" width="10.0618" height="10.5335" fill="#625D5D"/>
<rect x="176.465" y="13.4063" width="10.0618" height="10.5335" fill="#625D5D"/>
<rect x="246.988" y="13.4063" width="10.0618" height="10.5335" fill="#625D5D"/>
<rect x="38.418" y="26.8125" width="10.0618" height="10.5335" fill="#625D5D"/>
<rect x="176.465" y="26.8125" width="10.0618" height="10.5335" fill="#625D5D"/>
<rect x="246.988" y="26.8125" width="10.0618" height="10.5335" fill="#625D5D"/>
<rect x="38.418" y="40.2188" width="10.0618" height="10.5335" fill="#F4C537"/>
<rect x="176.465" y="40.2188" width="10.0618" height="10.5335" fill="#625D5D"/>
<rect x="246.988" y="40.2188" width="10.0618" height="10.5335" fill="#625D5D"/>
<rect x="38.418" y="53.625" width="10.0618" height="10.5335" fill="#625D5D"/>
<rect x="176.465" y="53.625" width="10.0618" height="10.5335" fill="#625D5D"/>
<rect x="246.988" y="53.625" width="10.0618" height="10.5335" fill="#625D5D"/>
<rect x="38.418" y="67.0313" width="10.0618" height="10.5335" fill="#625D5D"/>
<rect x="176.465" y="67.0313" width="10.0618" height="10.5335" fill="#625D5D"/>
<rect x="246.988" y="67.0313" width="10.0618" height="10.5335" fill="#625D5D"/>
<rect x="38.418" y="80.4376" width="10.0618" height="10.5335" fill="#F4C537"/>
<rect x="176.465" y="80.4376" width="10.0618" height="10.5335" fill="#625D5D"/>
<rect x="246.988" y="80.4376" width="10.0618" height="10.5335" fill="#625D5D"/>
<rect x="50.2239" width="10.0618" height="10.5335" fill="#F4C537"/>
<rect x="189.271" width="10.0618" height="10.5335" fill="#F4C537"/>
<rect x="259.794" width="10.0618" height="10.5335" fill="#F4C537"/>
<rect x="50.2239" y="13.4063" width="10.0618" height="10.5335" fill="#F4C537"/>
<rect x="189.271" y="13.4063" width="10.0618" height="10.5335" fill="#F4C537"/>
<rect x="259.794" y="13.4063" width="10.0618" height="10.5335" fill="#F4C537"/>
<rect x="50.2239" y="26.8125" width="10.0618" height="10.5335" fill="#F4C537"/>
<rect x="189.271" y="26.8125" width="10.0618" height="10.5335" fill="#F4C537"/>
<rect x="259.794" y="26.8125" width="10.0618" height="10.5335" fill="#F4C537"/>
<rect x="50.2239" y="40.2188" width="10.0618" height="10.5335" fill="#F4C537"/>
<rect x="189.271" y="40.2188" width="10.0618" height="10.5335" fill="#F4C537"/>
<rect x="259.794" y="40.2188" width="10.0618" height="10.5335" fill="#F4C537"/>
<rect x="50.2239" y="53.625" width="10.0618" height="10.5335" fill="#625D5D"/>
<rect x="189.271" y="53.625" width="10.0618" height="10.5335" fill="#F4C537"/>
<rect x="259.794" y="53.625" width="10.0618" height="10.5335" fill="#F4C537"/>
<rect x="50.2239" y="67.0313" width="10.0618" height="10.5335" fill="#625D5D"/>
<rect x="189.271" y="67.0313" width="10.0618" height="10.5335" fill="#F4C537"/>
<rect x="259.794" y="67.0313" width="10.0618" height="10.5335" fill="#F4C537"/>
<rect x="50.2239" y="80.4376" width="10.0618" height="10.5335" fill="#F4C537"/>
<rect x="189.271" y="80.4376" width="10.0618" height="10.5335" fill="#F4C537"/>
<rect x="259.794" y="80.4376" width="10.0618" height="10.5335" fill="#F4C537"/>
<rect x="69.5234" width="10.0618" height="10.5335" fill="#F4C537"/>
<rect x="69.5234" y="13.4063" width="10.0618" height="10.5335" fill="#F4C537"/>
<rect x="69.5234" y="26.8125" width="10.0618" height="10.5335" fill="#F4C537"/>
<rect x="69.5234" y="40.2188" width="10.0618" height="10.5335" fill="#F4C537"/>
<rect x="69.5234" y="53.625" width="10.0618" height="10.5335" fill="#F4C537"/>
<rect x="69.5234" y="67.0313" width="10.0618" height="10.5335" fill="#F4C537"/>
<rect x="69.5234" y="80.4376" width="10.0618" height="10.5335" fill="#F4C537"/>
<rect x="82.3293" width="10.0618" height="10.5335" fill="#F4C537"/>
<rect x="82.3293" y="13.4063" width="10.0618" height="10.5335" fill="#625D5D"/>
<rect x="82.3293" y="26.8125" width="10.0618" height="10.5335" fill="#625D5D"/>
<rect x="82.3293" y="40.2188" width="10.0618" height="10.5335" fill="#625D5D"/>
<rect x="82.3293" y="53.625" width="10.0618" height="10.5335" fill="#625D5D"/>
<rect x="82.3293" y="67.0313" width="10.0618" height="10.5335" fill="#625D5D"/>
<rect x="82.3293" y="80.4376" width="10.0618" height="10.5335" fill="#F4C537"/>
<rect x="95.1353" width="10.0618" height="10.5335" fill="#F4C537"/>
<rect x="95.1353" y="13.4063" width="10.0618" height="10.5335" fill="#625D5D"/>
<rect x="95.1353" y="26.8125" width="10.0618" height="10.5335" fill="#625D5D"/>
<rect x="95.1353" y="40.2188" width="10.0618" height="10.5335" fill="#625D5D"/>
<rect x="95.1353" y="53.625" width="10.0618" height="10.5335" fill="#625D5D"/>
<rect x="95.1353" y="67.0313" width="10.0618" height="10.5335" fill="#625D5D"/>
<rect x="95.1353" y="80.4376" width="10.0618" height="10.5335" fill="#F4C537"/>
<rect x="107.941" width="10.0618" height="10.5335" fill="#F4C537"/>
<rect x="107.941" y="13.4063" width="10.0618" height="10.5335" fill="#625D5D"/>
<rect x="107.941" y="26.8125" width="10.0618" height="10.5335" fill="#625D5D"/>
<rect x="107.941" y="40.2188" width="10.0618" height="10.5335" fill="#625D5D"/>
<rect x="107.941" y="53.625" width="10.0618" height="10.5335" fill="#625D5D"/>
<rect x="107.941" y="67.0313" width="10.0618" height="10.5335" fill="#625D5D"/>
<rect x="107.941" y="80.4376" width="10.0618" height="10.5335" fill="#F4C537"/>
<rect x="120.747" width="10.0618" height="10.5335" fill="#F4C537"/>
<rect x="120.747" y="13.4063" width="10.0618" height="10.5335" fill="#F4C537"/>
<rect x="120.747" y="26.8125" width="10.0618" height="10.5335" fill="#F4C537"/>
<rect x="120.747" y="40.2188" width="10.0618" height="10.5335" fill="#F4C537"/>
<rect x="120.747" y="53.625" width="10.0618" height="10.5335" fill="#F4C537"/>
<rect x="120.747" y="67.0313" width="10.0618" height="10.5335" fill="#F4C537"/>
<rect x="120.747" y="80.4376" width="10.0618" height="10.5335" fill="#F4C537"/>
<rect x="279.125" width="10.02" height="10.4897" fill="#625D5D"/>
<rect x="279.125" y="13.3505" width="10.02" height="10.4897" fill="#625D5D"/>
<rect x="279.125" y="26.7011" width="10.02" height="10.4897" fill="#625D5D"/>
<rect x="279.125" y="40.0517" width="10.02" height="10.4897" fill="#625D5D"/>
<rect x="279.125" y="53.4022" width="10.02" height="10.4897" fill="#625D5D"/>
<rect x="279.125" y="66.7528" width="10.02" height="10.4897" fill="#625D5D"/>
<rect x="279.125" y="80.1034" width="10.02" height="10.4897" fill="#625D5D"/>
<rect x="291.878" y="-3.05176e-05" width="10.02" height="10.4897" fill="#625D5D"/>
<rect x="291.878" y="13.3505" width="10.02" height="10.4897" fill="#625D5D"/>
<rect x="291.878" y="26.7011" width="10.02" height="10.4897" fill="#625D5D"/>
<rect x="291.878" y="40.0517" width="10.02" height="10.4897" fill="#F4C537"/>
<rect x="291.878" y="53.4022" width="10.02" height="10.4897" fill="#625D5D"/>
<rect x="291.878" y="66.7528" width="10.02" height="10.4897" fill="#625D5D"/>
<rect x="291.878" y="80.1034" width="10.02" height="10.4897" fill="#625D5D"/>
<rect x="304.631" y="-3.05176e-05" width="10.02" height="10.4897" fill="#625D5D"/>
<rect x="304.631" y="13.3505" width="10.02" height="10.4897" fill="#625D5D"/>
<rect x="304.631" y="26.7011" width="10.02" height="10.4897" fill="#625D5D"/>
<rect x="304.631" y="40.0517" width="10.02" height="10.4897" fill="#F4C537"/>
<rect x="304.631" y="53.4022" width="10.02" height="10.4897" fill="#625D5D"/>
<rect x="304.631" y="66.7528" width="10.02" height="10.4897" fill="#625D5D"/>
<rect x="304.631" y="80.1034" width="10.02" height="10.4897" fill="#625D5D"/>
<rect x="317.384" y="-3.05176e-05" width="10.02" height="10.4897" fill="#625D5D"/>
<rect x="317.384" y="13.3505" width="10.02" height="10.4897" fill="#625D5D"/>
<rect x="317.384" y="26.7011" width="10.02" height="10.4897" fill="#625D5D"/>
<rect x="317.384" y="40.0517" width="10.02" height="10.4897" fill="#F4C537"/>
<rect x="317.384" y="53.4022" width="10.02" height="10.4897" fill="#625D5D"/>
<rect x="317.384" y="66.7528" width="10.02" height="10.4897" fill="#625D5D"/>
<rect x="317.384" y="80.1034" width="10.02" height="10.4897" fill="#625D5D"/>
<rect x="330.136" y="-3.05176e-05" width="10.02" height="10.4897" fill="#625D5D"/>
<rect x="330.136" y="13.3505" width="10.02" height="10.4897" fill="#625D5D"/>
<rect x="330.136" y="26.7011" width="10.02" height="10.4897" fill="#625D5D"/>
<rect x="330.136" y="40.0517" width="10.02" height="10.4897" fill="#625D5D"/>
<rect x="330.136" y="53.4022" width="10.02" height="10.4897" fill="#625D5D"/>
<rect x="330.136" y="66.7528" width="10.02" height="10.4897" fill="#625D5D"/>
<rect x="330.136" y="80.1034" width="10.02" height="10.4897" fill="#625D5D"/>
</g>
<defs>
<clipPath id="clip0_70_830">
<rect width="620" height="91" fill="white"/>
</clipPath>
</defs>
</svg>
